G04 #@! TF.GenerationSoftware,KiCad,Pcbnew,7.0.6-0*
G04 #@! TF.CreationDate,2023-08-27T09:50:28-04:00*
G04 #@! TF.ProjectId,edge triggered monostable,65646765-2074-4726-9967-676572656420,1.0*
G04 #@! TF.SameCoordinates,Original*
G04 #@! TF.FileFunction,Legend,Top*
G04 #@! TF.FilePolarity,Positive*
%FSLAX46Y46*%
G04 Gerber Fmt 4.6, Leading zero omitted, Abs format (unit mm)*
G04 Created by KiCad (PCBNEW 7.0.6-0) date 2023-08-27 09:50:28*
%MOMM*%
%LPD*%
G01*
G04 APERTURE LIST*
G04 Aperture macros list*
%AMRoundRect*
0 Rectangle with rounded corners*
0 $1 Rounding radius*
0 $2 $3 $4 $5 $6 $7 $8 $9 X,Y pos of 4 corners*
0 Add a 4 corners polygon primitive as box body*
4,1,4,$2,$3,$4,$5,$6,$7,$8,$9,$2,$3,0*
0 Add four circle primitives for the rounded corners*
1,1,$1+$1,$2,$3*
1,1,$1+$1,$4,$5*
1,1,$1+$1,$6,$7*
1,1,$1+$1,$8,$9*
0 Add four rect primitives between the rounded corners*
20,1,$1+$1,$2,$3,$4,$5,0*
20,1,$1+$1,$4,$5,$6,$7,0*
20,1,$1+$1,$6,$7,$8,$9,0*
20,1,$1+$1,$8,$9,$2,$3,0*%
G04 Aperture macros list end*
%ADD10C,0.300000*%
%ADD11C,0.150000*%
%ADD12C,0.120000*%
%ADD13RoundRect,0.150000X-0.825000X-0.150000X0.825000X-0.150000X0.825000X0.150000X-0.825000X0.150000X0*%
%ADD14R,2.000000X2.000000*%
%ADD15C,2.000000*%
%ADD16R,2.100000X2.100000*%
%ADD17C,2.100000*%
%ADD18C,5.500000*%
%ADD19RoundRect,0.250000X0.450000X-0.262500X0.450000X0.262500X-0.450000X0.262500X-0.450000X-0.262500X0*%
%ADD20RoundRect,0.250000X-0.450000X0.262500X-0.450000X-0.262500X0.450000X-0.262500X0.450000X0.262500X0*%
%ADD21RoundRect,0.243750X-0.456250X0.243750X-0.456250X-0.243750X0.456250X-0.243750X0.456250X0.243750X0*%
%ADD22RoundRect,0.225000X-0.375000X0.225000X-0.375000X-0.225000X0.375000X-0.225000X0.375000X0.225000X0*%
%ADD23RoundRect,0.250000X-0.475000X0.250000X-0.475000X-0.250000X0.475000X-0.250000X0.475000X0.250000X0*%
%ADD24RoundRect,0.225000X0.375000X-0.225000X0.375000X0.225000X-0.375000X0.225000X-0.375000X-0.225000X0*%
%ADD25RoundRect,0.250000X-0.250000X-0.475000X0.250000X-0.475000X0.250000X0.475000X-0.250000X0.475000X0*%
G04 APERTURE END LIST*
D10*
X84340225Y-96272257D02*
X84197368Y-96200828D01*
X84197368Y-96200828D02*
X83983082Y-96200828D01*
X83983082Y-96200828D02*
X83768796Y-96272257D01*
X83768796Y-96272257D02*
X83625939Y-96415114D01*
X83625939Y-96415114D02*
X83554510Y-96557971D01*
X83554510Y-96557971D02*
X83483082Y-96843685D01*
X83483082Y-96843685D02*
X83483082Y-97057971D01*
X83483082Y-97057971D02*
X83554510Y-97343685D01*
X83554510Y-97343685D02*
X83625939Y-97486542D01*
X83625939Y-97486542D02*
X83768796Y-97629400D01*
X83768796Y-97629400D02*
X83983082Y-97700828D01*
X83983082Y-97700828D02*
X84125939Y-97700828D01*
X84125939Y-97700828D02*
X84340225Y-97629400D01*
X84340225Y-97629400D02*
X84411653Y-97557971D01*
X84411653Y-97557971D02*
X84411653Y-97057971D01*
X84411653Y-97057971D02*
X84125939Y-97057971D01*
X85054510Y-97700828D02*
X85054510Y-96200828D01*
X85054510Y-96200828D02*
X85911653Y-97700828D01*
X85911653Y-97700828D02*
X85911653Y-96200828D01*
X86625939Y-97700828D02*
X86625939Y-96200828D01*
X86625939Y-96200828D02*
X86983082Y-96200828D01*
X86983082Y-96200828D02*
X87197368Y-96272257D01*
X87197368Y-96272257D02*
X87340225Y-96415114D01*
X87340225Y-96415114D02*
X87411654Y-96557971D01*
X87411654Y-96557971D02*
X87483082Y-96843685D01*
X87483082Y-96843685D02*
X87483082Y-97057971D01*
X87483082Y-97057971D02*
X87411654Y-97343685D01*
X87411654Y-97343685D02*
X87340225Y-97486542D01*
X87340225Y-97486542D02*
X87197368Y-97629400D01*
X87197368Y-97629400D02*
X86983082Y-97700828D01*
X86983082Y-97700828D02*
X86625939Y-97700828D01*
X158054510Y-109300828D02*
X158054510Y-107800828D01*
X158054510Y-107800828D02*
X158911653Y-109300828D01*
X158911653Y-109300828D02*
X158911653Y-107800828D01*
X160483082Y-109157971D02*
X160411654Y-109229400D01*
X160411654Y-109229400D02*
X160197368Y-109300828D01*
X160197368Y-109300828D02*
X160054511Y-109300828D01*
X160054511Y-109300828D02*
X159840225Y-109229400D01*
X159840225Y-109229400D02*
X159697368Y-109086542D01*
X159697368Y-109086542D02*
X159625939Y-108943685D01*
X159625939Y-108943685D02*
X159554511Y-108657971D01*
X159554511Y-108657971D02*
X159554511Y-108443685D01*
X159554511Y-108443685D02*
X159625939Y-108157971D01*
X159625939Y-108157971D02*
X159697368Y-108015114D01*
X159697368Y-108015114D02*
X159840225Y-107872257D01*
X159840225Y-107872257D02*
X160054511Y-107800828D01*
X160054511Y-107800828D02*
X160197368Y-107800828D01*
X160197368Y-107800828D02*
X160411654Y-107872257D01*
X160411654Y-107872257D02*
X160483082Y-107943685D01*
X83054510Y-94429400D02*
X84197368Y-94429400D01*
X83625939Y-95000828D02*
X83625939Y-93857971D01*
X85697368Y-95000828D02*
X84840225Y-95000828D01*
X85268796Y-95000828D02*
X85268796Y-93500828D01*
X85268796Y-93500828D02*
X85125939Y-93715114D01*
X85125939Y-93715114D02*
X84983082Y-93857971D01*
X84983082Y-93857971D02*
X84840225Y-93929400D01*
X86268796Y-93643685D02*
X86340224Y-93572257D01*
X86340224Y-93572257D02*
X86483082Y-93500828D01*
X86483082Y-93500828D02*
X86840224Y-93500828D01*
X86840224Y-93500828D02*
X86983082Y-93572257D01*
X86983082Y-93572257D02*
X87054510Y-93643685D01*
X87054510Y-93643685D02*
X87125939Y-93786542D01*
X87125939Y-93786542D02*
X87125939Y-93929400D01*
X87125939Y-93929400D02*
X87054510Y-94143685D01*
X87054510Y-94143685D02*
X86197367Y-95000828D01*
X86197367Y-95000828D02*
X87125939Y-95000828D01*
X158911653Y-92907971D02*
X158840225Y-92979400D01*
X158840225Y-92979400D02*
X158625939Y-93050828D01*
X158625939Y-93050828D02*
X158483082Y-93050828D01*
X158483082Y-93050828D02*
X158268796Y-92979400D01*
X158268796Y-92979400D02*
X158125939Y-92836542D01*
X158125939Y-92836542D02*
X158054510Y-92693685D01*
X158054510Y-92693685D02*
X157983082Y-92407971D01*
X157983082Y-92407971D02*
X157983082Y-92193685D01*
X157983082Y-92193685D02*
X158054510Y-91907971D01*
X158054510Y-91907971D02*
X158125939Y-91765114D01*
X158125939Y-91765114D02*
X158268796Y-91622257D01*
X158268796Y-91622257D02*
X158483082Y-91550828D01*
X158483082Y-91550828D02*
X158625939Y-91550828D01*
X158625939Y-91550828D02*
X158840225Y-91622257D01*
X158840225Y-91622257D02*
X158911653Y-91693685D01*
X158911653Y-102407971D02*
X158840225Y-102479400D01*
X158840225Y-102479400D02*
X158625939Y-102550828D01*
X158625939Y-102550828D02*
X158483082Y-102550828D01*
X158483082Y-102550828D02*
X158268796Y-102479400D01*
X158268796Y-102479400D02*
X158125939Y-102336542D01*
X158125939Y-102336542D02*
X158054510Y-102193685D01*
X158054510Y-102193685D02*
X157983082Y-101907971D01*
X157983082Y-101907971D02*
X157983082Y-101693685D01*
X157983082Y-101693685D02*
X158054510Y-101407971D01*
X158054510Y-101407971D02*
X158125939Y-101265114D01*
X158125939Y-101265114D02*
X158268796Y-101122257D01*
X158268796Y-101122257D02*
X158483082Y-101050828D01*
X158483082Y-101050828D02*
X158625939Y-101050828D01*
X158625939Y-101050828D02*
X158840225Y-101122257D01*
X158840225Y-101122257D02*
X158911653Y-101193685D01*
X92254510Y-88615114D02*
X92754510Y-88615114D01*
X92968796Y-89400828D02*
X92254510Y-89400828D01*
X92254510Y-89400828D02*
X92254510Y-87900828D01*
X92254510Y-87900828D02*
X92968796Y-87900828D01*
X94254511Y-89400828D02*
X94254511Y-87900828D01*
X94254511Y-89329400D02*
X94111653Y-89400828D01*
X94111653Y-89400828D02*
X93825939Y-89400828D01*
X93825939Y-89400828D02*
X93683082Y-89329400D01*
X93683082Y-89329400D02*
X93611653Y-89257971D01*
X93611653Y-89257971D02*
X93540225Y-89115114D01*
X93540225Y-89115114D02*
X93540225Y-88686542D01*
X93540225Y-88686542D02*
X93611653Y-88543685D01*
X93611653Y-88543685D02*
X93683082Y-88472257D01*
X93683082Y-88472257D02*
X93825939Y-88400828D01*
X93825939Y-88400828D02*
X94111653Y-88400828D01*
X94111653Y-88400828D02*
X94254511Y-88472257D01*
X95611654Y-88400828D02*
X95611654Y-89615114D01*
X95611654Y-89615114D02*
X95540225Y-89757971D01*
X95540225Y-89757971D02*
X95468796Y-89829400D01*
X95468796Y-89829400D02*
X95325939Y-89900828D01*
X95325939Y-89900828D02*
X95111654Y-89900828D01*
X95111654Y-89900828D02*
X94968796Y-89829400D01*
X95611654Y-89329400D02*
X95468796Y-89400828D01*
X95468796Y-89400828D02*
X95183082Y-89400828D01*
X95183082Y-89400828D02*
X95040225Y-89329400D01*
X95040225Y-89329400D02*
X94968796Y-89257971D01*
X94968796Y-89257971D02*
X94897368Y-89115114D01*
X94897368Y-89115114D02*
X94897368Y-88686542D01*
X94897368Y-88686542D02*
X94968796Y-88543685D01*
X94968796Y-88543685D02*
X95040225Y-88472257D01*
X95040225Y-88472257D02*
X95183082Y-88400828D01*
X95183082Y-88400828D02*
X95468796Y-88400828D01*
X95468796Y-88400828D02*
X95611654Y-88472257D01*
X96897368Y-89329400D02*
X96754511Y-89400828D01*
X96754511Y-89400828D02*
X96468797Y-89400828D01*
X96468797Y-89400828D02*
X96325939Y-89329400D01*
X96325939Y-89329400D02*
X96254511Y-89186542D01*
X96254511Y-89186542D02*
X96254511Y-88615114D01*
X96254511Y-88615114D02*
X96325939Y-88472257D01*
X96325939Y-88472257D02*
X96468797Y-88400828D01*
X96468797Y-88400828D02*
X96754511Y-88400828D01*
X96754511Y-88400828D02*
X96897368Y-88472257D01*
X96897368Y-88472257D02*
X96968797Y-88615114D01*
X96968797Y-88615114D02*
X96968797Y-88757971D01*
X96968797Y-88757971D02*
X96254511Y-88900828D01*
X98540225Y-87900828D02*
X99397368Y-87900828D01*
X98968796Y-89400828D02*
X98968796Y-87900828D01*
X99897367Y-89400828D02*
X99897367Y-88400828D01*
X99897367Y-88686542D02*
X99968796Y-88543685D01*
X99968796Y-88543685D02*
X100040225Y-88472257D01*
X100040225Y-88472257D02*
X100183082Y-88400828D01*
X100183082Y-88400828D02*
X100325939Y-88400828D01*
X100825938Y-89400828D02*
X100825938Y-88400828D01*
X100825938Y-87900828D02*
X100754510Y-87972257D01*
X100754510Y-87972257D02*
X100825938Y-88043685D01*
X100825938Y-88043685D02*
X100897367Y-87972257D01*
X100897367Y-87972257D02*
X100825938Y-87900828D01*
X100825938Y-87900828D02*
X100825938Y-88043685D01*
X102183082Y-88400828D02*
X102183082Y-89615114D01*
X102183082Y-89615114D02*
X102111653Y-89757971D01*
X102111653Y-89757971D02*
X102040224Y-89829400D01*
X102040224Y-89829400D02*
X101897367Y-89900828D01*
X101897367Y-89900828D02*
X101683082Y-89900828D01*
X101683082Y-89900828D02*
X101540224Y-89829400D01*
X102183082Y-89329400D02*
X102040224Y-89400828D01*
X102040224Y-89400828D02*
X101754510Y-89400828D01*
X101754510Y-89400828D02*
X101611653Y-89329400D01*
X101611653Y-89329400D02*
X101540224Y-89257971D01*
X101540224Y-89257971D02*
X101468796Y-89115114D01*
X101468796Y-89115114D02*
X101468796Y-88686542D01*
X101468796Y-88686542D02*
X101540224Y-88543685D01*
X101540224Y-88543685D02*
X101611653Y-88472257D01*
X101611653Y-88472257D02*
X101754510Y-88400828D01*
X101754510Y-88400828D02*
X102040224Y-88400828D01*
X102040224Y-88400828D02*
X102183082Y-88472257D01*
X102897367Y-89257971D02*
X102968796Y-89329400D01*
X102968796Y-89329400D02*
X102897367Y-89400828D01*
X102897367Y-89400828D02*
X102825939Y-89329400D01*
X102825939Y-89329400D02*
X102897367Y-89257971D01*
X102897367Y-89257971D02*
X102897367Y-89400828D01*
X104754510Y-89400828D02*
X104754510Y-87900828D01*
X104754510Y-87900828D02*
X105254510Y-88972257D01*
X105254510Y-88972257D02*
X105754510Y-87900828D01*
X105754510Y-87900828D02*
X105754510Y-89400828D01*
X106683082Y-89400828D02*
X106540225Y-89329400D01*
X106540225Y-89329400D02*
X106468796Y-89257971D01*
X106468796Y-89257971D02*
X106397368Y-89115114D01*
X106397368Y-89115114D02*
X106397368Y-88686542D01*
X106397368Y-88686542D02*
X106468796Y-88543685D01*
X106468796Y-88543685D02*
X106540225Y-88472257D01*
X106540225Y-88472257D02*
X106683082Y-88400828D01*
X106683082Y-88400828D02*
X106897368Y-88400828D01*
X106897368Y-88400828D02*
X107040225Y-88472257D01*
X107040225Y-88472257D02*
X107111654Y-88543685D01*
X107111654Y-88543685D02*
X107183082Y-88686542D01*
X107183082Y-88686542D02*
X107183082Y-89115114D01*
X107183082Y-89115114D02*
X107111654Y-89257971D01*
X107111654Y-89257971D02*
X107040225Y-89329400D01*
X107040225Y-89329400D02*
X106897368Y-89400828D01*
X106897368Y-89400828D02*
X106683082Y-89400828D01*
X107825939Y-88400828D02*
X107825939Y-89400828D01*
X107825939Y-88543685D02*
X107897368Y-88472257D01*
X107897368Y-88472257D02*
X108040225Y-88400828D01*
X108040225Y-88400828D02*
X108254511Y-88400828D01*
X108254511Y-88400828D02*
X108397368Y-88472257D01*
X108397368Y-88472257D02*
X108468797Y-88615114D01*
X108468797Y-88615114D02*
X108468797Y-89400828D01*
X109397368Y-89400828D02*
X109254511Y-89329400D01*
X109254511Y-89329400D02*
X109183082Y-89257971D01*
X109183082Y-89257971D02*
X109111654Y-89115114D01*
X109111654Y-89115114D02*
X109111654Y-88686542D01*
X109111654Y-88686542D02*
X109183082Y-88543685D01*
X109183082Y-88543685D02*
X109254511Y-88472257D01*
X109254511Y-88472257D02*
X109397368Y-88400828D01*
X109397368Y-88400828D02*
X109611654Y-88400828D01*
X109611654Y-88400828D02*
X109754511Y-88472257D01*
X109754511Y-88472257D02*
X109825940Y-88543685D01*
X109825940Y-88543685D02*
X109897368Y-88686542D01*
X109897368Y-88686542D02*
X109897368Y-89115114D01*
X109897368Y-89115114D02*
X109825940Y-89257971D01*
X109825940Y-89257971D02*
X109754511Y-89329400D01*
X109754511Y-89329400D02*
X109611654Y-89400828D01*
X109611654Y-89400828D02*
X109397368Y-89400828D01*
X110468797Y-89329400D02*
X110611654Y-89400828D01*
X110611654Y-89400828D02*
X110897368Y-89400828D01*
X110897368Y-89400828D02*
X111040225Y-89329400D01*
X111040225Y-89329400D02*
X111111654Y-89186542D01*
X111111654Y-89186542D02*
X111111654Y-89115114D01*
X111111654Y-89115114D02*
X111040225Y-88972257D01*
X111040225Y-88972257D02*
X110897368Y-88900828D01*
X110897368Y-88900828D02*
X110683083Y-88900828D01*
X110683083Y-88900828D02*
X110540225Y-88829400D01*
X110540225Y-88829400D02*
X110468797Y-88686542D01*
X110468797Y-88686542D02*
X110468797Y-88615114D01*
X110468797Y-88615114D02*
X110540225Y-88472257D01*
X110540225Y-88472257D02*
X110683083Y-88400828D01*
X110683083Y-88400828D02*
X110897368Y-88400828D01*
X110897368Y-88400828D02*
X111040225Y-88472257D01*
X111540226Y-88400828D02*
X112111654Y-88400828D01*
X111754511Y-87900828D02*
X111754511Y-89186542D01*
X111754511Y-89186542D02*
X111825940Y-89329400D01*
X111825940Y-89329400D02*
X111968797Y-89400828D01*
X111968797Y-89400828D02*
X112111654Y-89400828D01*
X113254512Y-89400828D02*
X113254512Y-88615114D01*
X113254512Y-88615114D02*
X113183083Y-88472257D01*
X113183083Y-88472257D02*
X113040226Y-88400828D01*
X113040226Y-88400828D02*
X112754512Y-88400828D01*
X112754512Y-88400828D02*
X112611654Y-88472257D01*
X113254512Y-89329400D02*
X113111654Y-89400828D01*
X113111654Y-89400828D02*
X112754512Y-89400828D01*
X112754512Y-89400828D02*
X112611654Y-89329400D01*
X112611654Y-89329400D02*
X112540226Y-89186542D01*
X112540226Y-89186542D02*
X112540226Y-89043685D01*
X112540226Y-89043685D02*
X112611654Y-88900828D01*
X112611654Y-88900828D02*
X112754512Y-88829400D01*
X112754512Y-88829400D02*
X113111654Y-88829400D01*
X113111654Y-88829400D02*
X113254512Y-88757971D01*
X113968797Y-89400828D02*
X113968797Y-87900828D01*
X113968797Y-88472257D02*
X114111655Y-88400828D01*
X114111655Y-88400828D02*
X114397369Y-88400828D01*
X114397369Y-88400828D02*
X114540226Y-88472257D01*
X114540226Y-88472257D02*
X114611655Y-88543685D01*
X114611655Y-88543685D02*
X114683083Y-88686542D01*
X114683083Y-88686542D02*
X114683083Y-89115114D01*
X114683083Y-89115114D02*
X114611655Y-89257971D01*
X114611655Y-89257971D02*
X114540226Y-89329400D01*
X114540226Y-89329400D02*
X114397369Y-89400828D01*
X114397369Y-89400828D02*
X114111655Y-89400828D01*
X114111655Y-89400828D02*
X113968797Y-89329400D01*
X115540226Y-89400828D02*
X115397369Y-89329400D01*
X115397369Y-89329400D02*
X115325940Y-89186542D01*
X115325940Y-89186542D02*
X115325940Y-87900828D01*
X116683083Y-89329400D02*
X116540226Y-89400828D01*
X116540226Y-89400828D02*
X116254512Y-89400828D01*
X116254512Y-89400828D02*
X116111654Y-89329400D01*
X116111654Y-89329400D02*
X116040226Y-89186542D01*
X116040226Y-89186542D02*
X116040226Y-88615114D01*
X116040226Y-88615114D02*
X116111654Y-88472257D01*
X116111654Y-88472257D02*
X116254512Y-88400828D01*
X116254512Y-88400828D02*
X116540226Y-88400828D01*
X116540226Y-88400828D02*
X116683083Y-88472257D01*
X116683083Y-88472257D02*
X116754512Y-88615114D01*
X116754512Y-88615114D02*
X116754512Y-88757971D01*
X116754512Y-88757971D02*
X116040226Y-88900828D01*
X118540225Y-88829400D02*
X119683083Y-88829400D01*
X122397368Y-89257971D02*
X122325940Y-89329400D01*
X122325940Y-89329400D02*
X122111654Y-89400828D01*
X122111654Y-89400828D02*
X121968797Y-89400828D01*
X121968797Y-89400828D02*
X121754511Y-89329400D01*
X121754511Y-89329400D02*
X121611654Y-89186542D01*
X121611654Y-89186542D02*
X121540225Y-89043685D01*
X121540225Y-89043685D02*
X121468797Y-88757971D01*
X121468797Y-88757971D02*
X121468797Y-88543685D01*
X121468797Y-88543685D02*
X121540225Y-88257971D01*
X121540225Y-88257971D02*
X121611654Y-88115114D01*
X121611654Y-88115114D02*
X121754511Y-87972257D01*
X121754511Y-87972257D02*
X121968797Y-87900828D01*
X121968797Y-87900828D02*
X122111654Y-87900828D01*
X122111654Y-87900828D02*
X122325940Y-87972257D01*
X122325940Y-87972257D02*
X122397368Y-88043685D01*
X123040225Y-89400828D02*
X123040225Y-87900828D01*
X123183083Y-88829400D02*
X123611654Y-89400828D01*
X123611654Y-88400828D02*
X123040225Y-88972257D01*
X124040226Y-88400828D02*
X124611654Y-88400828D01*
X124254511Y-87900828D02*
X124254511Y-89186542D01*
X124254511Y-89186542D02*
X124325940Y-89329400D01*
X124325940Y-89329400D02*
X124468797Y-89400828D01*
X124468797Y-89400828D02*
X124611654Y-89400828D01*
X125111654Y-89257971D02*
X125183083Y-89329400D01*
X125183083Y-89329400D02*
X125111654Y-89400828D01*
X125111654Y-89400828D02*
X125040226Y-89329400D01*
X125040226Y-89329400D02*
X125111654Y-89257971D01*
X125111654Y-89257971D02*
X125111654Y-89400828D01*
X126968797Y-89400828D02*
X126968797Y-87900828D01*
X126968797Y-88472257D02*
X127111655Y-88400828D01*
X127111655Y-88400828D02*
X127397369Y-88400828D01*
X127397369Y-88400828D02*
X127540226Y-88472257D01*
X127540226Y-88472257D02*
X127611655Y-88543685D01*
X127611655Y-88543685D02*
X127683083Y-88686542D01*
X127683083Y-88686542D02*
X127683083Y-89115114D01*
X127683083Y-89115114D02*
X127611655Y-89257971D01*
X127611655Y-89257971D02*
X127540226Y-89329400D01*
X127540226Y-89329400D02*
X127397369Y-89400828D01*
X127397369Y-89400828D02*
X127111655Y-89400828D01*
X127111655Y-89400828D02*
X126968797Y-89329400D01*
X128183083Y-88400828D02*
X128540226Y-89400828D01*
X128897369Y-88400828D02*
X128540226Y-89400828D01*
X128540226Y-89400828D02*
X128397369Y-89757971D01*
X128397369Y-89757971D02*
X128325940Y-89829400D01*
X128325940Y-89829400D02*
X128183083Y-89900828D01*
X131040226Y-87900828D02*
X131040226Y-88972257D01*
X131040226Y-88972257D02*
X130968797Y-89186542D01*
X130968797Y-89186542D02*
X130825940Y-89329400D01*
X130825940Y-89329400D02*
X130611654Y-89400828D01*
X130611654Y-89400828D02*
X130468797Y-89400828D01*
X131754511Y-89400828D02*
X131754511Y-88400828D01*
X131754511Y-87900828D02*
X131683083Y-87972257D01*
X131683083Y-87972257D02*
X131754511Y-88043685D01*
X131754511Y-88043685D02*
X131825940Y-87972257D01*
X131825940Y-87972257D02*
X131754511Y-87900828D01*
X131754511Y-87900828D02*
X131754511Y-88043685D01*
X132468797Y-89400828D02*
X132468797Y-88400828D01*
X132468797Y-88543685D02*
X132540226Y-88472257D01*
X132540226Y-88472257D02*
X132683083Y-88400828D01*
X132683083Y-88400828D02*
X132897369Y-88400828D01*
X132897369Y-88400828D02*
X133040226Y-88472257D01*
X133040226Y-88472257D02*
X133111655Y-88615114D01*
X133111655Y-88615114D02*
X133111655Y-89400828D01*
X133111655Y-88615114D02*
X133183083Y-88472257D01*
X133183083Y-88472257D02*
X133325940Y-88400828D01*
X133325940Y-88400828D02*
X133540226Y-88400828D01*
X133540226Y-88400828D02*
X133683083Y-88472257D01*
X133683083Y-88472257D02*
X133754512Y-88615114D01*
X133754512Y-88615114D02*
X133754512Y-89400828D01*
X135611654Y-89400828D02*
X135611654Y-87900828D01*
X136468797Y-89400828D02*
X135825940Y-88543685D01*
X136468797Y-87900828D02*
X135611654Y-88757971D01*
X137683083Y-89329400D02*
X137540226Y-89400828D01*
X137540226Y-89400828D02*
X137254512Y-89400828D01*
X137254512Y-89400828D02*
X137111654Y-89329400D01*
X137111654Y-89329400D02*
X137040226Y-89186542D01*
X137040226Y-89186542D02*
X137040226Y-88615114D01*
X137040226Y-88615114D02*
X137111654Y-88472257D01*
X137111654Y-88472257D02*
X137254512Y-88400828D01*
X137254512Y-88400828D02*
X137540226Y-88400828D01*
X137540226Y-88400828D02*
X137683083Y-88472257D01*
X137683083Y-88472257D02*
X137754512Y-88615114D01*
X137754512Y-88615114D02*
X137754512Y-88757971D01*
X137754512Y-88757971D02*
X137040226Y-88900828D01*
X138397368Y-89400828D02*
X138397368Y-88400828D01*
X138397368Y-87900828D02*
X138325940Y-87972257D01*
X138325940Y-87972257D02*
X138397368Y-88043685D01*
X138397368Y-88043685D02*
X138468797Y-87972257D01*
X138468797Y-87972257D02*
X138397368Y-87900828D01*
X138397368Y-87900828D02*
X138397368Y-88043685D01*
X138897369Y-88400828D02*
X139468797Y-88400828D01*
X139111654Y-87900828D02*
X139111654Y-89186542D01*
X139111654Y-89186542D02*
X139183083Y-89329400D01*
X139183083Y-89329400D02*
X139325940Y-89400828D01*
X139325940Y-89400828D02*
X139468797Y-89400828D01*
X139968797Y-89400828D02*
X139968797Y-87900828D01*
X140611655Y-89400828D02*
X140611655Y-88615114D01*
X140611655Y-88615114D02*
X140540226Y-88472257D01*
X140540226Y-88472257D02*
X140397369Y-88400828D01*
X140397369Y-88400828D02*
X140183083Y-88400828D01*
X140183083Y-88400828D02*
X140040226Y-88472257D01*
X140040226Y-88472257D02*
X139968797Y-88543685D01*
X142468797Y-88829400D02*
X143611655Y-88829400D01*
X146325940Y-89400828D02*
X145825940Y-88686542D01*
X145468797Y-89400828D02*
X145468797Y-87900828D01*
X145468797Y-87900828D02*
X146040226Y-87900828D01*
X146040226Y-87900828D02*
X146183083Y-87972257D01*
X146183083Y-87972257D02*
X146254512Y-88043685D01*
X146254512Y-88043685D02*
X146325940Y-88186542D01*
X146325940Y-88186542D02*
X146325940Y-88400828D01*
X146325940Y-88400828D02*
X146254512Y-88543685D01*
X146254512Y-88543685D02*
X146183083Y-88615114D01*
X146183083Y-88615114D02*
X146040226Y-88686542D01*
X146040226Y-88686542D02*
X145468797Y-88686542D01*
X147540226Y-89329400D02*
X147397369Y-89400828D01*
X147397369Y-89400828D02*
X147111655Y-89400828D01*
X147111655Y-89400828D02*
X146968797Y-89329400D01*
X146968797Y-89329400D02*
X146897369Y-89186542D01*
X146897369Y-89186542D02*
X146897369Y-88615114D01*
X146897369Y-88615114D02*
X146968797Y-88472257D01*
X146968797Y-88472257D02*
X147111655Y-88400828D01*
X147111655Y-88400828D02*
X147397369Y-88400828D01*
X147397369Y-88400828D02*
X147540226Y-88472257D01*
X147540226Y-88472257D02*
X147611655Y-88615114D01*
X147611655Y-88615114D02*
X147611655Y-88757971D01*
X147611655Y-88757971D02*
X146897369Y-88900828D01*
X148111654Y-88400828D02*
X148468797Y-89400828D01*
X148468797Y-89400828D02*
X148825940Y-88400828D01*
X149397368Y-89257971D02*
X149468797Y-89329400D01*
X149468797Y-89329400D02*
X149397368Y-89400828D01*
X149397368Y-89400828D02*
X149325940Y-89329400D01*
X149325940Y-89329400D02*
X149397368Y-89257971D01*
X149397368Y-89257971D02*
X149397368Y-89400828D01*
X152040226Y-89400828D02*
X151183083Y-89400828D01*
X151611654Y-89400828D02*
X151611654Y-87900828D01*
X151611654Y-87900828D02*
X151468797Y-88115114D01*
X151468797Y-88115114D02*
X151325940Y-88257971D01*
X151325940Y-88257971D02*
X151183083Y-88329400D01*
X152683082Y-89257971D02*
X152754511Y-89329400D01*
X152754511Y-89329400D02*
X152683082Y-89400828D01*
X152683082Y-89400828D02*
X152611654Y-89329400D01*
X152611654Y-89329400D02*
X152683082Y-89257971D01*
X152683082Y-89257971D02*
X152683082Y-89400828D01*
X153683083Y-87900828D02*
X153825940Y-87900828D01*
X153825940Y-87900828D02*
X153968797Y-87972257D01*
X153968797Y-87972257D02*
X154040226Y-88043685D01*
X154040226Y-88043685D02*
X154111654Y-88186542D01*
X154111654Y-88186542D02*
X154183083Y-88472257D01*
X154183083Y-88472257D02*
X154183083Y-88829400D01*
X154183083Y-88829400D02*
X154111654Y-89115114D01*
X154111654Y-89115114D02*
X154040226Y-89257971D01*
X154040226Y-89257971D02*
X153968797Y-89329400D01*
X153968797Y-89329400D02*
X153825940Y-89400828D01*
X153825940Y-89400828D02*
X153683083Y-89400828D01*
X153683083Y-89400828D02*
X153540226Y-89329400D01*
X153540226Y-89329400D02*
X153468797Y-89257971D01*
X153468797Y-89257971D02*
X153397368Y-89115114D01*
X153397368Y-89115114D02*
X153325940Y-88829400D01*
X153325940Y-88829400D02*
X153325940Y-88472257D01*
X153325940Y-88472257D02*
X153397368Y-88186542D01*
X153397368Y-88186542D02*
X153468797Y-88043685D01*
X153468797Y-88043685D02*
X153540226Y-87972257D01*
X153540226Y-87972257D02*
X153683083Y-87900828D01*
X158054510Y-99550828D02*
X158054510Y-98050828D01*
X158054510Y-98050828D02*
X158911653Y-99550828D01*
X158911653Y-99550828D02*
X158911653Y-98050828D01*
X160483082Y-99407971D02*
X160411654Y-99479400D01*
X160411654Y-99479400D02*
X160197368Y-99550828D01*
X160197368Y-99550828D02*
X160054511Y-99550828D01*
X160054511Y-99550828D02*
X159840225Y-99479400D01*
X159840225Y-99479400D02*
X159697368Y-99336542D01*
X159697368Y-99336542D02*
X159625939Y-99193685D01*
X159625939Y-99193685D02*
X159554511Y-98907971D01*
X159554511Y-98907971D02*
X159554511Y-98693685D01*
X159554511Y-98693685D02*
X159625939Y-98407971D01*
X159625939Y-98407971D02*
X159697368Y-98265114D01*
X159697368Y-98265114D02*
X159840225Y-98122257D01*
X159840225Y-98122257D02*
X160054511Y-98050828D01*
X160054511Y-98050828D02*
X160197368Y-98050828D01*
X160197368Y-98050828D02*
X160411654Y-98122257D01*
X160411654Y-98122257D02*
X160483082Y-98193685D01*
X84554510Y-107300828D02*
X84554510Y-105800828D01*
X85268796Y-107300828D02*
X85268796Y-105800828D01*
X85268796Y-105800828D02*
X86125939Y-107300828D01*
X86125939Y-107300828D02*
X86125939Y-105800828D01*
X158054510Y-95700828D02*
X158054510Y-94200828D01*
X158054510Y-94200828D02*
X158911653Y-95700828D01*
X158911653Y-95700828D02*
X158911653Y-94200828D01*
X159911654Y-94200828D02*
X160197368Y-94200828D01*
X160197368Y-94200828D02*
X160340225Y-94272257D01*
X160340225Y-94272257D02*
X160483082Y-94415114D01*
X160483082Y-94415114D02*
X160554511Y-94700828D01*
X160554511Y-94700828D02*
X160554511Y-95200828D01*
X160554511Y-95200828D02*
X160483082Y-95486542D01*
X160483082Y-95486542D02*
X160340225Y-95629400D01*
X160340225Y-95629400D02*
X160197368Y-95700828D01*
X160197368Y-95700828D02*
X159911654Y-95700828D01*
X159911654Y-95700828D02*
X159768797Y-95629400D01*
X159768797Y-95629400D02*
X159625939Y-95486542D01*
X159625939Y-95486542D02*
X159554511Y-95200828D01*
X159554511Y-95200828D02*
X159554511Y-94700828D01*
X159554511Y-94700828D02*
X159625939Y-94415114D01*
X159625939Y-94415114D02*
X159768797Y-94272257D01*
X159768797Y-94272257D02*
X159911654Y-94200828D01*
X83354510Y-103929400D02*
X84497368Y-103929400D01*
X83925939Y-104500828D02*
X83925939Y-103357971D01*
X85997368Y-104500828D02*
X85140225Y-104500828D01*
X85568796Y-104500828D02*
X85568796Y-103000828D01*
X85568796Y-103000828D02*
X85425939Y-103215114D01*
X85425939Y-103215114D02*
X85283082Y-103357971D01*
X85283082Y-103357971D02*
X85140225Y-103429400D01*
X86568796Y-103143685D02*
X86640224Y-103072257D01*
X86640224Y-103072257D02*
X86783082Y-103000828D01*
X86783082Y-103000828D02*
X87140224Y-103000828D01*
X87140224Y-103000828D02*
X87283082Y-103072257D01*
X87283082Y-103072257D02*
X87354510Y-103143685D01*
X87354510Y-103143685D02*
X87425939Y-103286542D01*
X87425939Y-103286542D02*
X87425939Y-103429400D01*
X87425939Y-103429400D02*
X87354510Y-103643685D01*
X87354510Y-103643685D02*
X86497367Y-104500828D01*
X86497367Y-104500828D02*
X87425939Y-104500828D01*
X158054510Y-106050828D02*
X158054510Y-104550828D01*
X158054510Y-104550828D02*
X158911653Y-106050828D01*
X158911653Y-106050828D02*
X158911653Y-104550828D01*
X159911654Y-104550828D02*
X160197368Y-104550828D01*
X160197368Y-104550828D02*
X160340225Y-104622257D01*
X160340225Y-104622257D02*
X160483082Y-104765114D01*
X160483082Y-104765114D02*
X160554511Y-105050828D01*
X160554511Y-105050828D02*
X160554511Y-105550828D01*
X160554511Y-105550828D02*
X160483082Y-105836542D01*
X160483082Y-105836542D02*
X160340225Y-105979400D01*
X160340225Y-105979400D02*
X160197368Y-106050828D01*
X160197368Y-106050828D02*
X159911654Y-106050828D01*
X159911654Y-106050828D02*
X159768797Y-105979400D01*
X159768797Y-105979400D02*
X159625939Y-105836542D01*
X159625939Y-105836542D02*
X159554511Y-105550828D01*
X159554511Y-105550828D02*
X159554511Y-105050828D01*
X159554511Y-105050828D02*
X159625939Y-104765114D01*
X159625939Y-104765114D02*
X159768797Y-104622257D01*
X159768797Y-104622257D02*
X159911654Y-104550828D01*
X141354510Y-112500828D02*
X141354510Y-111000828D01*
X141354510Y-111000828D02*
X141925939Y-111000828D01*
X141925939Y-111000828D02*
X142068796Y-111072257D01*
X142068796Y-111072257D02*
X142140225Y-111143685D01*
X142140225Y-111143685D02*
X142211653Y-111286542D01*
X142211653Y-111286542D02*
X142211653Y-111500828D01*
X142211653Y-111500828D02*
X142140225Y-111643685D01*
X142140225Y-111643685D02*
X142068796Y-111715114D01*
X142068796Y-111715114D02*
X141925939Y-111786542D01*
X141925939Y-111786542D02*
X141354510Y-111786542D01*
X143497368Y-112500828D02*
X143497368Y-111715114D01*
X143497368Y-111715114D02*
X143425939Y-111572257D01*
X143425939Y-111572257D02*
X143283082Y-111500828D01*
X143283082Y-111500828D02*
X142997368Y-111500828D01*
X142997368Y-111500828D02*
X142854510Y-111572257D01*
X143497368Y-112429400D02*
X143354510Y-112500828D01*
X143354510Y-112500828D02*
X142997368Y-112500828D01*
X142997368Y-112500828D02*
X142854510Y-112429400D01*
X142854510Y-112429400D02*
X142783082Y-112286542D01*
X142783082Y-112286542D02*
X142783082Y-112143685D01*
X142783082Y-112143685D02*
X142854510Y-112000828D01*
X142854510Y-112000828D02*
X142997368Y-111929400D01*
X142997368Y-111929400D02*
X143354510Y-111929400D01*
X143354510Y-111929400D02*
X143497368Y-111857971D01*
X144854511Y-111500828D02*
X144854511Y-112500828D01*
X144211653Y-111500828D02*
X144211653Y-112286542D01*
X144211653Y-112286542D02*
X144283082Y-112429400D01*
X144283082Y-112429400D02*
X144425939Y-112500828D01*
X144425939Y-112500828D02*
X144640225Y-112500828D01*
X144640225Y-112500828D02*
X144783082Y-112429400D01*
X144783082Y-112429400D02*
X144854511Y-112357971D01*
X145783082Y-112500828D02*
X145640225Y-112429400D01*
X145640225Y-112429400D02*
X145568796Y-112286542D01*
X145568796Y-112286542D02*
X145568796Y-111000828D01*
X147497367Y-112500828D02*
X147497367Y-111000828D01*
X147497367Y-111000828D02*
X148068796Y-111000828D01*
X148068796Y-111000828D02*
X148211653Y-111072257D01*
X148211653Y-111072257D02*
X148283082Y-111143685D01*
X148283082Y-111143685D02*
X148354510Y-111286542D01*
X148354510Y-111286542D02*
X148354510Y-111500828D01*
X148354510Y-111500828D02*
X148283082Y-111643685D01*
X148283082Y-111643685D02*
X148211653Y-111715114D01*
X148211653Y-111715114D02*
X148068796Y-111786542D01*
X148068796Y-111786542D02*
X147497367Y-111786542D01*
X149640225Y-112500828D02*
X149640225Y-111715114D01*
X149640225Y-111715114D02*
X149568796Y-111572257D01*
X149568796Y-111572257D02*
X149425939Y-111500828D01*
X149425939Y-111500828D02*
X149140225Y-111500828D01*
X149140225Y-111500828D02*
X148997367Y-111572257D01*
X149640225Y-112429400D02*
X149497367Y-112500828D01*
X149497367Y-112500828D02*
X149140225Y-112500828D01*
X149140225Y-112500828D02*
X148997367Y-112429400D01*
X148997367Y-112429400D02*
X148925939Y-112286542D01*
X148925939Y-112286542D02*
X148925939Y-112143685D01*
X148925939Y-112143685D02*
X148997367Y-112000828D01*
X148997367Y-112000828D02*
X149140225Y-111929400D01*
X149140225Y-111929400D02*
X149497367Y-111929400D01*
X149497367Y-111929400D02*
X149640225Y-111857971D01*
X150354510Y-111500828D02*
X150354510Y-112500828D01*
X150354510Y-111643685D02*
X150425939Y-111572257D01*
X150425939Y-111572257D02*
X150568796Y-111500828D01*
X150568796Y-111500828D02*
X150783082Y-111500828D01*
X150783082Y-111500828D02*
X150925939Y-111572257D01*
X150925939Y-111572257D02*
X150997368Y-111715114D01*
X150997368Y-111715114D02*
X150997368Y-112500828D01*
X151711653Y-112500828D02*
X151711653Y-111500828D01*
X151711653Y-111000828D02*
X151640225Y-111072257D01*
X151640225Y-111072257D02*
X151711653Y-111143685D01*
X151711653Y-111143685D02*
X151783082Y-111072257D01*
X151783082Y-111072257D02*
X151711653Y-111000828D01*
X151711653Y-111000828D02*
X151711653Y-111143685D01*
X152354511Y-112429400D02*
X152497368Y-112500828D01*
X152497368Y-112500828D02*
X152783082Y-112500828D01*
X152783082Y-112500828D02*
X152925939Y-112429400D01*
X152925939Y-112429400D02*
X152997368Y-112286542D01*
X152997368Y-112286542D02*
X152997368Y-112215114D01*
X152997368Y-112215114D02*
X152925939Y-112072257D01*
X152925939Y-112072257D02*
X152783082Y-112000828D01*
X152783082Y-112000828D02*
X152568797Y-112000828D01*
X152568797Y-112000828D02*
X152425939Y-111929400D01*
X152425939Y-111929400D02*
X152354511Y-111786542D01*
X152354511Y-111786542D02*
X152354511Y-111715114D01*
X152354511Y-111715114D02*
X152425939Y-111572257D01*
X152425939Y-111572257D02*
X152568797Y-111500828D01*
X152568797Y-111500828D02*
X152783082Y-111500828D01*
X152783082Y-111500828D02*
X152925939Y-111572257D01*
X153640225Y-112500828D02*
X153640225Y-111000828D01*
X154283083Y-112500828D02*
X154283083Y-111715114D01*
X154283083Y-111715114D02*
X154211654Y-111572257D01*
X154211654Y-111572257D02*
X154068797Y-111500828D01*
X154068797Y-111500828D02*
X153854511Y-111500828D01*
X153854511Y-111500828D02*
X153711654Y-111572257D01*
X153711654Y-111572257D02*
X153640225Y-111643685D01*
D11*
X109263095Y-96149819D02*
X109263095Y-96959342D01*
X109263095Y-96959342D02*
X109310714Y-97054580D01*
X109310714Y-97054580D02*
X109358333Y-97102200D01*
X109358333Y-97102200D02*
X109453571Y-97149819D01*
X109453571Y-97149819D02*
X109644047Y-97149819D01*
X109644047Y-97149819D02*
X109739285Y-97102200D01*
X109739285Y-97102200D02*
X109786904Y-97054580D01*
X109786904Y-97054580D02*
X109834523Y-96959342D01*
X109834523Y-96959342D02*
X109834523Y-96149819D01*
X110834523Y-97149819D02*
X110263095Y-97149819D01*
X110548809Y-97149819D02*
X110548809Y-96149819D01*
X110548809Y-96149819D02*
X110453571Y-96292676D01*
X110453571Y-96292676D02*
X110358333Y-96387914D01*
X110358333Y-96387914D02*
X110263095Y-96435533D01*
X135761905Y-109954819D02*
X135761905Y-108954819D01*
X136333333Y-109954819D02*
X135904762Y-109383390D01*
X136333333Y-108954819D02*
X135761905Y-109526247D01*
X137285714Y-109954819D02*
X136714286Y-109954819D01*
X137000000Y-109954819D02*
X137000000Y-108954819D01*
X137000000Y-108954819D02*
X136904762Y-109097676D01*
X136904762Y-109097676D02*
X136809524Y-109192914D01*
X136809524Y-109192914D02*
X136714286Y-109240533D01*
X148584819Y-94083333D02*
X149299104Y-94083333D01*
X149299104Y-94083333D02*
X149441961Y-94130952D01*
X149441961Y-94130952D02*
X149537200Y-94226190D01*
X149537200Y-94226190D02*
X149584819Y-94369047D01*
X149584819Y-94369047D02*
X149584819Y-94464285D01*
X148584819Y-93178571D02*
X148584819Y-93369047D01*
X148584819Y-93369047D02*
X148632438Y-93464285D01*
X148632438Y-93464285D02*
X148680057Y-93511904D01*
X148680057Y-93511904D02*
X148822914Y-93607142D01*
X148822914Y-93607142D02*
X149013390Y-93654761D01*
X149013390Y-93654761D02*
X149394342Y-93654761D01*
X149394342Y-93654761D02*
X149489580Y-93607142D01*
X149489580Y-93607142D02*
X149537200Y-93559523D01*
X149537200Y-93559523D02*
X149584819Y-93464285D01*
X149584819Y-93464285D02*
X149584819Y-93273809D01*
X149584819Y-93273809D02*
X149537200Y-93178571D01*
X149537200Y-93178571D02*
X149489580Y-93130952D01*
X149489580Y-93130952D02*
X149394342Y-93083333D01*
X149394342Y-93083333D02*
X149156247Y-93083333D01*
X149156247Y-93083333D02*
X149061009Y-93130952D01*
X149061009Y-93130952D02*
X149013390Y-93178571D01*
X149013390Y-93178571D02*
X148965771Y-93273809D01*
X148965771Y-93273809D02*
X148965771Y-93464285D01*
X148965771Y-93464285D02*
X149013390Y-93559523D01*
X149013390Y-93559523D02*
X149061009Y-93607142D01*
X149061009Y-93607142D02*
X149156247Y-93654761D01*
X148584819Y-100833333D02*
X149299104Y-100833333D01*
X149299104Y-100833333D02*
X149441961Y-100880952D01*
X149441961Y-100880952D02*
X149537200Y-100976190D01*
X149537200Y-100976190D02*
X149584819Y-101119047D01*
X149584819Y-101119047D02*
X149584819Y-101214285D01*
X148584819Y-99880952D02*
X148584819Y-100357142D01*
X148584819Y-100357142D02*
X149061009Y-100404761D01*
X149061009Y-100404761D02*
X149013390Y-100357142D01*
X149013390Y-100357142D02*
X148965771Y-100261904D01*
X148965771Y-100261904D02*
X148965771Y-100023809D01*
X148965771Y-100023809D02*
X149013390Y-99928571D01*
X149013390Y-99928571D02*
X149061009Y-99880952D01*
X149061009Y-99880952D02*
X149156247Y-99833333D01*
X149156247Y-99833333D02*
X149394342Y-99833333D01*
X149394342Y-99833333D02*
X149489580Y-99880952D01*
X149489580Y-99880952D02*
X149537200Y-99928571D01*
X149537200Y-99928571D02*
X149584819Y-100023809D01*
X149584819Y-100023809D02*
X149584819Y-100261904D01*
X149584819Y-100261904D02*
X149537200Y-100357142D01*
X149537200Y-100357142D02*
X149489580Y-100404761D01*
X148584819Y-107583333D02*
X149299104Y-107583333D01*
X149299104Y-107583333D02*
X149441961Y-107630952D01*
X149441961Y-107630952D02*
X149537200Y-107726190D01*
X149537200Y-107726190D02*
X149584819Y-107869047D01*
X149584819Y-107869047D02*
X149584819Y-107964285D01*
X148918152Y-106678571D02*
X149584819Y-106678571D01*
X148537200Y-106916666D02*
X149251485Y-107154761D01*
X149251485Y-107154761D02*
X149251485Y-106535714D01*
X95824819Y-96063333D02*
X96539104Y-96063333D01*
X96539104Y-96063333D02*
X96681961Y-96110952D01*
X96681961Y-96110952D02*
X96777200Y-96206190D01*
X96777200Y-96206190D02*
X96824819Y-96349047D01*
X96824819Y-96349047D02*
X96824819Y-96444285D01*
X95824819Y-95682380D02*
X95824819Y-95063333D01*
X95824819Y-95063333D02*
X96205771Y-95396666D01*
X96205771Y-95396666D02*
X96205771Y-95253809D01*
X96205771Y-95253809D02*
X96253390Y-95158571D01*
X96253390Y-95158571D02*
X96301009Y-95110952D01*
X96301009Y-95110952D02*
X96396247Y-95063333D01*
X96396247Y-95063333D02*
X96634342Y-95063333D01*
X96634342Y-95063333D02*
X96729580Y-95110952D01*
X96729580Y-95110952D02*
X96777200Y-95158571D01*
X96777200Y-95158571D02*
X96824819Y-95253809D01*
X96824819Y-95253809D02*
X96824819Y-95539523D01*
X96824819Y-95539523D02*
X96777200Y-95634761D01*
X96777200Y-95634761D02*
X96729580Y-95682380D01*
X95824819Y-105563333D02*
X96539104Y-105563333D01*
X96539104Y-105563333D02*
X96681961Y-105610952D01*
X96681961Y-105610952D02*
X96777200Y-105706190D01*
X96777200Y-105706190D02*
X96824819Y-105849047D01*
X96824819Y-105849047D02*
X96824819Y-105944285D01*
X96824819Y-104563333D02*
X96824819Y-105134761D01*
X96824819Y-104849047D02*
X95824819Y-104849047D01*
X95824819Y-104849047D02*
X95967676Y-104944285D01*
X95967676Y-104944285D02*
X96062914Y-105039523D01*
X96062914Y-105039523D02*
X96110533Y-105134761D01*
X116804819Y-100754166D02*
X116328628Y-101087499D01*
X116804819Y-101325594D02*
X115804819Y-101325594D01*
X115804819Y-101325594D02*
X115804819Y-100944642D01*
X115804819Y-100944642D02*
X115852438Y-100849404D01*
X115852438Y-100849404D02*
X115900057Y-100801785D01*
X115900057Y-100801785D02*
X115995295Y-100754166D01*
X115995295Y-100754166D02*
X116138152Y-100754166D01*
X116138152Y-100754166D02*
X116233390Y-100801785D01*
X116233390Y-100801785D02*
X116281009Y-100849404D01*
X116281009Y-100849404D02*
X116328628Y-100944642D01*
X116328628Y-100944642D02*
X116328628Y-101325594D01*
X116804819Y-99801785D02*
X116804819Y-100373213D01*
X116804819Y-100087499D02*
X115804819Y-100087499D01*
X115804819Y-100087499D02*
X115947676Y-100182737D01*
X115947676Y-100182737D02*
X116042914Y-100277975D01*
X116042914Y-100277975D02*
X116090533Y-100373213D01*
X116454819Y-96754166D02*
X115978628Y-97087499D01*
X116454819Y-97325594D02*
X115454819Y-97325594D01*
X115454819Y-97325594D02*
X115454819Y-96944642D01*
X115454819Y-96944642D02*
X115502438Y-96849404D01*
X115502438Y-96849404D02*
X115550057Y-96801785D01*
X115550057Y-96801785D02*
X115645295Y-96754166D01*
X115645295Y-96754166D02*
X115788152Y-96754166D01*
X115788152Y-96754166D02*
X115883390Y-96801785D01*
X115883390Y-96801785D02*
X115931009Y-96849404D01*
X115931009Y-96849404D02*
X115978628Y-96944642D01*
X115978628Y-96944642D02*
X115978628Y-97325594D01*
X115550057Y-96373213D02*
X115502438Y-96325594D01*
X115502438Y-96325594D02*
X115454819Y-96230356D01*
X115454819Y-96230356D02*
X115454819Y-95992261D01*
X115454819Y-95992261D02*
X115502438Y-95897023D01*
X115502438Y-95897023D02*
X115550057Y-95849404D01*
X115550057Y-95849404D02*
X115645295Y-95801785D01*
X115645295Y-95801785D02*
X115740533Y-95801785D01*
X115740533Y-95801785D02*
X115883390Y-95849404D01*
X115883390Y-95849404D02*
X116454819Y-96420832D01*
X116454819Y-96420832D02*
X116454819Y-95801785D01*
X125454819Y-101238094D02*
X124454819Y-101238094D01*
X124454819Y-101238094D02*
X124454819Y-100999999D01*
X124454819Y-100999999D02*
X124502438Y-100857142D01*
X124502438Y-100857142D02*
X124597676Y-100761904D01*
X124597676Y-100761904D02*
X124692914Y-100714285D01*
X124692914Y-100714285D02*
X124883390Y-100666666D01*
X124883390Y-100666666D02*
X125026247Y-100666666D01*
X125026247Y-100666666D02*
X125216723Y-100714285D01*
X125216723Y-100714285D02*
X125311961Y-100761904D01*
X125311961Y-100761904D02*
X125407200Y-100857142D01*
X125407200Y-100857142D02*
X125454819Y-100999999D01*
X125454819Y-100999999D02*
X125454819Y-101238094D01*
X124454819Y-100333332D02*
X124454819Y-99714285D01*
X124454819Y-99714285D02*
X124835771Y-100047618D01*
X124835771Y-100047618D02*
X124835771Y-99904761D01*
X124835771Y-99904761D02*
X124883390Y-99809523D01*
X124883390Y-99809523D02*
X124931009Y-99761904D01*
X124931009Y-99761904D02*
X125026247Y-99714285D01*
X125026247Y-99714285D02*
X125264342Y-99714285D01*
X125264342Y-99714285D02*
X125359580Y-99761904D01*
X125359580Y-99761904D02*
X125407200Y-99809523D01*
X125407200Y-99809523D02*
X125454819Y-99904761D01*
X125454819Y-99904761D02*
X125454819Y-100190475D01*
X125454819Y-100190475D02*
X125407200Y-100285713D01*
X125407200Y-100285713D02*
X125359580Y-100333332D01*
X125454819Y-105666666D02*
X124978628Y-105999999D01*
X125454819Y-106238094D02*
X124454819Y-106238094D01*
X124454819Y-106238094D02*
X124454819Y-105857142D01*
X124454819Y-105857142D02*
X124502438Y-105761904D01*
X124502438Y-105761904D02*
X124550057Y-105714285D01*
X124550057Y-105714285D02*
X124645295Y-105666666D01*
X124645295Y-105666666D02*
X124788152Y-105666666D01*
X124788152Y-105666666D02*
X124883390Y-105714285D01*
X124883390Y-105714285D02*
X124931009Y-105761904D01*
X124931009Y-105761904D02*
X124978628Y-105857142D01*
X124978628Y-105857142D02*
X124978628Y-106238094D01*
X124454819Y-104761904D02*
X124454819Y-105238094D01*
X124454819Y-105238094D02*
X124931009Y-105285713D01*
X124931009Y-105285713D02*
X124883390Y-105238094D01*
X124883390Y-105238094D02*
X124835771Y-105142856D01*
X124835771Y-105142856D02*
X124835771Y-104904761D01*
X124835771Y-104904761D02*
X124883390Y-104809523D01*
X124883390Y-104809523D02*
X124931009Y-104761904D01*
X124931009Y-104761904D02*
X125026247Y-104714285D01*
X125026247Y-104714285D02*
X125264342Y-104714285D01*
X125264342Y-104714285D02*
X125359580Y-104761904D01*
X125359580Y-104761904D02*
X125407200Y-104809523D01*
X125407200Y-104809523D02*
X125454819Y-104904761D01*
X125454819Y-104904761D02*
X125454819Y-105142856D01*
X125454819Y-105142856D02*
X125407200Y-105238094D01*
X125407200Y-105238094D02*
X125359580Y-105285713D01*
X105454819Y-108738094D02*
X104454819Y-108738094D01*
X104454819Y-108738094D02*
X104454819Y-108499999D01*
X104454819Y-108499999D02*
X104502438Y-108357142D01*
X104502438Y-108357142D02*
X104597676Y-108261904D01*
X104597676Y-108261904D02*
X104692914Y-108214285D01*
X104692914Y-108214285D02*
X104883390Y-108166666D01*
X104883390Y-108166666D02*
X105026247Y-108166666D01*
X105026247Y-108166666D02*
X105216723Y-108214285D01*
X105216723Y-108214285D02*
X105311961Y-108261904D01*
X105311961Y-108261904D02*
X105407200Y-108357142D01*
X105407200Y-108357142D02*
X105454819Y-108499999D01*
X105454819Y-108499999D02*
X105454819Y-108738094D01*
X105454819Y-107214285D02*
X105454819Y-107785713D01*
X105454819Y-107499999D02*
X104454819Y-107499999D01*
X104454819Y-107499999D02*
X104597676Y-107595237D01*
X104597676Y-107595237D02*
X104692914Y-107690475D01*
X104692914Y-107690475D02*
X104740533Y-107785713D01*
X116609580Y-107666666D02*
X116657200Y-107714285D01*
X116657200Y-107714285D02*
X116704819Y-107857142D01*
X116704819Y-107857142D02*
X116704819Y-107952380D01*
X116704819Y-107952380D02*
X116657200Y-108095237D01*
X116657200Y-108095237D02*
X116561961Y-108190475D01*
X116561961Y-108190475D02*
X116466723Y-108238094D01*
X116466723Y-108238094D02*
X116276247Y-108285713D01*
X116276247Y-108285713D02*
X116133390Y-108285713D01*
X116133390Y-108285713D02*
X115942914Y-108238094D01*
X115942914Y-108238094D02*
X115847676Y-108190475D01*
X115847676Y-108190475D02*
X115752438Y-108095237D01*
X115752438Y-108095237D02*
X115704819Y-107952380D01*
X115704819Y-107952380D02*
X115704819Y-107857142D01*
X115704819Y-107857142D02*
X115752438Y-107714285D01*
X115752438Y-107714285D02*
X115800057Y-107666666D01*
X115704819Y-107333332D02*
X115704819Y-106714285D01*
X115704819Y-106714285D02*
X116085771Y-107047618D01*
X116085771Y-107047618D02*
X116085771Y-106904761D01*
X116085771Y-106904761D02*
X116133390Y-106809523D01*
X116133390Y-106809523D02*
X116181009Y-106761904D01*
X116181009Y-106761904D02*
X116276247Y-106714285D01*
X116276247Y-106714285D02*
X116514342Y-106714285D01*
X116514342Y-106714285D02*
X116609580Y-106761904D01*
X116609580Y-106761904D02*
X116657200Y-106809523D01*
X116657200Y-106809523D02*
X116704819Y-106904761D01*
X116704819Y-106904761D02*
X116704819Y-107190475D01*
X116704819Y-107190475D02*
X116657200Y-107285713D01*
X116657200Y-107285713D02*
X116609580Y-107333332D01*
X120039580Y-104754166D02*
X120087200Y-104801785D01*
X120087200Y-104801785D02*
X120134819Y-104944642D01*
X120134819Y-104944642D02*
X120134819Y-105039880D01*
X120134819Y-105039880D02*
X120087200Y-105182737D01*
X120087200Y-105182737D02*
X119991961Y-105277975D01*
X119991961Y-105277975D02*
X119896723Y-105325594D01*
X119896723Y-105325594D02*
X119706247Y-105373213D01*
X119706247Y-105373213D02*
X119563390Y-105373213D01*
X119563390Y-105373213D02*
X119372914Y-105325594D01*
X119372914Y-105325594D02*
X119277676Y-105277975D01*
X119277676Y-105277975D02*
X119182438Y-105182737D01*
X119182438Y-105182737D02*
X119134819Y-105039880D01*
X119134819Y-105039880D02*
X119134819Y-104944642D01*
X119134819Y-104944642D02*
X119182438Y-104801785D01*
X119182438Y-104801785D02*
X119230057Y-104754166D01*
X120134819Y-103801785D02*
X120134819Y-104373213D01*
X120134819Y-104087499D02*
X119134819Y-104087499D01*
X119134819Y-104087499D02*
X119277676Y-104182737D01*
X119277676Y-104182737D02*
X119372914Y-104277975D01*
X119372914Y-104277975D02*
X119420533Y-104373213D01*
X109704819Y-107416666D02*
X109228628Y-107749999D01*
X109704819Y-107988094D02*
X108704819Y-107988094D01*
X108704819Y-107988094D02*
X108704819Y-107607142D01*
X108704819Y-107607142D02*
X108752438Y-107511904D01*
X108752438Y-107511904D02*
X108800057Y-107464285D01*
X108800057Y-107464285D02*
X108895295Y-107416666D01*
X108895295Y-107416666D02*
X109038152Y-107416666D01*
X109038152Y-107416666D02*
X109133390Y-107464285D01*
X109133390Y-107464285D02*
X109181009Y-107511904D01*
X109181009Y-107511904D02*
X109228628Y-107607142D01*
X109228628Y-107607142D02*
X109228628Y-107988094D01*
X108704819Y-107083332D02*
X108704819Y-106464285D01*
X108704819Y-106464285D02*
X109085771Y-106797618D01*
X109085771Y-106797618D02*
X109085771Y-106654761D01*
X109085771Y-106654761D02*
X109133390Y-106559523D01*
X109133390Y-106559523D02*
X109181009Y-106511904D01*
X109181009Y-106511904D02*
X109276247Y-106464285D01*
X109276247Y-106464285D02*
X109514342Y-106464285D01*
X109514342Y-106464285D02*
X109609580Y-106511904D01*
X109609580Y-106511904D02*
X109657200Y-106559523D01*
X109657200Y-106559523D02*
X109704819Y-106654761D01*
X109704819Y-106654761D02*
X109704819Y-106940475D01*
X109704819Y-106940475D02*
X109657200Y-107035713D01*
X109657200Y-107035713D02*
X109609580Y-107083332D01*
X123854819Y-96488094D02*
X122854819Y-96488094D01*
X122854819Y-96488094D02*
X122854819Y-96249999D01*
X122854819Y-96249999D02*
X122902438Y-96107142D01*
X122902438Y-96107142D02*
X122997676Y-96011904D01*
X122997676Y-96011904D02*
X123092914Y-95964285D01*
X123092914Y-95964285D02*
X123283390Y-95916666D01*
X123283390Y-95916666D02*
X123426247Y-95916666D01*
X123426247Y-95916666D02*
X123616723Y-95964285D01*
X123616723Y-95964285D02*
X123711961Y-96011904D01*
X123711961Y-96011904D02*
X123807200Y-96107142D01*
X123807200Y-96107142D02*
X123854819Y-96249999D01*
X123854819Y-96249999D02*
X123854819Y-96488094D01*
X122950057Y-95535713D02*
X122902438Y-95488094D01*
X122902438Y-95488094D02*
X122854819Y-95392856D01*
X122854819Y-95392856D02*
X122854819Y-95154761D01*
X122854819Y-95154761D02*
X122902438Y-95059523D01*
X122902438Y-95059523D02*
X122950057Y-95011904D01*
X122950057Y-95011904D02*
X123045295Y-94964285D01*
X123045295Y-94964285D02*
X123140533Y-94964285D01*
X123140533Y-94964285D02*
X123283390Y-95011904D01*
X123283390Y-95011904D02*
X123854819Y-95583332D01*
X123854819Y-95583332D02*
X123854819Y-94964285D01*
X101104819Y-106079166D02*
X100628628Y-106412499D01*
X101104819Y-106650594D02*
X100104819Y-106650594D01*
X100104819Y-106650594D02*
X100104819Y-106269642D01*
X100104819Y-106269642D02*
X100152438Y-106174404D01*
X100152438Y-106174404D02*
X100200057Y-106126785D01*
X100200057Y-106126785D02*
X100295295Y-106079166D01*
X100295295Y-106079166D02*
X100438152Y-106079166D01*
X100438152Y-106079166D02*
X100533390Y-106126785D01*
X100533390Y-106126785D02*
X100581009Y-106174404D01*
X100581009Y-106174404D02*
X100628628Y-106269642D01*
X100628628Y-106269642D02*
X100628628Y-106650594D01*
X100438152Y-105222023D02*
X101104819Y-105222023D01*
X100057200Y-105460118D02*
X100771485Y-105698213D01*
X100771485Y-105698213D02*
X100771485Y-105079166D01*
X102883333Y-103679580D02*
X102835714Y-103727200D01*
X102835714Y-103727200D02*
X102692857Y-103774819D01*
X102692857Y-103774819D02*
X102597619Y-103774819D01*
X102597619Y-103774819D02*
X102454762Y-103727200D01*
X102454762Y-103727200D02*
X102359524Y-103631961D01*
X102359524Y-103631961D02*
X102311905Y-103536723D01*
X102311905Y-103536723D02*
X102264286Y-103346247D01*
X102264286Y-103346247D02*
X102264286Y-103203390D01*
X102264286Y-103203390D02*
X102311905Y-103012914D01*
X102311905Y-103012914D02*
X102359524Y-102917676D01*
X102359524Y-102917676D02*
X102454762Y-102822438D01*
X102454762Y-102822438D02*
X102597619Y-102774819D01*
X102597619Y-102774819D02*
X102692857Y-102774819D01*
X102692857Y-102774819D02*
X102835714Y-102822438D01*
X102835714Y-102822438D02*
X102883333Y-102870057D01*
X103264286Y-102870057D02*
X103311905Y-102822438D01*
X103311905Y-102822438D02*
X103407143Y-102774819D01*
X103407143Y-102774819D02*
X103645238Y-102774819D01*
X103645238Y-102774819D02*
X103740476Y-102822438D01*
X103740476Y-102822438D02*
X103788095Y-102870057D01*
X103788095Y-102870057D02*
X103835714Y-102965295D01*
X103835714Y-102965295D02*
X103835714Y-103060533D01*
X103835714Y-103060533D02*
X103788095Y-103203390D01*
X103788095Y-103203390D02*
X103216667Y-103774819D01*
X103216667Y-103774819D02*
X103835714Y-103774819D01*
D12*
X110025000Y-97535000D02*
X111975000Y-97535000D01*
X110025000Y-102655000D02*
X111975000Y-102655000D01*
X110025000Y-97535000D02*
X106575000Y-97535000D01*
X110025000Y-102655000D02*
X108075000Y-102655000D01*
X126092500Y-108302500D02*
X126092500Y-107092500D01*
X127392500Y-108302500D02*
X126092500Y-108302500D01*
X126242500Y-108142500D02*
X146832500Y-108142500D01*
X146832500Y-108142500D02*
X146832500Y-97762500D01*
X126242500Y-104462500D02*
X127282500Y-104462500D01*
X127302500Y-104462500D02*
X127302500Y-101462500D01*
X127452500Y-103292500D02*
X128652500Y-103292500D01*
X128082500Y-103292500D02*
X128082500Y-104392500D01*
X128252500Y-103292500D02*
X127852500Y-102592500D01*
X128652500Y-103292500D02*
X128652500Y-102592500D01*
X127452500Y-102592500D02*
X127452500Y-103292500D01*
X128082500Y-102592500D02*
X128082500Y-101492500D01*
X128652500Y-102592500D02*
X127452500Y-102592500D01*
X127302500Y-101462500D02*
X126242500Y-101462500D01*
X126242500Y-97762500D02*
X126242500Y-108142500D01*
X146832500Y-97762500D02*
X126242500Y-97762500D01*
X150130000Y-90860000D02*
X156870000Y-90860000D01*
X156350000Y-96640000D02*
X156350000Y-90860000D01*
X150130000Y-96640000D02*
X150130000Y-90860000D01*
X156470000Y-96880000D02*
X157110000Y-96880000D01*
X150130000Y-96640000D02*
X156870000Y-96640000D01*
X151250000Y-96640000D02*
X151250000Y-90860000D01*
X156870000Y-96640000D02*
X156870000Y-90860000D01*
X157110000Y-96880000D02*
X157110000Y-96480000D01*
X150130000Y-97610000D02*
X156870000Y-97610000D01*
X156350000Y-103390000D02*
X156350000Y-97610000D01*
X150130000Y-103390000D02*
X150130000Y-97610000D01*
X156470000Y-103630000D02*
X157110000Y-103630000D01*
X150130000Y-103390000D02*
X156870000Y-103390000D01*
X151250000Y-103390000D02*
X151250000Y-97610000D01*
X156870000Y-103390000D02*
X156870000Y-97610000D01*
X157110000Y-103630000D02*
X157110000Y-103230000D01*
X150130000Y-104360000D02*
X156870000Y-104360000D01*
X156350000Y-110140000D02*
X156350000Y-104360000D01*
X150130000Y-110140000D02*
X150130000Y-104360000D01*
X156470000Y-110380000D02*
X157110000Y-110380000D01*
X150130000Y-110140000D02*
X156870000Y-110140000D01*
X151250000Y-110140000D02*
X151250000Y-104360000D01*
X156870000Y-110140000D02*
X156870000Y-104360000D01*
X157110000Y-110380000D02*
X157110000Y-109980000D01*
X95370000Y-98620000D02*
X88630000Y-98620000D01*
X89150000Y-92840000D02*
X89150000Y-98620000D01*
X95370000Y-92840000D02*
X95370000Y-98620000D01*
X89030000Y-92600000D02*
X88390000Y-92600000D01*
X95370000Y-92840000D02*
X88630000Y-92840000D01*
X94250000Y-92840000D02*
X94250000Y-98620000D01*
X88630000Y-92840000D02*
X88630000Y-98620000D01*
X88390000Y-92600000D02*
X88390000Y-93000000D01*
X95370000Y-108120000D02*
X88630000Y-108120000D01*
X89150000Y-102340000D02*
X89150000Y-108120000D01*
X95370000Y-102340000D02*
X95370000Y-108120000D01*
X89030000Y-102100000D02*
X88390000Y-102100000D01*
X95370000Y-102340000D02*
X88630000Y-102340000D01*
X94250000Y-102340000D02*
X94250000Y-108120000D01*
X88630000Y-102340000D02*
X88630000Y-108120000D01*
X88390000Y-102100000D02*
X88390000Y-102500000D01*
X117265000Y-100814564D02*
X117265000Y-100360436D01*
X118735000Y-100814564D02*
X118735000Y-100360436D01*
X118735000Y-96360436D02*
X118735000Y-96814564D01*
X117265000Y-96360436D02*
X117265000Y-96814564D01*
X123897500Y-99315000D02*
X121977500Y-99315000D01*
X121977500Y-99315000D02*
X121977500Y-102000000D01*
X123897500Y-102000000D02*
X123897500Y-99315000D01*
X122177500Y-105727064D02*
X122177500Y-105272936D01*
X123647500Y-105727064D02*
X123647500Y-105272936D01*
X108000000Y-104290000D02*
X106000000Y-104290000D01*
X108000000Y-104290000D02*
X108000000Y-108300000D01*
X106000000Y-104290000D02*
X106000000Y-108300000D01*
X115235000Y-105688748D02*
X115235000Y-106211252D01*
X113765000Y-105688748D02*
X113765000Y-106211252D01*
X118735000Y-104326248D02*
X118735000Y-104848752D01*
X117265000Y-104326248D02*
X117265000Y-104848752D01*
X111735000Y-105685436D02*
X111735000Y-106139564D01*
X110265000Y-105685436D02*
X110265000Y-106139564D01*
X120500000Y-98210000D02*
X122500000Y-98210000D01*
X120500000Y-98210000D02*
X120500000Y-94200000D01*
X122500000Y-98210000D02*
X122500000Y-94200000D01*
X99735000Y-105685436D02*
X99735000Y-106139564D01*
X98265000Y-105685436D02*
X98265000Y-106139564D01*
X102788748Y-104265000D02*
X103311252Y-104265000D01*
X102788748Y-105735000D02*
X103311252Y-105735000D01*
%LPC*%
D13*
X107550000Y-98190000D03*
X107550000Y-99460000D03*
X107550000Y-100730000D03*
X107550000Y-102000000D03*
X112500000Y-102000000D03*
X112500000Y-100730000D03*
X112500000Y-99460000D03*
X112500000Y-98190000D03*
D14*
X127642500Y-106762500D03*
D15*
X135262500Y-106762500D03*
X140342500Y-106762500D03*
X145422500Y-106762500D03*
X145422500Y-99142500D03*
X140342500Y-99142500D03*
X135262500Y-99142500D03*
X127642500Y-99142500D03*
D16*
X153500000Y-95020000D03*
D17*
X153500000Y-92480000D03*
D16*
X153500000Y-101770000D03*
D17*
X153500000Y-99230000D03*
D16*
X153500000Y-108520000D03*
D17*
X153500000Y-105980000D03*
D16*
X92000000Y-94460000D03*
D17*
X92000000Y-97000000D03*
D16*
X92000000Y-103960000D03*
D17*
X92000000Y-106500000D03*
D18*
X164000000Y-111000000D03*
D19*
X118000000Y-101500000D03*
X118000000Y-99675000D03*
D20*
X118000000Y-95675000D03*
X118000000Y-97500000D03*
D21*
X122937500Y-100062500D03*
X122937500Y-101937500D03*
D18*
X84000000Y-111000000D03*
D19*
X122912500Y-106412500D03*
X122912500Y-104587500D03*
D22*
X107000000Y-105000000D03*
X107000000Y-108300000D03*
D23*
X114500000Y-105000000D03*
X114500000Y-106900000D03*
X118000000Y-103637500D03*
X118000000Y-105537500D03*
D20*
X111000000Y-105000000D03*
X111000000Y-106825000D03*
D18*
X84000000Y-90000000D03*
X164000000Y-90000000D03*
D24*
X121500000Y-97500000D03*
X121500000Y-94200000D03*
D20*
X99000000Y-105000000D03*
X99000000Y-106825000D03*
D25*
X102100000Y-105000000D03*
X104000000Y-105000000D03*
%LPD*%
M02*
