G04 #@! TF.GenerationSoftware,KiCad,Pcbnew,7.0.6-0*
G04 #@! TF.CreationDate,2023-08-27T09:50:28-04:00*
G04 #@! TF.ProjectId,edge triggered monostable,65646765-2074-4726-9967-676572656420,1.0*
G04 #@! TF.SameCoordinates,Original*
G04 #@! TF.FileFunction,Copper,L1,Top*
G04 #@! TF.FilePolarity,Positive*
%FSLAX46Y46*%
G04 Gerber Fmt 4.6, Leading zero omitted, Abs format (unit mm)*
G04 Created by KiCad (PCBNEW 7.0.6-0) date 2023-08-27 09:50:28*
%MOMM*%
%LPD*%
G01*
G04 APERTURE LIST*
G04 Aperture macros list*
%AMRoundRect*
0 Rectangle with rounded corners*
0 $1 Rounding radius*
0 $2 $3 $4 $5 $6 $7 $8 $9 X,Y pos of 4 corners*
0 Add a 4 corners polygon primitive as box body*
4,1,4,$2,$3,$4,$5,$6,$7,$8,$9,$2,$3,0*
0 Add four circle primitives for the rounded corners*
1,1,$1+$1,$2,$3*
1,1,$1+$1,$4,$5*
1,1,$1+$1,$6,$7*
1,1,$1+$1,$8,$9*
0 Add four rect primitives between the rounded corners*
20,1,$1+$1,$2,$3,$4,$5,0*
20,1,$1+$1,$4,$5,$6,$7,0*
20,1,$1+$1,$6,$7,$8,$9,0*
20,1,$1+$1,$8,$9,$2,$3,0*%
G04 Aperture macros list end*
G04 #@! TA.AperFunction,SMDPad,CuDef*
%ADD10RoundRect,0.150000X-0.825000X-0.150000X0.825000X-0.150000X0.825000X0.150000X-0.825000X0.150000X0*%
G04 #@! TD*
G04 #@! TA.AperFunction,ComponentPad*
%ADD11R,2.000000X2.000000*%
G04 #@! TD*
G04 #@! TA.AperFunction,ComponentPad*
%ADD12C,2.000000*%
G04 #@! TD*
G04 #@! TA.AperFunction,ComponentPad*
%ADD13R,2.100000X2.100000*%
G04 #@! TD*
G04 #@! TA.AperFunction,ComponentPad*
%ADD14C,2.100000*%
G04 #@! TD*
G04 #@! TA.AperFunction,WasherPad*
%ADD15C,5.500000*%
G04 #@! TD*
G04 #@! TA.AperFunction,SMDPad,CuDef*
%ADD16RoundRect,0.250000X0.450000X-0.262500X0.450000X0.262500X-0.450000X0.262500X-0.450000X-0.262500X0*%
G04 #@! TD*
G04 #@! TA.AperFunction,SMDPad,CuDef*
%ADD17RoundRect,0.250000X-0.450000X0.262500X-0.450000X-0.262500X0.450000X-0.262500X0.450000X0.262500X0*%
G04 #@! TD*
G04 #@! TA.AperFunction,SMDPad,CuDef*
%ADD18RoundRect,0.243750X-0.456250X0.243750X-0.456250X-0.243750X0.456250X-0.243750X0.456250X0.243750X0*%
G04 #@! TD*
G04 #@! TA.AperFunction,SMDPad,CuDef*
%ADD19RoundRect,0.225000X-0.375000X0.225000X-0.375000X-0.225000X0.375000X-0.225000X0.375000X0.225000X0*%
G04 #@! TD*
G04 #@! TA.AperFunction,SMDPad,CuDef*
%ADD20RoundRect,0.250000X-0.475000X0.250000X-0.475000X-0.250000X0.475000X-0.250000X0.475000X0.250000X0*%
G04 #@! TD*
G04 #@! TA.AperFunction,SMDPad,CuDef*
%ADD21RoundRect,0.225000X0.375000X-0.225000X0.375000X0.225000X-0.375000X0.225000X-0.375000X-0.225000X0*%
G04 #@! TD*
G04 #@! TA.AperFunction,SMDPad,CuDef*
%ADD22RoundRect,0.250000X-0.250000X-0.475000X0.250000X-0.475000X0.250000X0.475000X-0.250000X0.475000X0*%
G04 #@! TD*
G04 #@! TA.AperFunction,ViaPad*
%ADD23C,0.800000*%
G04 #@! TD*
G04 #@! TA.AperFunction,Conductor*
%ADD24C,0.300000*%
G04 #@! TD*
G04 APERTURE END LIST*
D10*
X107550000Y-98190000D03*
X107550000Y-99460000D03*
X107550000Y-100730000D03*
X107550000Y-102000000D03*
X112500000Y-102000000D03*
X112500000Y-100730000D03*
X112500000Y-99460000D03*
X112500000Y-98190000D03*
D11*
X127642500Y-106762500D03*
D12*
X135262500Y-106762500D03*
X140342500Y-106762500D03*
X145422500Y-106762500D03*
X145422500Y-99142500D03*
X140342500Y-99142500D03*
X135262500Y-99142500D03*
X127642500Y-99142500D03*
D13*
X153500000Y-95020000D03*
D14*
X153500000Y-92480000D03*
D13*
X153500000Y-101770000D03*
D14*
X153500000Y-99230000D03*
D13*
X153500000Y-108520000D03*
D14*
X153500000Y-105980000D03*
D13*
X92000000Y-94460000D03*
D14*
X92000000Y-97000000D03*
D13*
X92000000Y-103960000D03*
D14*
X92000000Y-106500000D03*
D15*
X164000000Y-111000000D03*
D16*
X118000000Y-101500000D03*
X118000000Y-99675000D03*
D17*
X118000000Y-95675000D03*
X118000000Y-97500000D03*
D18*
X122937500Y-100062500D03*
X122937500Y-101937500D03*
D15*
X84000000Y-111000000D03*
D16*
X122912500Y-106412500D03*
X122912500Y-104587500D03*
D19*
X107000000Y-105000000D03*
X107000000Y-108300000D03*
D20*
X114500000Y-105000000D03*
X114500000Y-106900000D03*
X118000000Y-103637500D03*
X118000000Y-105537500D03*
D17*
X111000000Y-105000000D03*
X111000000Y-106825000D03*
D15*
X84000000Y-90000000D03*
X164000000Y-90000000D03*
D21*
X121500000Y-97500000D03*
X121500000Y-94200000D03*
D17*
X99000000Y-105000000D03*
X99000000Y-106825000D03*
D22*
X102100000Y-105000000D03*
X104000000Y-105000000D03*
D23*
X118000000Y-107200000D03*
X111000000Y-108500000D03*
X114500000Y-108600000D03*
X99000000Y-108600000D03*
X105200000Y-98100000D03*
X107000000Y-109900000D03*
D24*
X140342500Y-106762500D02*
X142100000Y-108520000D01*
X142100000Y-108520000D02*
X153500000Y-108520000D01*
X145422500Y-106762500D02*
X146205000Y-105980000D01*
X146205000Y-105980000D02*
X153500000Y-105980000D01*
X139525000Y-102500000D02*
X148000000Y-102500000D01*
X135262500Y-106762500D02*
X139525000Y-102500000D01*
X148000000Y-102500000D02*
X148730000Y-101770000D01*
X148730000Y-101770000D02*
X153500000Y-101770000D01*
X140342500Y-99142500D02*
X142142500Y-99142500D01*
X142142500Y-99142500D02*
X144000000Y-101000000D01*
X144000000Y-101000000D02*
X147500000Y-101000000D01*
X147500000Y-101000000D02*
X149270000Y-99230000D01*
X149270000Y-99230000D02*
X153500000Y-99230000D01*
X145422500Y-99142500D02*
X149545000Y-95020000D01*
X149545000Y-95020000D02*
X153500000Y-95020000D01*
X135262500Y-99142500D02*
X141925000Y-92480000D01*
X141925000Y-92480000D02*
X153500000Y-92480000D01*
X118000000Y-103637500D02*
X118000000Y-101500000D01*
X115900000Y-105200000D02*
X117462500Y-103637500D01*
X107550000Y-99460000D02*
X106590000Y-99460000D01*
X106590000Y-99460000D02*
X103050000Y-103000000D01*
X117462500Y-103637500D02*
X118000000Y-103637500D01*
X115900000Y-105950000D02*
X115900000Y-105200000D01*
X103050000Y-106500000D02*
X109100000Y-106500000D01*
X109650000Y-105950000D02*
X115900000Y-105950000D01*
X103050000Y-103000000D02*
X103050000Y-106500000D01*
X109100000Y-106500000D02*
X109650000Y-105950000D01*
X118000000Y-105537500D02*
X118000000Y-107200000D01*
X107000000Y-108300000D02*
X107000000Y-109900000D01*
X107550000Y-98190000D02*
X105290000Y-98190000D01*
X114500000Y-106900000D02*
X114500000Y-108600000D01*
X105290000Y-98190000D02*
X105200000Y-98100000D01*
X111000000Y-106825000D02*
X111000000Y-108500000D01*
X99000000Y-106825000D02*
X99000000Y-108600000D01*
X95300000Y-106500000D02*
X96800000Y-105000000D01*
X92000000Y-106500000D02*
X95300000Y-106500000D01*
X99000000Y-105000000D02*
X102100000Y-105000000D01*
X96800000Y-105000000D02*
X99000000Y-105000000D01*
X111000000Y-101500000D02*
X111770000Y-100730000D01*
X104000000Y-105000000D02*
X111000000Y-105000000D01*
X111770000Y-100730000D02*
X112500000Y-100730000D01*
X111000000Y-105000000D02*
X111000000Y-101500000D01*
X112500000Y-103000000D02*
X112500000Y-102000000D01*
X114500000Y-105000000D02*
X112500000Y-103000000D01*
X110000000Y-102000000D02*
X110000000Y-100000000D01*
X111810000Y-98190000D02*
X112500000Y-98190000D01*
X107550000Y-102000000D02*
X110000000Y-102000000D01*
X110000000Y-100000000D02*
X111810000Y-98190000D01*
X108900000Y-99615330D02*
X114315330Y-94200000D01*
X123857500Y-99142500D02*
X127642500Y-99142500D01*
X122937500Y-95637500D02*
X122937500Y-100062500D01*
X108900000Y-99800000D02*
X108900000Y-99615330D01*
X121500000Y-94200000D02*
X122937500Y-95637500D01*
X122937500Y-100062500D02*
X123857500Y-99142500D01*
X107550000Y-100730000D02*
X107970000Y-100730000D01*
X114315330Y-94200000D02*
X121500000Y-94200000D01*
X107970000Y-100730000D02*
X108900000Y-99800000D01*
X112500000Y-99460000D02*
X117785000Y-99460000D01*
X117785000Y-99460000D02*
X118000000Y-99675000D01*
X118000000Y-99675000D02*
X118000000Y-97500000D01*
X122937500Y-104562500D02*
X122912500Y-104587500D01*
X122937500Y-101937500D02*
X122937500Y-104562500D01*
G04 #@! TA.AperFunction,Conductor*
G36*
X111003635Y-98534153D02*
G01*
X111059568Y-98576025D01*
X111069707Y-98593506D01*
X111069747Y-98593483D01*
X111157314Y-98741552D01*
X111162100Y-98747722D01*
X111159640Y-98749629D01*
X111186210Y-98798288D01*
X111181226Y-98867980D01*
X111160162Y-98900781D01*
X111161699Y-98901974D01*
X111156915Y-98908140D01*
X111073255Y-99049603D01*
X111073254Y-99049606D01*
X111027402Y-99207426D01*
X111027401Y-99207432D01*
X111024500Y-99244304D01*
X111024500Y-99675696D01*
X111027401Y-99712567D01*
X111027402Y-99712573D01*
X111073254Y-99870393D01*
X111073255Y-99870396D01*
X111156917Y-100011862D01*
X111161702Y-100018031D01*
X111159248Y-100019933D01*
X111185844Y-100068578D01*
X111180895Y-100138273D01*
X111160074Y-100170706D01*
X111161702Y-100171969D01*
X111156917Y-100178137D01*
X111073255Y-100319603D01*
X111073254Y-100319606D01*
X111027402Y-100477426D01*
X111027401Y-100477432D01*
X111024565Y-100513473D01*
X110999680Y-100578761D01*
X110988628Y-100591424D01*
X110600483Y-100979569D01*
X110587910Y-100989643D01*
X110588065Y-100989830D01*
X110582059Y-100994798D01*
X110562739Y-101015372D01*
X110532809Y-101047244D01*
X110521949Y-101058104D01*
X110511088Y-101068965D01*
X110511078Y-101068977D01*
X110506587Y-101074765D01*
X110502801Y-101079197D01*
X110469552Y-101114606D01*
X110459322Y-101133213D01*
X110448646Y-101149464D01*
X110435640Y-101166232D01*
X110435636Y-101166238D01*
X110416348Y-101210811D01*
X110413777Y-101216058D01*
X110390372Y-101258630D01*
X110390372Y-101258631D01*
X110385091Y-101279199D01*
X110378791Y-101297601D01*
X110370364Y-101317073D01*
X110362766Y-101365047D01*
X110361581Y-101370769D01*
X110349500Y-101417822D01*
X110349499Y-101417829D01*
X110349499Y-101439047D01*
X110347973Y-101458436D01*
X110346587Y-101467190D01*
X110344653Y-101479405D01*
X110345976Y-101493405D01*
X110349225Y-101527767D01*
X110349500Y-101533606D01*
X110349500Y-103923767D01*
X110329815Y-103990806D01*
X110277011Y-104036561D01*
X110264506Y-104041472D01*
X110230671Y-104052684D01*
X110230663Y-104052687D01*
X110081342Y-104144789D01*
X109957288Y-104268843D01*
X109957285Y-104268847D01*
X109943870Y-104290597D01*
X109891922Y-104337322D01*
X109838332Y-104349500D01*
X108026874Y-104349500D01*
X107959835Y-104329815D01*
X107939193Y-104313181D01*
X107828044Y-104202032D01*
X107828040Y-104202029D01*
X107683705Y-104113001D01*
X107683699Y-104112998D01*
X107683697Y-104112997D01*
X107683694Y-104112996D01*
X107522709Y-104059651D01*
X107423346Y-104049500D01*
X106576662Y-104049500D01*
X106576644Y-104049501D01*
X106477292Y-104059650D01*
X106477289Y-104059651D01*
X106316305Y-104112996D01*
X106316294Y-104113001D01*
X106171959Y-104202029D01*
X106171955Y-104202032D01*
X106060807Y-104313181D01*
X105999484Y-104346666D01*
X105973126Y-104349500D01*
X105072017Y-104349500D01*
X105004978Y-104329815D01*
X104959223Y-104277011D01*
X104954311Y-104264505D01*
X104934814Y-104205666D01*
X104842712Y-104056344D01*
X104718656Y-103932288D01*
X104625888Y-103875069D01*
X104569336Y-103840187D01*
X104569331Y-103840185D01*
X104567862Y-103839698D01*
X104402797Y-103785001D01*
X104402795Y-103785000D01*
X104300016Y-103774500D01*
X104300009Y-103774500D01*
X103824500Y-103774500D01*
X103757461Y-103754815D01*
X103711706Y-103702011D01*
X103700500Y-103650500D01*
X103700500Y-103320808D01*
X103720185Y-103253769D01*
X103736819Y-103233127D01*
X104719945Y-102250001D01*
X106077704Y-102250001D01*
X106077899Y-102252486D01*
X106123718Y-102410198D01*
X106207314Y-102551552D01*
X106207321Y-102551561D01*
X106323438Y-102667678D01*
X106323447Y-102667685D01*
X106464803Y-102751282D01*
X106464806Y-102751283D01*
X106622504Y-102797099D01*
X106622510Y-102797100D01*
X106659356Y-102800000D01*
X107300000Y-102800000D01*
X107300000Y-102799999D01*
X107799999Y-102799999D01*
X107800000Y-102800000D01*
X108440644Y-102800000D01*
X108477489Y-102797100D01*
X108477495Y-102797099D01*
X108635193Y-102751283D01*
X108635196Y-102751282D01*
X108776552Y-102667685D01*
X108776561Y-102667678D01*
X108892678Y-102551561D01*
X108892685Y-102551552D01*
X108976281Y-102410198D01*
X109022100Y-102252486D01*
X109022295Y-102250001D01*
X109022295Y-102250000D01*
X107800000Y-102250000D01*
X107799999Y-102799999D01*
X107300000Y-102799999D01*
X107300000Y-102250000D01*
X106077705Y-102250000D01*
X106077704Y-102250001D01*
X104719945Y-102250001D01*
X104754252Y-102215694D01*
X105908876Y-101061069D01*
X105970197Y-101027586D01*
X106039889Y-101032570D01*
X106095822Y-101074442D01*
X106115631Y-101114155D01*
X106123255Y-101140396D01*
X106123256Y-101140398D01*
X106138538Y-101166238D01*
X106206917Y-101281862D01*
X106211702Y-101288031D01*
X106209369Y-101289840D01*
X106236210Y-101338995D01*
X106231226Y-101408687D01*
X106210470Y-101441021D01*
X106212097Y-101442283D01*
X106207313Y-101448449D01*
X106123718Y-101589801D01*
X106077899Y-101747513D01*
X106077704Y-101749998D01*
X106077705Y-101750000D01*
X109022295Y-101750000D01*
X109022295Y-101749998D01*
X109022100Y-101747513D01*
X108976281Y-101589801D01*
X108892685Y-101448447D01*
X108887900Y-101442278D01*
X108890366Y-101440364D01*
X108863802Y-101391776D01*
X108868749Y-101322082D01*
X108889856Y-101289232D01*
X108888301Y-101288026D01*
X108893077Y-101281868D01*
X108893081Y-101281865D01*
X108976744Y-101140398D01*
X109019045Y-100994798D01*
X109022597Y-100982573D01*
X109022598Y-100982567D01*
X109025500Y-100945696D01*
X109025500Y-100645807D01*
X109045185Y-100578768D01*
X109061815Y-100558130D01*
X109299513Y-100320431D01*
X109312079Y-100310365D01*
X109311925Y-100310178D01*
X109317937Y-100305204D01*
X109317937Y-100305203D01*
X109317940Y-100305202D01*
X109367190Y-100252755D01*
X109388912Y-100231034D01*
X109393402Y-100225244D01*
X109397184Y-100220814D01*
X109430448Y-100185393D01*
X109440674Y-100166789D01*
X109451347Y-100150541D01*
X109464363Y-100133763D01*
X109483651Y-100089187D01*
X109486224Y-100083936D01*
X109495380Y-100067282D01*
X109509627Y-100041368D01*
X109514904Y-100020808D01*
X109521206Y-100002403D01*
X109529636Y-99982926D01*
X109537238Y-99934920D01*
X109538414Y-99929242D01*
X109541167Y-99918522D01*
X109573586Y-99861688D01*
X110872622Y-98562652D01*
X110933943Y-98529169D01*
X111003635Y-98534153D01*
G37*
G04 #@! TD.AperFunction*
G04 #@! TA.AperFunction,Conductor*
G36*
X162677977Y-86820185D02*
G01*
X162723732Y-86872989D01*
X162733676Y-86942147D01*
X162704651Y-87005703D01*
X162663004Y-87037039D01*
X162475210Y-87123921D01*
X162475197Y-87123928D01*
X162173184Y-87305644D01*
X161892589Y-87518946D01*
X161892580Y-87518954D01*
X161636685Y-87761350D01*
X161408505Y-88029983D01*
X161408498Y-88029993D01*
X161210695Y-88321730D01*
X161045597Y-88633137D01*
X161045588Y-88633155D01*
X160915127Y-88960589D01*
X160915126Y-88960591D01*
X160820834Y-89300203D01*
X160820833Y-89300206D01*
X160763808Y-89648045D01*
X160744726Y-89999997D01*
X160744726Y-90000002D01*
X160763808Y-90351954D01*
X160820833Y-90699793D01*
X160820834Y-90699796D01*
X160915126Y-91039408D01*
X160915127Y-91039410D01*
X161045588Y-91366844D01*
X161045597Y-91366862D01*
X161052690Y-91380241D01*
X161210695Y-91678269D01*
X161403015Y-91961920D01*
X161408498Y-91970006D01*
X161408505Y-91970016D01*
X161635028Y-92236698D01*
X161636686Y-92238650D01*
X161892580Y-92481046D01*
X162173182Y-92694354D01*
X162475202Y-92876074D01*
X162475206Y-92876075D01*
X162475210Y-92876078D01*
X162795088Y-93024070D01*
X162795092Y-93024070D01*
X162795099Y-93024074D01*
X163129122Y-93136619D01*
X163473355Y-93212391D01*
X163823763Y-93250500D01*
X163823769Y-93250500D01*
X164176231Y-93250500D01*
X164176237Y-93250500D01*
X164526645Y-93212391D01*
X164870878Y-93136619D01*
X165204901Y-93024074D01*
X165204908Y-93024070D01*
X165204911Y-93024070D01*
X165524789Y-92876078D01*
X165524798Y-92876074D01*
X165826818Y-92694354D01*
X166107420Y-92481046D01*
X166363314Y-92238650D01*
X166591501Y-91970008D01*
X166789305Y-91678269D01*
X166954407Y-91366854D01*
X166954410Y-91366844D01*
X166954414Y-91366838D01*
X166960307Y-91352048D01*
X167003406Y-91297055D01*
X167069396Y-91274094D01*
X167137323Y-91290455D01*
X167185622Y-91340942D01*
X167199500Y-91397944D01*
X167199500Y-109602055D01*
X167179815Y-109669094D01*
X167127011Y-109714849D01*
X167057853Y-109724793D01*
X166994297Y-109695768D01*
X166960307Y-109647953D01*
X166958107Y-109642434D01*
X166954407Y-109633146D01*
X166789305Y-109321731D01*
X166591501Y-109029992D01*
X166591497Y-109029987D01*
X166591494Y-109029983D01*
X166363314Y-108761350D01*
X166286153Y-108688259D01*
X166107420Y-108518954D01*
X166107413Y-108518948D01*
X166107410Y-108518946D01*
X165942791Y-108393806D01*
X165826818Y-108305646D01*
X165755109Y-108262500D01*
X165524802Y-108123928D01*
X165524789Y-108123921D01*
X165204911Y-107975929D01*
X165204906Y-107975928D01*
X165204903Y-107975927D01*
X165204901Y-107975926D01*
X165060551Y-107927289D01*
X164870880Y-107863381D01*
X164526643Y-107787608D01*
X164176238Y-107749500D01*
X164176237Y-107749500D01*
X163823763Y-107749500D01*
X163823761Y-107749500D01*
X163473356Y-107787608D01*
X163129119Y-107863381D01*
X162795093Y-107975928D01*
X162795088Y-107975929D01*
X162475210Y-108123921D01*
X162475197Y-108123928D01*
X162173184Y-108305644D01*
X161892589Y-108518946D01*
X161892580Y-108518954D01*
X161636685Y-108761350D01*
X161408505Y-109029983D01*
X161408498Y-109029993D01*
X161210695Y-109321730D01*
X161045597Y-109633137D01*
X161045588Y-109633155D01*
X160915127Y-109960589D01*
X160915126Y-109960591D01*
X160820834Y-110300203D01*
X160820833Y-110300206D01*
X160763808Y-110648045D01*
X160744726Y-110999997D01*
X160744726Y-111000002D01*
X160763808Y-111351954D01*
X160820833Y-111699793D01*
X160820834Y-111699796D01*
X160915126Y-112039408D01*
X160915127Y-112039410D01*
X161045588Y-112366844D01*
X161045597Y-112366862D01*
X161062076Y-112397944D01*
X161210695Y-112678269D01*
X161324314Y-112845845D01*
X161408498Y-112970006D01*
X161408505Y-112970016D01*
X161636685Y-113238649D01*
X161636686Y-113238650D01*
X161892580Y-113481046D01*
X162173182Y-113694354D01*
X162475202Y-113876074D01*
X162475206Y-113876075D01*
X162475210Y-113876078D01*
X162663004Y-113962961D01*
X162715582Y-114008975D01*
X162734936Y-114076111D01*
X162714922Y-114143052D01*
X162661893Y-114188547D01*
X162610938Y-114199500D01*
X85389062Y-114199500D01*
X85322023Y-114179815D01*
X85276268Y-114127011D01*
X85266324Y-114057853D01*
X85295349Y-113994297D01*
X85336996Y-113962961D01*
X85524789Y-113876078D01*
X85524798Y-113876074D01*
X85826818Y-113694354D01*
X86107420Y-113481046D01*
X86363314Y-113238650D01*
X86591501Y-112970008D01*
X86789305Y-112678269D01*
X86954407Y-112366854D01*
X87084871Y-112039414D01*
X87179168Y-111699788D01*
X87236191Y-111351957D01*
X87255274Y-111000000D01*
X87236191Y-110648043D01*
X87179168Y-110300212D01*
X87136704Y-110147271D01*
X87084873Y-109960591D01*
X87084872Y-109960589D01*
X86954411Y-109633155D01*
X86954402Y-109633137D01*
X86946305Y-109617864D01*
X86789305Y-109321731D01*
X86591501Y-109029992D01*
X86591497Y-109029987D01*
X86591494Y-109029983D01*
X86363314Y-108761350D01*
X86286153Y-108688259D01*
X86107420Y-108518954D01*
X86107413Y-108518948D01*
X86107410Y-108518946D01*
X85942791Y-108393806D01*
X85826818Y-108305646D01*
X85755109Y-108262500D01*
X85524802Y-108123928D01*
X85524789Y-108123921D01*
X85204911Y-107975929D01*
X85204906Y-107975928D01*
X85204903Y-107975927D01*
X85204901Y-107975926D01*
X85060551Y-107927289D01*
X84870880Y-107863381D01*
X84526643Y-107787608D01*
X84176238Y-107749500D01*
X84176237Y-107749500D01*
X83823763Y-107749500D01*
X83823761Y-107749500D01*
X83473356Y-107787608D01*
X83129119Y-107863381D01*
X82795093Y-107975928D01*
X82795088Y-107975929D01*
X82475210Y-108123921D01*
X82475197Y-108123928D01*
X82173184Y-108305644D01*
X81892589Y-108518946D01*
X81892580Y-108518954D01*
X81636685Y-108761350D01*
X81408505Y-109029983D01*
X81408498Y-109029993D01*
X81277133Y-109223742D01*
X81223219Y-109268183D01*
X81153837Y-109276421D01*
X81091015Y-109245840D01*
X81054699Y-109186150D01*
X81050500Y-109154155D01*
X81050500Y-106500000D01*
X90444706Y-106500000D01*
X90463853Y-106743297D01*
X90463853Y-106743300D01*
X90463854Y-106743302D01*
X90513199Y-106948837D01*
X90520830Y-106980619D01*
X90614222Y-107206089D01*
X90741737Y-107414173D01*
X90741738Y-107414176D01*
X90748529Y-107422127D01*
X90900241Y-107599759D01*
X91002721Y-107687285D01*
X91085823Y-107758261D01*
X91085826Y-107758262D01*
X91293910Y-107885777D01*
X91475347Y-107960930D01*
X91513364Y-107976677D01*
X91519381Y-107979169D01*
X91519378Y-107979169D01*
X91519384Y-107979170D01*
X91519388Y-107979172D01*
X91756698Y-108036146D01*
X92000000Y-108055294D01*
X92243302Y-108036146D01*
X92480612Y-107979172D01*
X92706089Y-107885777D01*
X92914179Y-107758259D01*
X93099759Y-107599759D01*
X93258259Y-107414179D01*
X93383558Y-107209709D01*
X93435369Y-107162835D01*
X93489285Y-107150500D01*
X95214495Y-107150500D01*
X95230505Y-107152267D01*
X95230528Y-107152026D01*
X95238289Y-107152758D01*
X95238296Y-107152760D01*
X95310203Y-107150500D01*
X95340925Y-107150500D01*
X95348190Y-107149581D01*
X95354016Y-107149122D01*
X95402569Y-107147597D01*
X95422956Y-107141673D01*
X95441996Y-107137731D01*
X95463058Y-107135071D01*
X95508235Y-107117183D01*
X95513735Y-107115300D01*
X95560398Y-107101744D01*
X95578665Y-107090939D01*
X95596136Y-107082380D01*
X95615871Y-107074568D01*
X95655177Y-107046010D01*
X95660043Y-107042813D01*
X95701865Y-107018081D01*
X95716870Y-107003075D01*
X95731668Y-106990436D01*
X95732929Y-106989520D01*
X95748837Y-106977963D01*
X95779809Y-106940522D01*
X95783713Y-106936231D01*
X97033126Y-105686819D01*
X97094450Y-105653334D01*
X97120808Y-105650500D01*
X97838332Y-105650500D01*
X97905371Y-105670185D01*
X97943870Y-105709403D01*
X97957284Y-105731151D01*
X97957286Y-105731153D01*
X97957288Y-105731156D01*
X98050953Y-105824821D01*
X98084436Y-105886140D01*
X98079452Y-105955832D01*
X98050952Y-106000180D01*
X97957287Y-106093845D01*
X97865187Y-106243163D01*
X97865185Y-106243168D01*
X97859627Y-106259942D01*
X97810001Y-106409703D01*
X97810001Y-106409704D01*
X97810000Y-106409704D01*
X97799500Y-106512483D01*
X97799500Y-107137501D01*
X97799501Y-107137519D01*
X97810000Y-107240296D01*
X97810001Y-107240299D01*
X97865185Y-107406831D01*
X97865187Y-107406836D01*
X97876390Y-107424999D01*
X97957288Y-107556156D01*
X98081344Y-107680212D01*
X98230666Y-107772314D01*
X98264500Y-107783525D01*
X98321947Y-107823296D01*
X98348772Y-107887811D01*
X98349500Y-107901232D01*
X98349500Y-107929078D01*
X98329815Y-107996117D01*
X98317650Y-108012050D01*
X98267466Y-108067785D01*
X98172821Y-108231715D01*
X98172818Y-108231722D01*
X98114327Y-108411740D01*
X98114326Y-108411744D01*
X98094540Y-108600000D01*
X98114326Y-108788256D01*
X98114327Y-108788259D01*
X98172818Y-108968277D01*
X98172821Y-108968284D01*
X98267467Y-109132216D01*
X98349878Y-109223742D01*
X98394129Y-109272888D01*
X98547265Y-109384148D01*
X98547270Y-109384151D01*
X98720192Y-109461142D01*
X98720197Y-109461144D01*
X98905354Y-109500500D01*
X98905355Y-109500500D01*
X99094644Y-109500500D01*
X99094646Y-109500500D01*
X99279803Y-109461144D01*
X99452730Y-109384151D01*
X99605871Y-109272888D01*
X99732533Y-109132216D01*
X99827179Y-108968284D01*
X99885674Y-108788256D01*
X99905460Y-108600000D01*
X99885674Y-108411744D01*
X99827179Y-108231716D01*
X99732533Y-108067784D01*
X99682350Y-108012050D01*
X99652120Y-107949058D01*
X99650500Y-107929078D01*
X99650500Y-107901232D01*
X99670185Y-107834193D01*
X99722989Y-107788438D01*
X99735495Y-107783526D01*
X99769334Y-107772314D01*
X99918656Y-107680212D01*
X100042712Y-107556156D01*
X100134814Y-107406834D01*
X100189999Y-107240297D01*
X100200500Y-107137509D01*
X100200499Y-106512492D01*
X100197433Y-106482481D01*
X100189999Y-106409703D01*
X100189998Y-106409700D01*
X100180785Y-106381897D01*
X100134814Y-106243166D01*
X100042712Y-106093844D01*
X99949048Y-106000180D01*
X99915564Y-105938856D01*
X99920548Y-105869165D01*
X99949045Y-105824822D01*
X100042712Y-105731156D01*
X100044256Y-105728652D01*
X100056130Y-105709403D01*
X100108078Y-105662678D01*
X100161668Y-105650500D01*
X101027983Y-105650500D01*
X101095022Y-105670185D01*
X101140777Y-105722989D01*
X101145686Y-105735489D01*
X101165046Y-105793911D01*
X101165186Y-105794333D01*
X101165187Y-105794336D01*
X101187728Y-105830880D01*
X101257288Y-105943656D01*
X101381344Y-106067712D01*
X101530666Y-106159814D01*
X101697203Y-106214999D01*
X101799991Y-106225500D01*
X102275500Y-106225499D01*
X102342539Y-106245183D01*
X102388294Y-106297987D01*
X102399500Y-106349499D01*
X102399500Y-106426789D01*
X102397304Y-106450020D01*
X102395624Y-106458826D01*
X102395624Y-106458830D01*
X102399378Y-106518507D01*
X102399500Y-106522380D01*
X102399500Y-106540929D01*
X102401823Y-106559327D01*
X102402189Y-106563199D01*
X102404775Y-106604278D01*
X102405944Y-106622860D01*
X102408426Y-106630500D01*
X102408714Y-106631384D01*
X102413805Y-106654159D01*
X102414928Y-106663053D01*
X102414930Y-106663061D01*
X102436937Y-106718649D01*
X102438256Y-106722311D01*
X102456731Y-106779169D01*
X102456733Y-106779174D01*
X102461534Y-106786738D01*
X102472129Y-106807530D01*
X102475432Y-106815871D01*
X102475436Y-106815878D01*
X102510579Y-106864248D01*
X102512758Y-106867454D01*
X102514918Y-106870857D01*
X102544797Y-106917939D01*
X102551332Y-106924076D01*
X102566761Y-106941577D01*
X102572033Y-106948833D01*
X102572035Y-106948835D01*
X102572036Y-106948836D01*
X102572037Y-106948837D01*
X102618118Y-106986959D01*
X102621022Y-106989520D01*
X102625920Y-106994119D01*
X102664607Y-107030448D01*
X102664611Y-107030450D01*
X102664612Y-107030451D01*
X102672459Y-107034765D01*
X102691763Y-107047883D01*
X102698674Y-107053600D01*
X102698675Y-107053601D01*
X102715654Y-107061590D01*
X102752785Y-107079063D01*
X102756213Y-107080809D01*
X102808632Y-107109627D01*
X102817321Y-107111858D01*
X102839271Y-107119760D01*
X102847387Y-107123579D01*
X102906131Y-107134784D01*
X102909875Y-107135621D01*
X102967823Y-107150500D01*
X102976790Y-107150500D01*
X103000022Y-107152696D01*
X103001706Y-107153017D01*
X103008830Y-107154376D01*
X103068508Y-107150621D01*
X103072381Y-107150500D01*
X106340043Y-107150500D01*
X106407082Y-107170185D01*
X106452837Y-107222989D01*
X106462781Y-107292147D01*
X106433756Y-107355703D01*
X106379047Y-107392206D01*
X106316305Y-107412996D01*
X106316294Y-107413001D01*
X106171959Y-107502029D01*
X106171955Y-107502032D01*
X106052032Y-107621955D01*
X106052029Y-107621959D01*
X105963001Y-107766294D01*
X105962996Y-107766305D01*
X105909651Y-107927290D01*
X105899500Y-108026647D01*
X105899500Y-108573337D01*
X105899501Y-108573355D01*
X105909650Y-108672707D01*
X105909651Y-108672710D01*
X105962996Y-108833694D01*
X105963001Y-108833705D01*
X106052029Y-108978040D01*
X106052032Y-108978044D01*
X106171956Y-109097968D01*
X106263038Y-109154148D01*
X106309762Y-109206095D01*
X106320983Y-109275058D01*
X106293140Y-109339140D01*
X106290091Y-109342657D01*
X106267466Y-109367785D01*
X106172821Y-109531715D01*
X106172818Y-109531722D01*
X106125458Y-109677482D01*
X106114326Y-109711744D01*
X106094540Y-109900000D01*
X106114326Y-110088256D01*
X106114327Y-110088259D01*
X106172818Y-110268277D01*
X106172821Y-110268284D01*
X106267467Y-110432216D01*
X106394129Y-110572888D01*
X106547265Y-110684148D01*
X106547270Y-110684151D01*
X106720192Y-110761142D01*
X106720197Y-110761144D01*
X106905354Y-110800500D01*
X106905355Y-110800500D01*
X107094644Y-110800500D01*
X107094646Y-110800500D01*
X107279803Y-110761144D01*
X107452730Y-110684151D01*
X107605871Y-110572888D01*
X107732533Y-110432216D01*
X107827179Y-110268284D01*
X107885674Y-110088256D01*
X107905460Y-109900000D01*
X107885674Y-109711744D01*
X107827179Y-109531716D01*
X107732533Y-109367784D01*
X107709909Y-109342657D01*
X107679680Y-109279668D01*
X107688304Y-109210332D01*
X107733045Y-109156666D01*
X107736905Y-109154183D01*
X107828044Y-109097968D01*
X107947968Y-108978044D01*
X108037003Y-108833697D01*
X108090349Y-108672708D01*
X108100500Y-108573345D01*
X108100499Y-108026656D01*
X108097379Y-107996117D01*
X108090349Y-107927292D01*
X108090348Y-107927289D01*
X108067762Y-107859129D01*
X108037003Y-107766303D01*
X108036999Y-107766297D01*
X108036998Y-107766294D01*
X107947970Y-107621959D01*
X107947967Y-107621955D01*
X107828044Y-107502032D01*
X107828040Y-107502029D01*
X107683705Y-107413001D01*
X107683699Y-107412998D01*
X107683697Y-107412997D01*
X107620952Y-107392205D01*
X107563508Y-107352433D01*
X107536685Y-107287917D01*
X107549000Y-107219142D01*
X107596543Y-107167942D01*
X107659957Y-107150500D01*
X109014495Y-107150500D01*
X109030505Y-107152267D01*
X109030528Y-107152026D01*
X109038289Y-107152758D01*
X109038296Y-107152760D01*
X109110203Y-107150500D01*
X109140925Y-107150500D01*
X109148190Y-107149581D01*
X109154016Y-107149122D01*
X109202569Y-107147597D01*
X109222956Y-107141673D01*
X109241996Y-107137731D01*
X109263058Y-107135071D01*
X109308235Y-107117183D01*
X109313735Y-107115300D01*
X109360398Y-107101744D01*
X109378665Y-107090939D01*
X109396136Y-107082380D01*
X109415871Y-107074568D01*
X109455177Y-107046010D01*
X109460043Y-107042813D01*
X109501865Y-107018081D01*
X109516870Y-107003075D01*
X109531668Y-106990436D01*
X109532929Y-106989520D01*
X109548837Y-106977963D01*
X109579809Y-106940522D01*
X109583723Y-106936221D01*
X109587821Y-106932123D01*
X109649142Y-106898640D01*
X109718834Y-106903624D01*
X109774767Y-106945496D01*
X109799184Y-107010960D01*
X109799500Y-107019805D01*
X109799500Y-107137500D01*
X109799501Y-107137519D01*
X109810000Y-107240296D01*
X109810001Y-107240299D01*
X109865185Y-107406831D01*
X109865187Y-107406836D01*
X109876390Y-107424999D01*
X109957288Y-107556156D01*
X110081344Y-107680212D01*
X110230666Y-107772314D01*
X110230667Y-107772314D01*
X110236813Y-107776105D01*
X110235833Y-107777693D01*
X110281101Y-107817546D01*
X110300257Y-107884738D01*
X110280046Y-107951621D01*
X110268415Y-107966730D01*
X110267469Y-107967779D01*
X110267466Y-107967784D01*
X110172821Y-108131715D01*
X110172818Y-108131722D01*
X110116308Y-108305644D01*
X110114326Y-108311744D01*
X110094540Y-108500000D01*
X110114326Y-108688256D01*
X110114327Y-108688259D01*
X110172818Y-108868277D01*
X110172821Y-108868284D01*
X110267467Y-109032216D01*
X110380445Y-109157690D01*
X110394129Y-109172888D01*
X110547265Y-109284148D01*
X110547270Y-109284151D01*
X110720192Y-109361142D01*
X110720197Y-109361144D01*
X110905354Y-109400500D01*
X110905355Y-109400500D01*
X111094644Y-109400500D01*
X111094646Y-109400500D01*
X111279803Y-109361144D01*
X111452730Y-109284151D01*
X111605871Y-109172888D01*
X111732533Y-109032216D01*
X111827179Y-108868284D01*
X111885674Y-108688256D01*
X111905460Y-108500000D01*
X111885674Y-108311744D01*
X111827179Y-108131716D01*
X111732533Y-107967784D01*
X111731589Y-107966736D01*
X111731235Y-107965997D01*
X111728715Y-107962529D01*
X111729349Y-107962068D01*
X111701359Y-107903749D01*
X111709981Y-107834413D01*
X111754721Y-107780746D01*
X111765649Y-107774585D01*
X111769327Y-107772316D01*
X111769334Y-107772314D01*
X111918656Y-107680212D01*
X112042712Y-107556156D01*
X112134814Y-107406834D01*
X112189999Y-107240297D01*
X112200500Y-107137509D01*
X112200499Y-106724499D01*
X112220183Y-106657461D01*
X112272987Y-106611706D01*
X112324499Y-106600500D01*
X113150500Y-106600500D01*
X113217539Y-106620185D01*
X113263294Y-106672989D01*
X113274500Y-106724500D01*
X113274500Y-107200001D01*
X113274501Y-107200019D01*
X113285000Y-107302796D01*
X113285001Y-107302799D01*
X113319476Y-107406836D01*
X113340186Y-107469334D01*
X113432288Y-107618656D01*
X113556344Y-107742712D01*
X113705016Y-107834413D01*
X113705668Y-107834815D01*
X113719701Y-107839464D01*
X113734724Y-107844442D01*
X113792169Y-107884213D01*
X113818994Y-107948728D01*
X113806681Y-108017504D01*
X113787873Y-108045120D01*
X113767466Y-108067784D01*
X113672821Y-108231715D01*
X113672818Y-108231722D01*
X113614327Y-108411740D01*
X113614326Y-108411744D01*
X113594540Y-108600000D01*
X113614326Y-108788256D01*
X113614327Y-108788259D01*
X113672818Y-108968277D01*
X113672821Y-108968284D01*
X113767467Y-109132216D01*
X113849878Y-109223742D01*
X113894129Y-109272888D01*
X114047265Y-109384148D01*
X114047270Y-109384151D01*
X114220192Y-109461142D01*
X114220197Y-109461144D01*
X114405354Y-109500500D01*
X114405355Y-109500500D01*
X114594644Y-109500500D01*
X114594646Y-109500500D01*
X114779803Y-109461144D01*
X114952730Y-109384151D01*
X115105871Y-109272888D01*
X115232533Y-109132216D01*
X115327179Y-108968284D01*
X115385674Y-108788256D01*
X115405460Y-108600000D01*
X115385674Y-108411744D01*
X115327179Y-108231716D01*
X115232533Y-108067784D01*
X115212126Y-108045120D01*
X115181897Y-107982130D01*
X115190522Y-107912795D01*
X115235263Y-107859129D01*
X115265274Y-107844443D01*
X115294334Y-107834814D01*
X115443656Y-107742712D01*
X115567712Y-107618656D01*
X115659814Y-107469334D01*
X115714999Y-107302797D01*
X115725500Y-107200009D01*
X115725499Y-106728032D01*
X115745183Y-106660994D01*
X115797987Y-106615239D01*
X115851079Y-106605427D01*
X115851044Y-106604866D01*
X115855701Y-106604572D01*
X115857297Y-106604278D01*
X115858816Y-106604373D01*
X115858830Y-106604376D01*
X115918508Y-106600621D01*
X115922381Y-106600500D01*
X115940925Y-106600500D01*
X115959325Y-106598175D01*
X115963185Y-106597810D01*
X116022860Y-106594056D01*
X116027358Y-106592594D01*
X116031382Y-106591287D01*
X116054165Y-106586193D01*
X116063058Y-106585071D01*
X116118664Y-106563054D01*
X116122276Y-106561753D01*
X116179171Y-106543268D01*
X116186737Y-106538465D01*
X116207539Y-106527866D01*
X116215871Y-106524568D01*
X116264268Y-106489404D01*
X116267429Y-106487256D01*
X116317940Y-106455202D01*
X116324069Y-106448674D01*
X116341582Y-106433234D01*
X116348837Y-106427963D01*
X116363945Y-106409700D01*
X116386957Y-106381882D01*
X116389499Y-106378998D01*
X116430448Y-106335393D01*
X116434765Y-106327539D01*
X116447891Y-106308226D01*
X116453600Y-106301326D01*
X116479071Y-106247195D01*
X116480799Y-106243803D01*
X116509627Y-106191368D01*
X116511857Y-106182679D01*
X116519764Y-106160720D01*
X116523579Y-106152612D01*
X116534785Y-106093864D01*
X116535626Y-106090103D01*
X116550500Y-106032177D01*
X116550500Y-106023206D01*
X116552695Y-105999981D01*
X116554376Y-105991170D01*
X116554375Y-105991166D01*
X116555379Y-105985907D01*
X116587277Y-105923743D01*
X116647719Y-105888693D01*
X116717516Y-105891885D01*
X116774507Y-105932305D01*
X116794889Y-105970137D01*
X116840186Y-106106834D01*
X116932288Y-106256156D01*
X117056344Y-106380212D01*
X117205666Y-106472314D01*
X117208905Y-106473387D01*
X117210843Y-106474728D01*
X117212216Y-106475369D01*
X117212106Y-106475603D01*
X117266353Y-106513156D01*
X117293181Y-106577670D01*
X117280871Y-106646446D01*
X117270236Y-106663971D01*
X117267468Y-106667781D01*
X117172821Y-106831715D01*
X117172818Y-106831722D01*
X117114327Y-107011740D01*
X117114326Y-107011744D01*
X117094540Y-107200000D01*
X117114326Y-107388256D01*
X117114327Y-107388259D01*
X117172818Y-107568277D01*
X117172821Y-107568284D01*
X117267467Y-107732216D01*
X117381740Y-107859129D01*
X117394129Y-107872888D01*
X117547265Y-107984148D01*
X117547270Y-107984151D01*
X117720192Y-108061142D01*
X117720197Y-108061144D01*
X117905354Y-108100500D01*
X117905355Y-108100500D01*
X118094644Y-108100500D01*
X118094646Y-108100500D01*
X118279803Y-108061144D01*
X118452730Y-107984151D01*
X118605871Y-107872888D01*
X118662201Y-107810327D01*
X126142499Y-107810327D01*
X126142500Y-107810344D01*
X126148901Y-107869872D01*
X126148903Y-107869879D01*
X126199145Y-108004586D01*
X126199149Y-108004593D01*
X126285309Y-108119687D01*
X126285312Y-108119690D01*
X126400406Y-108205850D01*
X126400413Y-108205854D01*
X126535120Y-108256096D01*
X126535127Y-108256098D01*
X126594655Y-108262499D01*
X126594672Y-108262500D01*
X127392500Y-108262500D01*
X127392500Y-107012500D01*
X126142500Y-107012500D01*
X126142499Y-107810327D01*
X118662201Y-107810327D01*
X118732533Y-107732216D01*
X118827179Y-107568284D01*
X118885674Y-107388256D01*
X118905460Y-107200000D01*
X118885674Y-107011744D01*
X118827179Y-106831716D01*
X118761900Y-106718649D01*
X118732537Y-106667790D01*
X118729776Y-106663991D01*
X118729244Y-106662500D01*
X121712501Y-106662500D01*
X121712501Y-106724986D01*
X121722994Y-106827697D01*
X121778141Y-106994119D01*
X121778143Y-106994124D01*
X121870184Y-107143345D01*
X121994154Y-107267315D01*
X122143375Y-107359356D01*
X122143380Y-107359358D01*
X122309802Y-107414505D01*
X122309809Y-107414506D01*
X122412519Y-107424999D01*
X122662499Y-107424999D01*
X122662500Y-107424998D01*
X122662500Y-106662500D01*
X123162500Y-106662500D01*
X123162500Y-107424999D01*
X123412472Y-107424999D01*
X123412486Y-107424998D01*
X123515197Y-107414505D01*
X123681619Y-107359358D01*
X123681624Y-107359356D01*
X123830845Y-107267315D01*
X123954815Y-107143345D01*
X124046856Y-106994124D01*
X124046858Y-106994119D01*
X124102005Y-106827697D01*
X124102006Y-106827690D01*
X124105673Y-106791802D01*
X127288872Y-106791802D01*
X127317547Y-106905038D01*
X127381436Y-107002827D01*
X127473615Y-107074572D01*
X127584095Y-107112500D01*
X127671505Y-107112500D01*
X127757716Y-107098114D01*
X127860447Y-107042519D01*
X127888081Y-107012500D01*
X127892500Y-107012500D01*
X127892500Y-108262500D01*
X128690328Y-108262500D01*
X128690344Y-108262499D01*
X128749872Y-108256098D01*
X128749879Y-108256096D01*
X128884586Y-108205854D01*
X128884593Y-108205850D01*
X128999687Y-108119690D01*
X128999690Y-108119687D01*
X129085850Y-108004593D01*
X129085854Y-108004586D01*
X129136096Y-107869879D01*
X129136098Y-107869872D01*
X129142499Y-107810344D01*
X129142499Y-107810327D01*
X129142500Y-107012500D01*
X127892500Y-107012500D01*
X127888081Y-107012500D01*
X127939560Y-106956579D01*
X127986482Y-106849608D01*
X127993700Y-106762505D01*
X133756857Y-106762505D01*
X133777390Y-107010312D01*
X133777392Y-107010324D01*
X133838436Y-107251381D01*
X133938326Y-107479106D01*
X134074333Y-107687282D01*
X134074336Y-107687285D01*
X134242756Y-107870238D01*
X134438991Y-108022974D01*
X134438993Y-108022975D01*
X134639928Y-108131716D01*
X134657690Y-108141328D01*
X134892886Y-108222071D01*
X135138165Y-108263000D01*
X135386835Y-108263000D01*
X135632114Y-108222071D01*
X135867310Y-108141328D01*
X136086009Y-108022974D01*
X136282244Y-107870238D01*
X136450664Y-107687285D01*
X136586673Y-107479107D01*
X136686563Y-107251381D01*
X136747608Y-107010321D01*
X136748057Y-107004905D01*
X136768143Y-106762505D01*
X138836857Y-106762505D01*
X138857390Y-107010312D01*
X138857392Y-107010324D01*
X138918436Y-107251381D01*
X139018326Y-107479106D01*
X139154333Y-107687282D01*
X139154336Y-107687285D01*
X139322756Y-107870238D01*
X139518991Y-108022974D01*
X139518993Y-108022975D01*
X139719928Y-108131716D01*
X139737690Y-108141328D01*
X139972886Y-108222071D01*
X140218165Y-108263000D01*
X140466835Y-108263000D01*
X140712114Y-108222071D01*
X140765466Y-108203754D01*
X140835262Y-108200604D01*
X140893409Y-108233355D01*
X141579564Y-108919510D01*
X141589635Y-108932080D01*
X141589822Y-108931926D01*
X141594796Y-108937937D01*
X141594798Y-108937940D01*
X141623345Y-108964748D01*
X141647243Y-108987190D01*
X141668967Y-109008913D01*
X141674757Y-109013405D01*
X141679197Y-109017197D01*
X141708498Y-109044711D01*
X141714607Y-109050448D01*
X141714609Y-109050449D01*
X141733205Y-109060672D01*
X141749470Y-109071357D01*
X141766232Y-109084360D01*
X141766235Y-109084361D01*
X141766236Y-109084362D01*
X141810823Y-109103656D01*
X141816059Y-109106221D01*
X141858632Y-109129627D01*
X141874340Y-109133659D01*
X141879186Y-109134904D01*
X141897598Y-109141207D01*
X141917073Y-109149635D01*
X141965071Y-109157237D01*
X141970740Y-109158411D01*
X142017823Y-109170500D01*
X142039051Y-109170500D01*
X142058448Y-109172026D01*
X142079403Y-109175345D01*
X142079404Y-109175346D01*
X142079404Y-109175345D01*
X142079405Y-109175346D01*
X142127760Y-109170775D01*
X142133599Y-109170500D01*
X151825501Y-109170500D01*
X151892540Y-109190185D01*
X151938295Y-109242989D01*
X151949501Y-109294500D01*
X151949501Y-109617876D01*
X151955908Y-109677483D01*
X152006202Y-109812328D01*
X152006206Y-109812335D01*
X152092452Y-109927544D01*
X152092455Y-109927547D01*
X152207664Y-110013793D01*
X152207671Y-110013797D01*
X152342517Y-110064091D01*
X152342516Y-110064091D01*
X152349444Y-110064835D01*
X152402127Y-110070500D01*
X154597872Y-110070499D01*
X154657483Y-110064091D01*
X154792331Y-110013796D01*
X154907546Y-109927546D01*
X154993796Y-109812331D01*
X155044091Y-109677483D01*
X155050500Y-109617873D01*
X155050499Y-107422128D01*
X155044091Y-107362517D01*
X155039236Y-107349501D01*
X154993797Y-107227671D01*
X154993793Y-107227664D01*
X154907547Y-107112455D01*
X154907544Y-107112452D01*
X154803966Y-107034913D01*
X154762095Y-106978979D01*
X154757111Y-106909288D01*
X154772548Y-106870860D01*
X154885777Y-106686089D01*
X154979172Y-106460612D01*
X155036146Y-106223302D01*
X155055294Y-105980000D01*
X155036146Y-105736698D01*
X154979172Y-105499388D01*
X154968654Y-105473995D01*
X154885777Y-105273910D01*
X154758262Y-105065826D01*
X154758261Y-105065823D01*
X154704433Y-105002799D01*
X154599759Y-104880241D01*
X154442358Y-104745808D01*
X154414176Y-104721738D01*
X154414173Y-104721737D01*
X154206089Y-104594222D01*
X153980618Y-104500830D01*
X153980621Y-104500830D01*
X153848911Y-104469209D01*
X153743302Y-104443854D01*
X153743300Y-104443853D01*
X153743297Y-104443853D01*
X153500000Y-104424706D01*
X153256702Y-104443853D01*
X153256697Y-104443854D01*
X153256698Y-104443854D01*
X153031397Y-104497945D01*
X153019380Y-104500830D01*
X152793910Y-104594222D01*
X152585826Y-104721737D01*
X152585823Y-104721738D01*
X152400241Y-104880241D01*
X152241738Y-105065823D01*
X152241737Y-105065825D01*
X152116442Y-105270290D01*
X152064631Y-105317165D01*
X152010715Y-105329500D01*
X146290504Y-105329500D01*
X146274493Y-105327732D01*
X146274471Y-105327974D01*
X146266704Y-105327240D01*
X146266703Y-105327240D01*
X146194796Y-105329500D01*
X146164075Y-105329500D01*
X146164071Y-105329500D01*
X146164061Y-105329501D01*
X146156793Y-105330419D01*
X146150976Y-105330876D01*
X146102436Y-105332402D01*
X146102425Y-105332404D01*
X146082049Y-105338323D01*
X146063008Y-105342266D01*
X146041953Y-105344926D01*
X146041937Y-105344930D01*
X146025318Y-105351510D01*
X145955739Y-105357883D01*
X145939415Y-105353496D01*
X145792118Y-105302929D01*
X145546835Y-105262000D01*
X145298165Y-105262000D01*
X145052883Y-105302929D01*
X144817697Y-105383669D01*
X144817688Y-105383672D01*
X144598993Y-105502024D01*
X144402757Y-105654761D01*
X144402756Y-105654762D01*
X144402420Y-105655127D01*
X144234333Y-105837717D01*
X144098326Y-106045893D01*
X143998436Y-106273618D01*
X143937392Y-106514675D01*
X143937390Y-106514687D01*
X143916857Y-106762494D01*
X143916857Y-106762505D01*
X143937390Y-107010312D01*
X143937392Y-107010324D01*
X143998436Y-107251381D01*
X144098326Y-107479106D01*
X144228060Y-107677679D01*
X144248247Y-107744568D01*
X144229067Y-107811754D01*
X144176609Y-107857904D01*
X144124251Y-107869500D01*
X142420808Y-107869500D01*
X142353769Y-107849815D01*
X142333127Y-107833181D01*
X141813305Y-107313359D01*
X141779820Y-107252036D01*
X141780779Y-107195239D01*
X141827608Y-107010321D01*
X141828057Y-107004905D01*
X141848143Y-106762505D01*
X141848143Y-106762494D01*
X141827609Y-106514687D01*
X141827607Y-106514675D01*
X141766563Y-106273618D01*
X141666673Y-106045893D01*
X141530666Y-105837717D01*
X141490728Y-105794333D01*
X141362244Y-105654762D01*
X141166009Y-105502026D01*
X141166007Y-105502025D01*
X141166006Y-105502024D01*
X140947311Y-105383672D01*
X140947302Y-105383669D01*
X140712116Y-105302929D01*
X140466835Y-105262000D01*
X140218165Y-105262000D01*
X139972883Y-105302929D01*
X139737697Y-105383669D01*
X139737688Y-105383672D01*
X139518993Y-105502024D01*
X139322757Y-105654761D01*
X139322756Y-105654762D01*
X139322420Y-105655127D01*
X139154333Y-105837717D01*
X139018326Y-106045893D01*
X138918436Y-106273618D01*
X138857392Y-106514675D01*
X138857390Y-106514687D01*
X138836857Y-106762494D01*
X138836857Y-106762505D01*
X136768143Y-106762505D01*
X136768143Y-106762494D01*
X136747609Y-106514687D01*
X136747608Y-106514683D01*
X136747608Y-106514679D01*
X136747222Y-106513156D01*
X136721733Y-106412500D01*
X136700780Y-106329760D01*
X136703404Y-106259942D01*
X136733302Y-106211642D01*
X139758126Y-103186819D01*
X139819450Y-103153334D01*
X139845808Y-103150500D01*
X147914495Y-103150500D01*
X147930505Y-103152267D01*
X147930528Y-103152026D01*
X147938289Y-103152758D01*
X147938296Y-103152760D01*
X148010203Y-103150500D01*
X148040925Y-103150500D01*
X148048190Y-103149581D01*
X148054016Y-103149122D01*
X148102569Y-103147597D01*
X148122956Y-103141673D01*
X148141996Y-103137731D01*
X148163058Y-103135071D01*
X148208235Y-103117183D01*
X148213735Y-103115300D01*
X148260398Y-103101744D01*
X148278665Y-103090939D01*
X148296136Y-103082380D01*
X148315871Y-103074568D01*
X148355177Y-103046010D01*
X148360043Y-103042813D01*
X148401865Y-103018081D01*
X148416870Y-103003075D01*
X148431668Y-102990436D01*
X148448837Y-102977963D01*
X148479809Y-102940522D01*
X148483713Y-102936231D01*
X148963126Y-102456819D01*
X149024450Y-102423334D01*
X149050808Y-102420500D01*
X151825501Y-102420500D01*
X151892540Y-102440185D01*
X151938295Y-102492989D01*
X151949501Y-102544500D01*
X151949501Y-102867876D01*
X151955908Y-102927483D01*
X152006202Y-103062328D01*
X152006206Y-103062335D01*
X152092452Y-103177544D01*
X152092455Y-103177547D01*
X152207664Y-103263793D01*
X152207671Y-103263797D01*
X152342517Y-103314091D01*
X152342516Y-103314091D01*
X152349444Y-103314835D01*
X152402127Y-103320500D01*
X154597872Y-103320499D01*
X154657483Y-103314091D01*
X154792331Y-103263796D01*
X154907546Y-103177546D01*
X154993796Y-103062331D01*
X155044091Y-102927483D01*
X155050500Y-102867873D01*
X155050499Y-100672128D01*
X155044091Y-100612517D01*
X155034760Y-100587500D01*
X154993797Y-100477671D01*
X154993793Y-100477664D01*
X154907547Y-100362455D01*
X154907544Y-100362452D01*
X154803966Y-100284913D01*
X154762095Y-100228979D01*
X154757111Y-100159288D01*
X154772548Y-100120860D01*
X154885777Y-99936089D01*
X154979172Y-99710612D01*
X155036146Y-99473302D01*
X155055294Y-99230000D01*
X155036146Y-98986698D01*
X154979172Y-98749388D01*
X154976521Y-98742988D01*
X154885777Y-98523910D01*
X154758262Y-98315826D01*
X154758261Y-98315823D01*
X154674470Y-98217717D01*
X154599759Y-98130241D01*
X154477063Y-98025449D01*
X154414176Y-97971738D01*
X154414173Y-97971737D01*
X154206089Y-97844222D01*
X153980618Y-97750830D01*
X153980621Y-97750830D01*
X153874992Y-97725470D01*
X153743302Y-97693854D01*
X153743300Y-97693853D01*
X153743297Y-97693853D01*
X153500000Y-97674706D01*
X153256702Y-97693853D01*
X153019380Y-97750830D01*
X152793910Y-97844222D01*
X152585826Y-97971737D01*
X152585823Y-97971738D01*
X152400241Y-98130241D01*
X152241738Y-98315823D01*
X152241737Y-98315825D01*
X152116442Y-98520290D01*
X152064631Y-98567165D01*
X152010715Y-98579500D01*
X149355505Y-98579500D01*
X149339494Y-98577732D01*
X149339472Y-98577974D01*
X149331705Y-98577240D01*
X149331704Y-98577240D01*
X149259797Y-98579500D01*
X149229075Y-98579500D01*
X149229071Y-98579500D01*
X149229061Y-98579501D01*
X149221793Y-98580419D01*
X149215976Y-98580876D01*
X149167436Y-98582402D01*
X149167425Y-98582404D01*
X149147049Y-98588323D01*
X149128008Y-98592266D01*
X149106953Y-98594926D01*
X149106937Y-98594930D01*
X149061771Y-98612812D01*
X149056244Y-98614704D01*
X149009599Y-98628256D01*
X148991327Y-98639062D01*
X148973861Y-98647619D01*
X148954128Y-98655432D01*
X148914830Y-98683983D01*
X148909953Y-98687186D01*
X148896281Y-98695272D01*
X148868132Y-98711920D01*
X148853126Y-98726926D01*
X148838336Y-98739558D01*
X148821167Y-98752032D01*
X148821165Y-98752034D01*
X148790194Y-98789470D01*
X148786262Y-98793791D01*
X147266873Y-100313181D01*
X147205550Y-100346666D01*
X147179192Y-100349500D01*
X146633558Y-100349500D01*
X146566519Y-100329815D01*
X146520764Y-100277011D01*
X146510820Y-100207853D01*
X146539845Y-100144297D01*
X146542306Y-100141541D01*
X146610664Y-100067285D01*
X146746673Y-99859107D01*
X146846563Y-99631381D01*
X146907608Y-99390321D01*
X146907609Y-99390312D01*
X146928143Y-99142505D01*
X146928143Y-99142494D01*
X146907609Y-98894687D01*
X146907608Y-98894683D01*
X146907608Y-98894679D01*
X146860780Y-98709760D01*
X146863404Y-98639942D01*
X146893302Y-98591642D01*
X149778126Y-95706819D01*
X149839450Y-95673334D01*
X149865808Y-95670500D01*
X151825501Y-95670500D01*
X151892540Y-95690185D01*
X151938295Y-95742989D01*
X151949501Y-95794500D01*
X151949501Y-96117876D01*
X151955908Y-96177483D01*
X152006202Y-96312328D01*
X152006206Y-96312335D01*
X152092452Y-96427544D01*
X152092455Y-96427547D01*
X152207664Y-96513793D01*
X152207671Y-96513797D01*
X152342517Y-96564091D01*
X152342516Y-96564091D01*
X152349444Y-96564835D01*
X152402127Y-96570500D01*
X154597872Y-96570499D01*
X154657483Y-96564091D01*
X154792331Y-96513796D01*
X154907546Y-96427546D01*
X154993796Y-96312331D01*
X155044091Y-96177483D01*
X155050500Y-96117873D01*
X155050499Y-93922128D01*
X155044091Y-93862517D01*
X154993796Y-93727669D01*
X154993795Y-93727668D01*
X154993793Y-93727664D01*
X154907547Y-93612455D01*
X154907544Y-93612452D01*
X154803966Y-93534913D01*
X154762095Y-93478979D01*
X154757111Y-93409288D01*
X154772548Y-93370860D01*
X154885777Y-93186089D01*
X154979172Y-92960612D01*
X155036146Y-92723302D01*
X155055294Y-92480000D01*
X155036146Y-92236698D01*
X154979172Y-91999388D01*
X154979169Y-91999380D01*
X154885777Y-91773910D01*
X154758262Y-91565826D01*
X154758261Y-91565823D01*
X154722453Y-91523897D01*
X154599759Y-91380241D01*
X154475477Y-91274094D01*
X154414176Y-91221738D01*
X154414173Y-91221737D01*
X154206089Y-91094222D01*
X153980618Y-91000830D01*
X153980621Y-91000830D01*
X153874992Y-90975470D01*
X153743302Y-90943854D01*
X153743300Y-90943853D01*
X153743297Y-90943853D01*
X153500000Y-90924706D01*
X153256702Y-90943853D01*
X153019380Y-91000830D01*
X152793910Y-91094222D01*
X152585826Y-91221737D01*
X152585823Y-91221738D01*
X152400241Y-91380241D01*
X152241738Y-91565823D01*
X152241737Y-91565825D01*
X152116442Y-91770290D01*
X152064631Y-91817165D01*
X152010715Y-91829500D01*
X142010505Y-91829500D01*
X141994494Y-91827732D01*
X141994472Y-91827974D01*
X141986705Y-91827240D01*
X141986704Y-91827240D01*
X141914797Y-91829500D01*
X141884075Y-91829500D01*
X141884071Y-91829500D01*
X141884061Y-91829501D01*
X141876793Y-91830419D01*
X141870976Y-91830876D01*
X141822436Y-91832402D01*
X141822425Y-91832404D01*
X141802049Y-91838323D01*
X141783008Y-91842266D01*
X141761953Y-91844926D01*
X141761937Y-91844930D01*
X141716771Y-91862812D01*
X141711244Y-91864704D01*
X141664599Y-91878256D01*
X141646327Y-91889062D01*
X141628861Y-91897619D01*
X141609128Y-91905432D01*
X141569830Y-91933983D01*
X141564953Y-91937186D01*
X141551281Y-91945272D01*
X141523132Y-91961920D01*
X141508126Y-91976926D01*
X141493336Y-91989558D01*
X141476167Y-92002032D01*
X141476165Y-92002034D01*
X141445194Y-92039470D01*
X141441262Y-92043791D01*
X135813409Y-97671643D01*
X135752086Y-97705128D01*
X135685467Y-97701244D01*
X135632113Y-97682928D01*
X135386835Y-97642000D01*
X135138165Y-97642000D01*
X134892883Y-97682929D01*
X134657697Y-97763669D01*
X134657688Y-97763672D01*
X134438993Y-97882024D01*
X134242757Y-98034761D01*
X134074333Y-98217717D01*
X133938326Y-98425893D01*
X133838436Y-98653618D01*
X133777392Y-98894675D01*
X133777390Y-98894687D01*
X133756857Y-99142494D01*
X133756857Y-99142505D01*
X133777390Y-99390312D01*
X133777392Y-99390324D01*
X133838436Y-99631381D01*
X133938326Y-99859106D01*
X134074333Y-100067282D01*
X134074336Y-100067285D01*
X134242756Y-100250238D01*
X134438991Y-100402974D01*
X134657690Y-100521328D01*
X134892886Y-100602071D01*
X135138165Y-100643000D01*
X135386835Y-100643000D01*
X135632114Y-100602071D01*
X135867310Y-100521328D01*
X136086009Y-100402974D01*
X136282244Y-100250238D01*
X136450664Y-100067285D01*
X136586673Y-99859107D01*
X136686563Y-99631381D01*
X136747608Y-99390321D01*
X136747609Y-99390312D01*
X136768143Y-99142505D01*
X136768143Y-99142494D01*
X136747609Y-98894687D01*
X136747608Y-98894683D01*
X136747608Y-98894679D01*
X136700780Y-98709760D01*
X136703404Y-98639942D01*
X136733302Y-98591642D01*
X142158126Y-93166819D01*
X142219450Y-93133334D01*
X142245808Y-93130500D01*
X152010715Y-93130500D01*
X152077754Y-93150185D01*
X152116442Y-93189710D01*
X152227449Y-93370857D01*
X152245694Y-93438303D01*
X152224578Y-93504905D01*
X152196034Y-93534913D01*
X152092452Y-93612455D01*
X152006206Y-93727664D01*
X152006202Y-93727671D01*
X151955908Y-93862517D01*
X151949501Y-93922116D01*
X151949501Y-93922123D01*
X151949500Y-93922135D01*
X151949500Y-94245500D01*
X151929815Y-94312539D01*
X151877011Y-94358294D01*
X151825500Y-94369500D01*
X149630504Y-94369500D01*
X149614493Y-94367732D01*
X149614471Y-94367974D01*
X149606704Y-94367240D01*
X149606703Y-94367240D01*
X149534796Y-94369500D01*
X149504075Y-94369500D01*
X149504071Y-94369500D01*
X149504061Y-94369501D01*
X149496793Y-94370419D01*
X149490976Y-94370876D01*
X149442435Y-94372402D01*
X149442424Y-94372404D01*
X149422048Y-94378323D01*
X149403008Y-94382266D01*
X149381947Y-94384927D01*
X149381939Y-94384929D01*
X149336775Y-94402811D01*
X149331247Y-94404703D01*
X149284602Y-94418255D01*
X149266332Y-94429060D01*
X149248863Y-94437618D01*
X149229128Y-94445432D01*
X149229126Y-94445433D01*
X149189839Y-94473977D01*
X149184956Y-94477184D01*
X149143132Y-94501919D01*
X149128126Y-94516926D01*
X149113336Y-94529558D01*
X149096167Y-94542032D01*
X149096165Y-94542034D01*
X149065194Y-94579470D01*
X149061262Y-94583791D01*
X145973409Y-97671643D01*
X145912086Y-97705128D01*
X145845467Y-97701244D01*
X145792113Y-97682928D01*
X145546835Y-97642000D01*
X145298165Y-97642000D01*
X145052883Y-97682929D01*
X144817697Y-97763669D01*
X144817688Y-97763672D01*
X144598993Y-97882024D01*
X144402757Y-98034761D01*
X144234333Y-98217717D01*
X144098326Y-98425893D01*
X143998436Y-98653618D01*
X143937392Y-98894675D01*
X143937390Y-98894687D01*
X143916857Y-99142494D01*
X143916857Y-99142505D01*
X143937390Y-99390312D01*
X143937392Y-99390324D01*
X143998436Y-99631381D01*
X144083125Y-99824451D01*
X144092028Y-99893751D01*
X144062051Y-99956863D01*
X144002711Y-99993750D01*
X143932850Y-99992700D01*
X143881888Y-99961942D01*
X142662934Y-98742988D01*
X142652861Y-98730414D01*
X142652674Y-98730570D01*
X142647701Y-98724559D01*
X142595256Y-98675310D01*
X142573535Y-98653589D01*
X142567740Y-98649094D01*
X142563298Y-98645299D01*
X142527896Y-98612054D01*
X142527888Y-98612048D01*
X142509292Y-98601825D01*
X142493031Y-98591144D01*
X142476263Y-98578137D01*
X142440848Y-98562812D01*
X142431678Y-98558843D01*
X142426456Y-98556286D01*
X142383868Y-98532873D01*
X142383865Y-98532872D01*
X142363301Y-98527592D01*
X142344896Y-98521290D01*
X142325427Y-98512865D01*
X142325421Y-98512863D01*
X142277451Y-98505266D01*
X142271736Y-98504082D01*
X142255272Y-98499855D01*
X142224680Y-98492000D01*
X142224677Y-98492000D01*
X142203455Y-98492000D01*
X142184055Y-98490473D01*
X142163096Y-98487153D01*
X142163095Y-98487153D01*
X142139286Y-98489403D01*
X142114730Y-98491725D01*
X142108892Y-98492000D01*
X141776337Y-98492000D01*
X141709298Y-98472315D01*
X141669938Y-98429884D01*
X141669478Y-98430186D01*
X141667714Y-98427487D01*
X141667286Y-98427025D01*
X141666673Y-98425893D01*
X141530666Y-98217717D01*
X141493853Y-98177728D01*
X141362244Y-98034762D01*
X141166009Y-97882026D01*
X141166007Y-97882025D01*
X141166006Y-97882024D01*
X140947311Y-97763672D01*
X140947302Y-97763669D01*
X140712116Y-97682929D01*
X140466835Y-97642000D01*
X140218165Y-97642000D01*
X139972883Y-97682929D01*
X139737697Y-97763669D01*
X139737688Y-97763672D01*
X139518993Y-97882024D01*
X139322757Y-98034761D01*
X139154333Y-98217717D01*
X139018326Y-98425893D01*
X138918436Y-98653618D01*
X138857392Y-98894675D01*
X138857390Y-98894687D01*
X138836857Y-99142494D01*
X138836857Y-99142505D01*
X138857390Y-99390312D01*
X138857392Y-99390324D01*
X138918436Y-99631381D01*
X139018326Y-99859106D01*
X139154333Y-100067282D01*
X139154336Y-100067285D01*
X139322756Y-100250238D01*
X139518991Y-100402974D01*
X139737690Y-100521328D01*
X139972886Y-100602071D01*
X140218165Y-100643000D01*
X140466835Y-100643000D01*
X140712114Y-100602071D01*
X140947310Y-100521328D01*
X141166009Y-100402974D01*
X141362244Y-100250238D01*
X141530664Y-100067285D01*
X141666673Y-99859107D01*
X141666675Y-99859101D01*
X141667286Y-99857975D01*
X141667657Y-99857601D01*
X141669478Y-99854814D01*
X141670051Y-99855188D01*
X141716509Y-99808388D01*
X141776337Y-99793000D01*
X141821692Y-99793000D01*
X141888731Y-99812685D01*
X141909373Y-99829319D01*
X143479564Y-101399510D01*
X143489635Y-101412080D01*
X143489822Y-101411926D01*
X143494796Y-101417937D01*
X143494798Y-101417940D01*
X143516460Y-101438282D01*
X143547243Y-101467190D01*
X143568966Y-101488912D01*
X143574758Y-101493405D01*
X143579198Y-101497198D01*
X143595260Y-101512280D01*
X143614607Y-101530448D01*
X143633198Y-101540668D01*
X143649463Y-101551352D01*
X143666234Y-101564361D01*
X143666237Y-101564363D01*
X143710827Y-101583658D01*
X143716056Y-101586220D01*
X143758632Y-101609627D01*
X143758640Y-101609629D01*
X143760101Y-101610208D01*
X143761082Y-101610973D01*
X143765470Y-101613386D01*
X143765080Y-101614093D01*
X143815186Y-101653190D01*
X143838288Y-101719130D01*
X143822074Y-101787092D01*
X143771690Y-101835499D01*
X143714452Y-101849500D01*
X139610504Y-101849500D01*
X139594493Y-101847732D01*
X139594471Y-101847974D01*
X139586704Y-101847240D01*
X139586703Y-101847240D01*
X139514796Y-101849500D01*
X139484075Y-101849500D01*
X139484071Y-101849500D01*
X139484061Y-101849501D01*
X139476793Y-101850419D01*
X139470976Y-101850876D01*
X139422435Y-101852402D01*
X139422424Y-101852404D01*
X139402048Y-101858323D01*
X139383008Y-101862266D01*
X139361947Y-101864927D01*
X139361939Y-101864929D01*
X139316775Y-101882811D01*
X139311247Y-101884703D01*
X139264602Y-101898255D01*
X139246332Y-101909060D01*
X139228863Y-101917618D01*
X139209128Y-101925432D01*
X139209126Y-101925433D01*
X139169839Y-101953977D01*
X139164956Y-101957184D01*
X139123132Y-101981919D01*
X139108126Y-101996926D01*
X139093336Y-102009558D01*
X139076167Y-102022032D01*
X139076165Y-102022034D01*
X139045194Y-102059470D01*
X139041262Y-102063791D01*
X135813409Y-105291643D01*
X135752086Y-105325128D01*
X135685467Y-105321244D01*
X135632113Y-105302928D01*
X135386835Y-105262000D01*
X135138165Y-105262000D01*
X134892883Y-105302929D01*
X134657697Y-105383669D01*
X134657688Y-105383672D01*
X134438993Y-105502024D01*
X134242757Y-105654761D01*
X134242756Y-105654762D01*
X134242420Y-105655127D01*
X134074333Y-105837717D01*
X133938326Y-106045893D01*
X133838436Y-106273618D01*
X133777392Y-106514675D01*
X133777390Y-106514687D01*
X133756857Y-106762494D01*
X133756857Y-106762505D01*
X127993700Y-106762505D01*
X127996128Y-106733198D01*
X127967453Y-106619962D01*
X127903564Y-106522173D01*
X127811385Y-106450428D01*
X127700905Y-106412500D01*
X127613495Y-106412500D01*
X127527284Y-106426886D01*
X127424553Y-106482481D01*
X127345440Y-106568421D01*
X127298518Y-106675392D01*
X127288872Y-106791802D01*
X124105673Y-106791802D01*
X124112499Y-106724986D01*
X124112500Y-106724973D01*
X124112500Y-106662500D01*
X123162500Y-106662500D01*
X122662500Y-106662500D01*
X121712501Y-106662500D01*
X118729244Y-106662500D01*
X118706291Y-106598187D01*
X118722110Y-106530132D01*
X118772211Y-106481433D01*
X118791086Y-106473390D01*
X118794334Y-106472314D01*
X118943656Y-106380212D01*
X119067712Y-106256156D01*
X119159814Y-106106834D01*
X119214999Y-105940297D01*
X119225500Y-105837509D01*
X119225499Y-105237492D01*
X119224428Y-105227011D01*
X119214999Y-105134703D01*
X119214998Y-105134700D01*
X119192174Y-105065823D01*
X119159814Y-104968166D01*
X119067712Y-104818844D01*
X118943656Y-104694788D01*
X118940819Y-104693038D01*
X118939283Y-104691330D01*
X118937989Y-104690307D01*
X118938163Y-104690085D01*
X118894096Y-104641094D01*
X118882872Y-104572132D01*
X118910713Y-104508049D01*
X118940817Y-104481962D01*
X118943656Y-104480212D01*
X119067712Y-104356156D01*
X119159814Y-104206834D01*
X119214999Y-104040297D01*
X119225500Y-103937509D01*
X119225499Y-103337492D01*
X119223290Y-103315872D01*
X119214999Y-103234703D01*
X119214998Y-103234700D01*
X119196058Y-103177544D01*
X119159814Y-103068166D01*
X119067712Y-102918844D01*
X118943656Y-102794788D01*
X118794334Y-102702686D01*
X118751715Y-102688563D01*
X118694271Y-102648791D01*
X118667448Y-102584275D01*
X118679763Y-102515499D01*
X118727306Y-102464299D01*
X118751716Y-102453151D01*
X118769334Y-102447314D01*
X118918656Y-102355212D01*
X119042712Y-102231156D01*
X119134814Y-102081834D01*
X119189999Y-101915297D01*
X119200500Y-101812509D01*
X119200499Y-101187492D01*
X119196614Y-101149464D01*
X119189999Y-101084703D01*
X119189998Y-101084700D01*
X119184784Y-101068965D01*
X119134814Y-100918166D01*
X119042712Y-100768844D01*
X118949048Y-100675180D01*
X118915564Y-100613856D01*
X118920548Y-100544165D01*
X118949045Y-100499822D01*
X119042712Y-100406156D01*
X119134814Y-100256834D01*
X119189999Y-100090297D01*
X119200500Y-99987509D01*
X119200499Y-99362492D01*
X119189999Y-99259703D01*
X119134814Y-99093166D01*
X119042712Y-98943844D01*
X118918656Y-98819788D01*
X118825888Y-98762569D01*
X118769336Y-98727687D01*
X118769335Y-98727686D01*
X118769334Y-98727686D01*
X118769328Y-98727684D01*
X118735494Y-98716472D01*
X118678050Y-98676699D01*
X118651228Y-98612183D01*
X118650500Y-98598767D01*
X118650500Y-98576232D01*
X118670185Y-98509193D01*
X118722989Y-98463438D01*
X118735495Y-98458526D01*
X118769334Y-98447314D01*
X118918656Y-98355212D01*
X119042712Y-98231156D01*
X119134814Y-98081834D01*
X119189999Y-97915297D01*
X119200500Y-97812509D01*
X119200500Y-97750000D01*
X120400001Y-97750000D01*
X120400001Y-97773322D01*
X120410144Y-97872607D01*
X120463452Y-98033481D01*
X120463457Y-98033492D01*
X120552424Y-98177728D01*
X120552427Y-98177732D01*
X120672267Y-98297572D01*
X120672271Y-98297575D01*
X120816507Y-98386542D01*
X120816518Y-98386547D01*
X120977393Y-98439855D01*
X121076683Y-98449999D01*
X121249999Y-98449999D01*
X121250000Y-98449998D01*
X121250000Y-97750000D01*
X120400001Y-97750000D01*
X119200500Y-97750000D01*
X119200499Y-97250000D01*
X120400000Y-97250000D01*
X121250000Y-97250000D01*
X121250000Y-97249999D01*
X121249999Y-96550000D01*
X121076693Y-96550000D01*
X121076676Y-96550001D01*
X120977392Y-96560144D01*
X120816518Y-96613452D01*
X120816507Y-96613457D01*
X120672271Y-96702424D01*
X120672267Y-96702427D01*
X120552427Y-96822267D01*
X120552424Y-96822271D01*
X120463457Y-96966507D01*
X120463452Y-96966518D01*
X120410144Y-97127393D01*
X120400000Y-97226677D01*
X120400000Y-97250000D01*
X119200499Y-97250000D01*
X119200499Y-97187492D01*
X119189999Y-97084703D01*
X119134814Y-96918166D01*
X119042712Y-96768844D01*
X118948694Y-96674827D01*
X118915210Y-96613504D01*
X118920194Y-96543812D01*
X118948695Y-96499464D01*
X119042317Y-96405842D01*
X119134356Y-96256624D01*
X119134358Y-96256619D01*
X119189505Y-96090197D01*
X119189506Y-96090190D01*
X119199999Y-95987486D01*
X119200000Y-95987473D01*
X119200000Y-95925000D01*
X116800001Y-95925000D01*
X116800001Y-95987486D01*
X116810494Y-96090197D01*
X116865641Y-96256619D01*
X116865643Y-96256624D01*
X116957684Y-96405845D01*
X117051304Y-96499465D01*
X117084789Y-96560788D01*
X117079805Y-96630480D01*
X117051305Y-96674827D01*
X116957287Y-96768845D01*
X116865187Y-96918163D01*
X116865185Y-96918166D01*
X116865186Y-96918166D01*
X116810001Y-97084703D01*
X116810001Y-97084704D01*
X116810000Y-97084704D01*
X116799500Y-97187483D01*
X116799500Y-97812501D01*
X116799501Y-97812519D01*
X116810000Y-97915296D01*
X116810001Y-97915299D01*
X116865185Y-98081831D01*
X116865187Y-98081836D01*
X116876242Y-98099759D01*
X116957288Y-98231156D01*
X117081344Y-98355212D01*
X117230666Y-98447314D01*
X117230668Y-98447315D01*
X117249110Y-98453425D01*
X117264500Y-98458525D01*
X117321946Y-98498296D01*
X117348771Y-98562812D01*
X117349499Y-98576232D01*
X117349499Y-98598767D01*
X117329814Y-98665806D01*
X117277010Y-98711561D01*
X117264506Y-98716472D01*
X117230669Y-98727684D01*
X117230659Y-98727689D01*
X117127953Y-98791039D01*
X117062857Y-98809500D01*
X114019896Y-98809500D01*
X113952857Y-98789815D01*
X113907102Y-98737011D01*
X113897158Y-98667853D01*
X113913164Y-98622379D01*
X113926281Y-98600198D01*
X113972100Y-98442486D01*
X113972295Y-98440001D01*
X113972295Y-98440000D01*
X112374000Y-98440000D01*
X112306961Y-98420315D01*
X112261206Y-98367511D01*
X112250000Y-98316000D01*
X112250000Y-97390000D01*
X112750000Y-97390000D01*
X112750000Y-97940000D01*
X113972295Y-97940000D01*
X113972295Y-97939998D01*
X113972100Y-97937513D01*
X113926281Y-97779801D01*
X113842685Y-97638447D01*
X113842678Y-97638438D01*
X113726561Y-97522321D01*
X113726552Y-97522314D01*
X113585196Y-97438717D01*
X113585193Y-97438716D01*
X113427495Y-97392900D01*
X113427489Y-97392899D01*
X113390644Y-97390000D01*
X112750000Y-97390000D01*
X112250000Y-97390000D01*
X112235318Y-97375318D01*
X112201833Y-97313995D01*
X112206817Y-97244303D01*
X112235315Y-97199960D01*
X114548456Y-94886819D01*
X114609780Y-94853334D01*
X114636138Y-94850500D01*
X116793276Y-94850500D01*
X116860315Y-94870185D01*
X116906070Y-94922989D01*
X116916014Y-94992147D01*
X116898815Y-95039597D01*
X116865643Y-95093375D01*
X116865641Y-95093380D01*
X116810494Y-95259802D01*
X116810493Y-95259809D01*
X116800000Y-95362513D01*
X116800000Y-95425000D01*
X119199999Y-95425000D01*
X119199999Y-95362528D01*
X119199998Y-95362513D01*
X119189505Y-95259802D01*
X119134358Y-95093380D01*
X119134356Y-95093375D01*
X119101185Y-95039597D01*
X119082745Y-94972205D01*
X119103667Y-94905541D01*
X119157309Y-94860771D01*
X119206724Y-94850500D01*
X120473126Y-94850500D01*
X120540165Y-94870185D01*
X120560807Y-94886819D01*
X120671955Y-94997967D01*
X120671959Y-94997970D01*
X120816294Y-95086998D01*
X120816297Y-95086999D01*
X120816303Y-95087003D01*
X120977292Y-95140349D01*
X121076655Y-95150500D01*
X121479191Y-95150499D01*
X121546230Y-95170183D01*
X121566871Y-95186818D01*
X122250682Y-95870628D01*
X122284166Y-95931949D01*
X122287000Y-95958307D01*
X122287000Y-96476035D01*
X122267315Y-96543074D01*
X122214511Y-96588829D01*
X122145353Y-96598773D01*
X122123996Y-96593741D01*
X122022606Y-96560144D01*
X121923322Y-96550000D01*
X121750000Y-96550000D01*
X121750000Y-98449999D01*
X121923308Y-98449999D01*
X121923322Y-98449998D01*
X122022605Y-98439856D01*
X122123995Y-98406258D01*
X122193823Y-98403856D01*
X122253866Y-98439587D01*
X122285059Y-98502107D01*
X122287000Y-98523964D01*
X122287000Y-99009529D01*
X122267315Y-99076568D01*
X122214511Y-99122323D01*
X122202008Y-99127233D01*
X122188318Y-99131770D01*
X122164571Y-99139639D01*
X122016500Y-99230971D01*
X122016496Y-99230974D01*
X121893474Y-99353996D01*
X121893471Y-99354000D01*
X121802142Y-99502066D01*
X121802137Y-99502077D01*
X121747413Y-99667223D01*
X121737000Y-99769144D01*
X121737000Y-100355855D01*
X121747413Y-100457776D01*
X121802137Y-100622922D01*
X121802142Y-100622933D01*
X121893471Y-100770999D01*
X121893474Y-100771003D01*
X122016496Y-100894025D01*
X122016500Y-100894028D01*
X122017203Y-100894462D01*
X122017583Y-100894885D01*
X122022164Y-100898507D01*
X122021545Y-100899289D01*
X122063928Y-100946410D01*
X122075149Y-101015372D01*
X122047306Y-101079454D01*
X122022044Y-101101342D01*
X122022164Y-101101493D01*
X122018815Y-101104140D01*
X122017203Y-101105538D01*
X122016500Y-101105971D01*
X122016496Y-101105974D01*
X121893474Y-101228996D01*
X121893471Y-101229000D01*
X121802142Y-101377066D01*
X121802137Y-101377077D01*
X121747413Y-101542223D01*
X121737000Y-101644144D01*
X121737000Y-102230855D01*
X121747413Y-102332776D01*
X121802137Y-102497922D01*
X121802142Y-102497933D01*
X121893471Y-102645999D01*
X121893474Y-102646003D01*
X122016496Y-102769025D01*
X122016500Y-102769028D01*
X122164566Y-102860357D01*
X122164569Y-102860358D01*
X122164575Y-102860362D01*
X122202003Y-102872764D01*
X122259448Y-102912537D01*
X122286271Y-102977053D01*
X122286999Y-102990470D01*
X122287000Y-103502983D01*
X122267316Y-103570022D01*
X122214512Y-103615777D01*
X122202010Y-103620686D01*
X122152008Y-103637256D01*
X122143166Y-103640186D01*
X122143163Y-103640187D01*
X121993842Y-103732289D01*
X121869789Y-103856342D01*
X121777687Y-104005663D01*
X121777685Y-104005668D01*
X121760893Y-104056344D01*
X121722501Y-104172203D01*
X121722501Y-104172204D01*
X121722500Y-104172204D01*
X121712000Y-104274983D01*
X121712000Y-104900001D01*
X121712001Y-104900019D01*
X121722500Y-105002796D01*
X121722501Y-105002799D01*
X121759424Y-105114223D01*
X121777686Y-105169334D01*
X121868868Y-105317165D01*
X121869789Y-105318657D01*
X121963804Y-105412672D01*
X121997289Y-105473995D01*
X121992305Y-105543687D01*
X121963805Y-105588034D01*
X121870182Y-105681657D01*
X121778143Y-105830875D01*
X121778141Y-105830880D01*
X121722994Y-105997302D01*
X121722993Y-105997309D01*
X121712500Y-106100013D01*
X121712500Y-106162500D01*
X124112499Y-106162500D01*
X124112499Y-106100028D01*
X124112498Y-106100013D01*
X124102005Y-105997302D01*
X124046858Y-105830880D01*
X124046856Y-105830875D01*
X123975181Y-105714672D01*
X126142499Y-105714672D01*
X126142500Y-106512500D01*
X127392500Y-106512500D01*
X127392500Y-105262500D01*
X127892500Y-105262500D01*
X127892500Y-106512500D01*
X129142500Y-106512500D01*
X129142499Y-105714672D01*
X129142499Y-105714655D01*
X129136098Y-105655127D01*
X129136096Y-105655120D01*
X129085854Y-105520413D01*
X129085850Y-105520406D01*
X128999690Y-105405312D01*
X128999687Y-105405309D01*
X128884593Y-105319149D01*
X128884586Y-105319145D01*
X128749879Y-105268903D01*
X128749872Y-105268901D01*
X128690344Y-105262500D01*
X127892500Y-105262500D01*
X127392500Y-105262500D01*
X126594655Y-105262500D01*
X126535127Y-105268901D01*
X126535120Y-105268903D01*
X126400413Y-105319145D01*
X126400406Y-105319149D01*
X126285312Y-105405309D01*
X126285309Y-105405312D01*
X126199149Y-105520406D01*
X126199145Y-105520413D01*
X126148903Y-105655120D01*
X126148901Y-105655127D01*
X126142500Y-105714655D01*
X126142499Y-105714672D01*
X123975181Y-105714672D01*
X123954815Y-105681654D01*
X123861195Y-105588034D01*
X123827710Y-105526711D01*
X123832694Y-105457019D01*
X123861191Y-105412676D01*
X123955212Y-105318656D01*
X124047314Y-105169334D01*
X124102499Y-105002797D01*
X124113000Y-104900009D01*
X124112999Y-104274992D01*
X124102499Y-104172203D01*
X124047314Y-104005666D01*
X123955212Y-103856344D01*
X123831156Y-103732288D01*
X123681834Y-103640186D01*
X123681833Y-103640185D01*
X123681832Y-103640185D01*
X123672993Y-103637256D01*
X123615549Y-103597482D01*
X123588728Y-103532965D01*
X123588000Y-103519551D01*
X123588000Y-102990470D01*
X123607685Y-102923431D01*
X123660489Y-102877676D01*
X123672993Y-102872765D01*
X123710425Y-102860362D01*
X123858503Y-102769026D01*
X123981526Y-102646003D01*
X124072862Y-102497925D01*
X124127587Y-102332775D01*
X124138000Y-102230848D01*
X124138000Y-101644152D01*
X124127587Y-101542225D01*
X124072862Y-101377075D01*
X124072858Y-101377069D01*
X124072857Y-101377066D01*
X123981528Y-101229000D01*
X123981525Y-101228996D01*
X123858504Y-101105975D01*
X123858503Y-101105974D01*
X123857801Y-101105541D01*
X123857421Y-101105118D01*
X123852836Y-101101493D01*
X123853455Y-101100709D01*
X123811075Y-101053598D01*
X123799849Y-100984636D01*
X123827688Y-100920552D01*
X123852955Y-100898657D01*
X123852836Y-100898507D01*
X123856187Y-100895856D01*
X123857799Y-100894459D01*
X123858503Y-100894026D01*
X123981526Y-100771003D01*
X124072862Y-100622925D01*
X124127587Y-100457775D01*
X124138000Y-100355848D01*
X124138000Y-99916999D01*
X124157685Y-99849961D01*
X124210489Y-99804206D01*
X124262000Y-99793000D01*
X126208663Y-99793000D01*
X126275702Y-99812685D01*
X126315061Y-99855115D01*
X126315522Y-99854814D01*
X126317285Y-99857512D01*
X126317714Y-99857975D01*
X126318326Y-99859106D01*
X126454333Y-100067282D01*
X126454336Y-100067285D01*
X126622756Y-100250238D01*
X126818991Y-100402974D01*
X127037690Y-100521328D01*
X127272886Y-100602071D01*
X127518165Y-100643000D01*
X127766835Y-100643000D01*
X128012114Y-100602071D01*
X128247310Y-100521328D01*
X128466009Y-100402974D01*
X128662244Y-100250238D01*
X128830664Y-100067285D01*
X128966673Y-99859107D01*
X129066563Y-99631381D01*
X129127608Y-99390321D01*
X129127609Y-99390312D01*
X129148143Y-99142505D01*
X129148143Y-99142494D01*
X129127609Y-98894687D01*
X129127607Y-98894675D01*
X129066563Y-98653618D01*
X128966673Y-98425893D01*
X128830666Y-98217717D01*
X128793853Y-98177728D01*
X128662244Y-98034762D01*
X128466009Y-97882026D01*
X128466007Y-97882025D01*
X128466006Y-97882024D01*
X128247311Y-97763672D01*
X128247302Y-97763669D01*
X128012116Y-97682929D01*
X127766835Y-97642000D01*
X127518165Y-97642000D01*
X127272883Y-97682929D01*
X127037697Y-97763669D01*
X127037688Y-97763672D01*
X126818993Y-97882024D01*
X126622757Y-98034761D01*
X126454333Y-98217717D01*
X126318326Y-98425893D01*
X126317714Y-98427025D01*
X126317342Y-98427398D01*
X126315522Y-98430186D01*
X126314948Y-98429811D01*
X126268491Y-98476612D01*
X126208663Y-98492000D01*
X123943004Y-98492000D01*
X123926993Y-98490232D01*
X123926971Y-98490474D01*
X123919204Y-98489740D01*
X123919203Y-98489740D01*
X123847296Y-98492000D01*
X123816575Y-98492000D01*
X123816571Y-98492000D01*
X123816561Y-98492001D01*
X123809293Y-98492919D01*
X123803476Y-98493376D01*
X123754935Y-98494902D01*
X123754931Y-98494902D01*
X123754930Y-98494903D01*
X123746585Y-98497326D01*
X123676717Y-98497123D01*
X123618050Y-98459177D01*
X123589210Y-98395537D01*
X123587999Y-98378261D01*
X123587999Y-95723009D01*
X123589767Y-95706994D01*
X123589525Y-95706972D01*
X123590258Y-95699212D01*
X123590260Y-95699204D01*
X123588000Y-95627296D01*
X123588000Y-95596575D01*
X123587079Y-95589288D01*
X123586622Y-95583479D01*
X123585097Y-95534931D01*
X123579176Y-95514553D01*
X123575231Y-95495504D01*
X123572571Y-95474442D01*
X123554685Y-95429269D01*
X123552796Y-95423749D01*
X123539243Y-95377100D01*
X123528440Y-95358834D01*
X123519878Y-95341356D01*
X123512068Y-95321629D01*
X123512065Y-95321625D01*
X123483514Y-95282327D01*
X123480311Y-95277451D01*
X123455581Y-95235635D01*
X123455579Y-95235633D01*
X123455578Y-95235631D01*
X123440575Y-95220629D01*
X123427935Y-95205830D01*
X123415461Y-95188660D01*
X123378028Y-95157694D01*
X123373706Y-95153760D01*
X122636818Y-94416872D01*
X122603333Y-94355549D01*
X122600499Y-94329191D01*
X122600499Y-94139844D01*
X122600499Y-93926656D01*
X122600372Y-93925416D01*
X122590349Y-93827292D01*
X122590348Y-93827289D01*
X122557337Y-93727669D01*
X122537003Y-93666303D01*
X122536999Y-93666297D01*
X122536998Y-93666294D01*
X122447970Y-93521959D01*
X122447967Y-93521955D01*
X122328044Y-93402032D01*
X122328040Y-93402029D01*
X122183705Y-93313001D01*
X122183699Y-93312998D01*
X122183697Y-93312997D01*
X122152381Y-93302620D01*
X122022709Y-93259651D01*
X121923346Y-93249500D01*
X121076662Y-93249500D01*
X121076644Y-93249501D01*
X120977292Y-93259650D01*
X120977289Y-93259651D01*
X120816305Y-93312996D01*
X120816294Y-93313001D01*
X120671959Y-93402029D01*
X120671955Y-93402032D01*
X120560807Y-93513181D01*
X120499484Y-93546666D01*
X120473126Y-93549500D01*
X114400834Y-93549500D01*
X114384823Y-93547732D01*
X114384801Y-93547974D01*
X114377034Y-93547240D01*
X114377033Y-93547240D01*
X114305126Y-93549500D01*
X114274405Y-93549500D01*
X114274401Y-93549500D01*
X114274391Y-93549501D01*
X114267123Y-93550419D01*
X114261306Y-93550876D01*
X114212766Y-93552402D01*
X114212755Y-93552404D01*
X114192379Y-93558323D01*
X114173338Y-93562266D01*
X114152283Y-93564926D01*
X114152267Y-93564930D01*
X114107106Y-93582810D01*
X114101580Y-93584702D01*
X114054932Y-93598255D01*
X114036662Y-93609060D01*
X114019193Y-93617618D01*
X113999458Y-93625432D01*
X113999456Y-93625433D01*
X113960169Y-93653977D01*
X113955286Y-93657184D01*
X113913462Y-93681919D01*
X113898456Y-93696926D01*
X113883666Y-93709558D01*
X113866497Y-93722032D01*
X113866495Y-93722034D01*
X113835524Y-93759470D01*
X113831592Y-93763791D01*
X109237181Y-98358201D01*
X109175858Y-98391686D01*
X109106166Y-98386702D01*
X109050233Y-98344830D01*
X109025816Y-98279366D01*
X109025500Y-98270520D01*
X109025500Y-97974304D01*
X109022598Y-97937432D01*
X109022597Y-97937426D01*
X108976745Y-97779606D01*
X108976744Y-97779603D01*
X108976744Y-97779602D01*
X108893081Y-97638135D01*
X108893079Y-97638133D01*
X108893076Y-97638129D01*
X108776870Y-97521923D01*
X108776862Y-97521917D01*
X108698681Y-97475681D01*
X108635398Y-97438256D01*
X108635397Y-97438255D01*
X108635396Y-97438255D01*
X108635393Y-97438254D01*
X108477573Y-97392402D01*
X108477567Y-97392401D01*
X108440696Y-97389500D01*
X108440694Y-97389500D01*
X106659306Y-97389500D01*
X106659304Y-97389500D01*
X106622432Y-97392401D01*
X106622426Y-97392402D01*
X106464606Y-97438254D01*
X106464603Y-97438255D01*
X106322605Y-97522232D01*
X106259484Y-97539500D01*
X105962274Y-97539500D01*
X105895235Y-97519815D01*
X105870124Y-97498472D01*
X105805870Y-97427111D01*
X105652734Y-97315851D01*
X105652729Y-97315848D01*
X105479807Y-97238857D01*
X105479802Y-97238855D01*
X105334001Y-97207865D01*
X105294646Y-97199500D01*
X105105354Y-97199500D01*
X105072897Y-97206398D01*
X104920197Y-97238855D01*
X104920192Y-97238857D01*
X104747270Y-97315848D01*
X104747265Y-97315851D01*
X104594129Y-97427111D01*
X104467466Y-97567785D01*
X104372821Y-97731715D01*
X104372818Y-97731722D01*
X104323982Y-97882026D01*
X104314326Y-97911744D01*
X104294540Y-98100000D01*
X104314326Y-98288256D01*
X104314327Y-98288259D01*
X104372818Y-98468277D01*
X104372821Y-98468284D01*
X104467467Y-98632216D01*
X104575350Y-98752032D01*
X104594129Y-98772888D01*
X104747265Y-98884148D01*
X104747270Y-98884151D01*
X104920192Y-98961142D01*
X104920197Y-98961144D01*
X105105354Y-99000500D01*
X105105355Y-99000500D01*
X105294644Y-99000500D01*
X105294646Y-99000500D01*
X105479803Y-98961144D01*
X105652730Y-98884151D01*
X105674988Y-98867980D01*
X105680216Y-98864182D01*
X105746022Y-98840702D01*
X105753101Y-98840500D01*
X105990191Y-98840500D01*
X106057230Y-98860185D01*
X106102985Y-98912989D01*
X106112929Y-98982147D01*
X106083904Y-99045703D01*
X106077872Y-99052181D01*
X102650483Y-102479569D01*
X102637910Y-102489643D01*
X102638065Y-102489830D01*
X102632059Y-102494798D01*
X102612620Y-102515499D01*
X102582809Y-102547244D01*
X102571949Y-102558104D01*
X102561088Y-102568965D01*
X102561078Y-102568977D01*
X102556587Y-102574765D01*
X102552801Y-102579197D01*
X102519552Y-102614606D01*
X102509322Y-102633213D01*
X102498646Y-102649464D01*
X102485640Y-102666232D01*
X102485636Y-102666238D01*
X102466348Y-102710811D01*
X102463777Y-102716058D01*
X102440372Y-102758630D01*
X102440372Y-102758631D01*
X102435091Y-102779199D01*
X102428791Y-102797601D01*
X102420364Y-102817073D01*
X102412766Y-102865047D01*
X102411581Y-102870770D01*
X102399500Y-102917818D01*
X102399500Y-102939044D01*
X102397973Y-102958444D01*
X102394652Y-102979403D01*
X102399224Y-103027766D01*
X102399499Y-103033603D01*
X102399499Y-103650500D01*
X102379814Y-103717539D01*
X102327010Y-103763294D01*
X102275499Y-103774500D01*
X101799998Y-103774500D01*
X101799980Y-103774501D01*
X101697203Y-103785000D01*
X101697200Y-103785001D01*
X101530668Y-103840185D01*
X101530663Y-103840187D01*
X101381342Y-103932289D01*
X101257289Y-104056342D01*
X101165187Y-104205663D01*
X101165186Y-104205666D01*
X101161956Y-104215415D01*
X101145689Y-104264505D01*
X101105916Y-104321949D01*
X101041400Y-104348772D01*
X101027983Y-104349500D01*
X100161668Y-104349500D01*
X100094629Y-104329815D01*
X100056130Y-104290597D01*
X100042714Y-104268847D01*
X100042711Y-104268843D01*
X99918657Y-104144789D01*
X99918656Y-104144788D01*
X99802192Y-104072953D01*
X99769336Y-104052687D01*
X99769331Y-104052685D01*
X99735492Y-104041472D01*
X99602797Y-103997501D01*
X99602795Y-103997500D01*
X99500010Y-103987000D01*
X98499998Y-103987000D01*
X98499980Y-103987001D01*
X98397203Y-103997500D01*
X98397200Y-103997501D01*
X98230668Y-104052685D01*
X98230663Y-104052687D01*
X98081342Y-104144789D01*
X97957288Y-104268843D01*
X97957285Y-104268847D01*
X97943870Y-104290597D01*
X97891922Y-104337322D01*
X97838332Y-104349500D01*
X96885504Y-104349500D01*
X96869493Y-104347732D01*
X96869471Y-104347974D01*
X96861704Y-104347240D01*
X96861703Y-104347240D01*
X96789796Y-104349500D01*
X96759075Y-104349500D01*
X96759071Y-104349500D01*
X96759061Y-104349501D01*
X96751793Y-104350419D01*
X96745976Y-104350876D01*
X96697435Y-104352402D01*
X96697424Y-104352404D01*
X96677048Y-104358323D01*
X96658008Y-104362266D01*
X96636947Y-104364927D01*
X96636939Y-104364929D01*
X96591775Y-104382811D01*
X96586247Y-104384703D01*
X96539602Y-104398255D01*
X96521332Y-104409060D01*
X96503863Y-104417618D01*
X96484128Y-104425432D01*
X96484126Y-104425433D01*
X96444839Y-104453977D01*
X96439956Y-104457184D01*
X96398132Y-104481919D01*
X96383126Y-104496926D01*
X96368336Y-104509558D01*
X96351167Y-104522032D01*
X96351165Y-104522034D01*
X96320194Y-104559470D01*
X96316262Y-104563791D01*
X95066873Y-105813181D01*
X95005550Y-105846666D01*
X94979192Y-105849500D01*
X93489285Y-105849500D01*
X93422246Y-105829815D01*
X93383558Y-105790290D01*
X93272288Y-105608714D01*
X93254043Y-105541268D01*
X93275159Y-105474666D01*
X93303704Y-105444657D01*
X93407190Y-105367186D01*
X93493350Y-105252093D01*
X93493354Y-105252086D01*
X93543596Y-105117379D01*
X93543598Y-105117372D01*
X93549999Y-105057844D01*
X93550000Y-105057827D01*
X93550000Y-104210000D01*
X92494852Y-104210000D01*
X92543559Y-104072953D01*
X92553877Y-103922114D01*
X92523116Y-103774085D01*
X92489910Y-103710000D01*
X93550000Y-103710000D01*
X93550000Y-102862172D01*
X93549999Y-102862155D01*
X93543598Y-102802627D01*
X93543596Y-102802620D01*
X93493354Y-102667913D01*
X93493350Y-102667906D01*
X93407190Y-102552812D01*
X93407187Y-102552809D01*
X93292093Y-102466649D01*
X93292086Y-102466645D01*
X93157379Y-102416403D01*
X93157372Y-102416401D01*
X93097844Y-102410000D01*
X92250000Y-102410000D01*
X92250000Y-103468316D01*
X92221181Y-103450791D01*
X92075596Y-103410000D01*
X91962378Y-103410000D01*
X91850217Y-103425416D01*
X91750000Y-103468946D01*
X91750000Y-102410000D01*
X90902155Y-102410000D01*
X90842627Y-102416401D01*
X90842620Y-102416403D01*
X90707913Y-102466645D01*
X90707906Y-102466649D01*
X90592812Y-102552809D01*
X90592809Y-102552812D01*
X90506649Y-102667906D01*
X90506645Y-102667913D01*
X90456403Y-102802620D01*
X90456401Y-102802627D01*
X90450000Y-102862155D01*
X90450000Y-103710000D01*
X91505148Y-103710000D01*
X91456441Y-103847047D01*
X91446123Y-103997886D01*
X91476884Y-104145915D01*
X91510090Y-104210000D01*
X90450000Y-104210000D01*
X90450000Y-105057844D01*
X90456401Y-105117372D01*
X90456403Y-105117379D01*
X90506645Y-105252086D01*
X90506649Y-105252093D01*
X90592809Y-105367187D01*
X90592812Y-105367190D01*
X90696295Y-105444658D01*
X90738166Y-105500592D01*
X90743150Y-105570283D01*
X90727711Y-105608714D01*
X90614222Y-105793910D01*
X90520830Y-106019380D01*
X90463853Y-106256702D01*
X90444706Y-106500000D01*
X81050500Y-106500000D01*
X81050500Y-97000000D01*
X90444706Y-97000000D01*
X90463853Y-97243297D01*
X90463853Y-97243300D01*
X90463854Y-97243302D01*
X90510769Y-97438716D01*
X90520830Y-97480619D01*
X90614222Y-97706089D01*
X90741737Y-97914173D01*
X90741738Y-97914176D01*
X90793094Y-97974306D01*
X90900241Y-98099759D01*
X90991536Y-98177732D01*
X91085823Y-98258261D01*
X91085826Y-98258262D01*
X91293910Y-98385777D01*
X91519381Y-98479169D01*
X91519378Y-98479169D01*
X91519384Y-98479170D01*
X91519388Y-98479172D01*
X91756698Y-98536146D01*
X92000000Y-98555294D01*
X92243302Y-98536146D01*
X92480612Y-98479172D01*
X92706089Y-98385777D01*
X92914179Y-98258259D01*
X93099759Y-98099759D01*
X93258259Y-97914179D01*
X93385777Y-97706089D01*
X93479172Y-97480612D01*
X93536146Y-97243302D01*
X93555294Y-97000000D01*
X93536146Y-96756698D01*
X93479172Y-96519388D01*
X93476856Y-96513796D01*
X93385777Y-96293910D01*
X93272288Y-96108714D01*
X93254043Y-96041268D01*
X93275159Y-95974666D01*
X93303704Y-95944657D01*
X93407190Y-95867186D01*
X93493350Y-95752093D01*
X93493354Y-95752086D01*
X93543596Y-95617379D01*
X93543598Y-95617372D01*
X93549999Y-95557844D01*
X93550000Y-95557827D01*
X93550000Y-94710000D01*
X92494852Y-94710000D01*
X92543559Y-94572953D01*
X92553877Y-94422114D01*
X92523116Y-94274085D01*
X92489910Y-94210000D01*
X93550000Y-94210000D01*
X93550000Y-93362172D01*
X93549999Y-93362155D01*
X93543598Y-93302627D01*
X93543596Y-93302620D01*
X93493354Y-93167913D01*
X93493350Y-93167906D01*
X93407190Y-93052812D01*
X93407187Y-93052809D01*
X93292093Y-92966649D01*
X93292086Y-92966645D01*
X93157379Y-92916403D01*
X93157372Y-92916401D01*
X93097844Y-92910000D01*
X92250000Y-92910000D01*
X92250000Y-93968316D01*
X92221181Y-93950791D01*
X92075596Y-93910000D01*
X91962378Y-93910000D01*
X91850217Y-93925416D01*
X91750000Y-93968946D01*
X91750000Y-92910000D01*
X90902155Y-92910000D01*
X90842627Y-92916401D01*
X90842620Y-92916403D01*
X90707913Y-92966645D01*
X90707906Y-92966649D01*
X90592812Y-93052809D01*
X90592809Y-93052812D01*
X90506649Y-93167906D01*
X90506645Y-93167913D01*
X90456403Y-93302620D01*
X90456401Y-93302627D01*
X90450000Y-93362155D01*
X90450000Y-94210000D01*
X91505148Y-94210000D01*
X91456441Y-94347047D01*
X91446123Y-94497886D01*
X91476884Y-94645915D01*
X91510090Y-94710000D01*
X90450000Y-94710000D01*
X90450000Y-95557844D01*
X90456401Y-95617372D01*
X90456403Y-95617379D01*
X90506645Y-95752086D01*
X90506649Y-95752093D01*
X90592809Y-95867187D01*
X90592812Y-95867190D01*
X90696295Y-95944658D01*
X90738166Y-96000592D01*
X90743150Y-96070283D01*
X90727711Y-96108714D01*
X90614222Y-96293910D01*
X90520830Y-96519380D01*
X90463853Y-96756702D01*
X90444706Y-97000000D01*
X81050500Y-97000000D01*
X81050500Y-91845845D01*
X81070185Y-91778806D01*
X81122989Y-91733051D01*
X81192147Y-91723107D01*
X81255703Y-91752132D01*
X81277133Y-91776258D01*
X81313232Y-91829500D01*
X81403015Y-91961920D01*
X81408498Y-91970006D01*
X81408505Y-91970016D01*
X81635028Y-92236698D01*
X81636686Y-92238650D01*
X81892580Y-92481046D01*
X82173182Y-92694354D01*
X82475202Y-92876074D01*
X82475206Y-92876075D01*
X82475210Y-92876078D01*
X82795088Y-93024070D01*
X82795092Y-93024070D01*
X82795099Y-93024074D01*
X83129122Y-93136619D01*
X83473355Y-93212391D01*
X83823763Y-93250500D01*
X83823769Y-93250500D01*
X84176231Y-93250500D01*
X84176237Y-93250500D01*
X84526645Y-93212391D01*
X84870878Y-93136619D01*
X85204901Y-93024074D01*
X85204908Y-93024070D01*
X85204911Y-93024070D01*
X85524789Y-92876078D01*
X85524798Y-92876074D01*
X85826818Y-92694354D01*
X86107420Y-92481046D01*
X86363314Y-92238650D01*
X86591501Y-91970008D01*
X86789305Y-91678269D01*
X86954407Y-91366854D01*
X87084871Y-91039414D01*
X87095585Y-91000828D01*
X87116720Y-90924706D01*
X87179168Y-90699788D01*
X87236191Y-90351957D01*
X87255274Y-90000000D01*
X87236191Y-89648043D01*
X87179168Y-89300212D01*
X87136704Y-89147271D01*
X87084873Y-88960591D01*
X87084872Y-88960589D01*
X86954411Y-88633155D01*
X86954402Y-88633137D01*
X86949500Y-88623890D01*
X86789305Y-88321731D01*
X86591501Y-88029992D01*
X86591497Y-88029987D01*
X86591494Y-88029983D01*
X86363314Y-87761350D01*
X86107420Y-87518954D01*
X86107413Y-87518948D01*
X86107410Y-87518946D01*
X85826815Y-87305644D01*
X85524802Y-87123928D01*
X85524789Y-87123921D01*
X85336996Y-87037039D01*
X85284418Y-86991025D01*
X85265064Y-86923889D01*
X85285078Y-86856948D01*
X85338107Y-86811453D01*
X85389062Y-86800500D01*
X162610938Y-86800500D01*
X162677977Y-86820185D01*
G37*
G04 #@! TD.AperFunction*
M02*
