%TF.GenerationSoftware,KiCad,Pcbnew,7.0.6-0*%
%TF.CreationDate,2023-08-27T09:50:55-04:00*%
%TF.ProjectId,edge triggered monostable,65646765-2074-4726-9967-676572656420,1.0*%
%TF.SameCoordinates,Original*%
%TF.FileFunction,Drillmap*%
%TF.FilePolarity,Positive*%
%FSLAX45Y45*%
G04 Gerber Fmt 4.5, Leading zero omitted, Abs format (unit mm)*
G04 Created by KiCad (PCBNEW 7.0.6-0) date 2023-08-27 09:50:55*
%MOMM*%
%LPD*%
G01*
G04 APERTURE LIST*
%ADD10C,0.100000*%
%ADD11C,0.200000*%
%ADD12C,0.250000*%
G04 APERTURE END LIST*
D10*
X8075000Y-11450000D02*
X8250000Y-11450000D01*
X8075000Y-8650000D02*
X8075000Y-11450000D01*
X8250000Y-8650000D02*
X8075000Y-8650000D01*
X16750000Y-8650000D02*
X16450000Y-8650000D01*
X16750000Y-11450000D02*
X16750000Y-8650000D01*
X16450000Y-11450000D02*
X16750000Y-11450000D01*
X16450000Y-11450000D02*
X8250000Y-11450000D01*
X8250000Y-8650000D02*
X16450000Y-8650000D01*
D11*
D12*
X8275000Y-8875000D02*
X8525000Y-9125000D01*
X8525000Y-8875000D02*
X8275000Y-9125000D01*
X8275000Y-10975000D02*
X8525000Y-11225000D01*
X8525000Y-10975000D02*
X8275000Y-11225000D01*
X16275000Y-8875000D02*
X16525000Y-9125000D01*
X16525000Y-8875000D02*
X16275000Y-9125000D01*
X16275000Y-10975000D02*
X16525000Y-11225000D01*
X16525000Y-10975000D02*
X16275000Y-11225000D01*
D11*
X8330777Y-11766484D02*
X8330777Y-11566484D01*
X8330777Y-11566484D02*
X8378396Y-11566484D01*
X8378396Y-11566484D02*
X8406967Y-11576008D01*
X8406967Y-11576008D02*
X8426015Y-11595055D01*
X8426015Y-11595055D02*
X8435539Y-11614103D01*
X8435539Y-11614103D02*
X8445063Y-11652198D01*
X8445063Y-11652198D02*
X8445063Y-11680769D01*
X8445063Y-11680769D02*
X8435539Y-11718865D01*
X8435539Y-11718865D02*
X8426015Y-11737912D01*
X8426015Y-11737912D02*
X8406967Y-11756960D01*
X8406967Y-11756960D02*
X8378396Y-11766484D01*
X8378396Y-11766484D02*
X8330777Y-11766484D01*
X8530777Y-11766484D02*
X8530777Y-11633150D01*
X8530777Y-11671246D02*
X8540301Y-11652198D01*
X8540301Y-11652198D02*
X8549824Y-11642674D01*
X8549824Y-11642674D02*
X8568872Y-11633150D01*
X8568872Y-11633150D02*
X8587920Y-11633150D01*
X8654586Y-11766484D02*
X8654586Y-11633150D01*
X8654586Y-11566484D02*
X8645063Y-11576008D01*
X8645063Y-11576008D02*
X8654586Y-11585531D01*
X8654586Y-11585531D02*
X8664110Y-11576008D01*
X8664110Y-11576008D02*
X8654586Y-11566484D01*
X8654586Y-11566484D02*
X8654586Y-11585531D01*
X8778396Y-11766484D02*
X8759348Y-11756960D01*
X8759348Y-11756960D02*
X8749824Y-11737912D01*
X8749824Y-11737912D02*
X8749824Y-11566484D01*
X8883158Y-11766484D02*
X8864110Y-11756960D01*
X8864110Y-11756960D02*
X8854586Y-11737912D01*
X8854586Y-11737912D02*
X8854586Y-11566484D01*
X9111729Y-11766484D02*
X9111729Y-11566484D01*
X9111729Y-11566484D02*
X9178396Y-11709341D01*
X9178396Y-11709341D02*
X9245063Y-11566484D01*
X9245063Y-11566484D02*
X9245063Y-11766484D01*
X9426015Y-11766484D02*
X9426015Y-11661722D01*
X9426015Y-11661722D02*
X9416491Y-11642674D01*
X9416491Y-11642674D02*
X9397444Y-11633150D01*
X9397444Y-11633150D02*
X9359348Y-11633150D01*
X9359348Y-11633150D02*
X9340301Y-11642674D01*
X9426015Y-11756960D02*
X9406967Y-11766484D01*
X9406967Y-11766484D02*
X9359348Y-11766484D01*
X9359348Y-11766484D02*
X9340301Y-11756960D01*
X9340301Y-11756960D02*
X9330777Y-11737912D01*
X9330777Y-11737912D02*
X9330777Y-11718865D01*
X9330777Y-11718865D02*
X9340301Y-11699817D01*
X9340301Y-11699817D02*
X9359348Y-11690293D01*
X9359348Y-11690293D02*
X9406967Y-11690293D01*
X9406967Y-11690293D02*
X9426015Y-11680769D01*
X9521253Y-11633150D02*
X9521253Y-11833150D01*
X9521253Y-11642674D02*
X9540301Y-11633150D01*
X9540301Y-11633150D02*
X9578396Y-11633150D01*
X9578396Y-11633150D02*
X9597444Y-11642674D01*
X9597444Y-11642674D02*
X9606967Y-11652198D01*
X9606967Y-11652198D02*
X9616491Y-11671246D01*
X9616491Y-11671246D02*
X9616491Y-11728388D01*
X9616491Y-11728388D02*
X9606967Y-11747436D01*
X9606967Y-11747436D02*
X9597444Y-11756960D01*
X9597444Y-11756960D02*
X9578396Y-11766484D01*
X9578396Y-11766484D02*
X9540301Y-11766484D01*
X9540301Y-11766484D02*
X9521253Y-11756960D01*
X9702205Y-11747436D02*
X9711729Y-11756960D01*
X9711729Y-11756960D02*
X9702205Y-11766484D01*
X9702205Y-11766484D02*
X9692682Y-11756960D01*
X9692682Y-11756960D02*
X9702205Y-11747436D01*
X9702205Y-11747436D02*
X9702205Y-11766484D01*
X9702205Y-11642674D02*
X9711729Y-11652198D01*
X9711729Y-11652198D02*
X9702205Y-11661722D01*
X9702205Y-11661722D02*
X9692682Y-11652198D01*
X9692682Y-11652198D02*
X9702205Y-11642674D01*
X9702205Y-11642674D02*
X9702205Y-11661722D01*
X7870000Y-11995000D02*
X8070000Y-12195000D01*
X8070000Y-11995000D02*
X7870000Y-12195000D01*
X8321253Y-12005531D02*
X8330777Y-11996008D01*
X8330777Y-11996008D02*
X8349824Y-11986484D01*
X8349824Y-11986484D02*
X8397444Y-11986484D01*
X8397444Y-11986484D02*
X8416491Y-11996008D01*
X8416491Y-11996008D02*
X8426015Y-12005531D01*
X8426015Y-12005531D02*
X8435539Y-12024579D01*
X8435539Y-12024579D02*
X8435539Y-12043627D01*
X8435539Y-12043627D02*
X8426015Y-12072198D01*
X8426015Y-12072198D02*
X8311729Y-12186484D01*
X8311729Y-12186484D02*
X8435539Y-12186484D01*
X8521253Y-12167436D02*
X8530777Y-12176960D01*
X8530777Y-12176960D02*
X8521253Y-12186484D01*
X8521253Y-12186484D02*
X8511729Y-12176960D01*
X8511729Y-12176960D02*
X8521253Y-12167436D01*
X8521253Y-12167436D02*
X8521253Y-12186484D01*
X8711729Y-11986484D02*
X8616491Y-11986484D01*
X8616491Y-11986484D02*
X8606967Y-12081722D01*
X8606967Y-12081722D02*
X8616491Y-12072198D01*
X8616491Y-12072198D02*
X8635539Y-12062674D01*
X8635539Y-12062674D02*
X8683158Y-12062674D01*
X8683158Y-12062674D02*
X8702205Y-12072198D01*
X8702205Y-12072198D02*
X8711729Y-12081722D01*
X8711729Y-12081722D02*
X8721253Y-12100769D01*
X8721253Y-12100769D02*
X8721253Y-12148388D01*
X8721253Y-12148388D02*
X8711729Y-12167436D01*
X8711729Y-12167436D02*
X8702205Y-12176960D01*
X8702205Y-12176960D02*
X8683158Y-12186484D01*
X8683158Y-12186484D02*
X8635539Y-12186484D01*
X8635539Y-12186484D02*
X8616491Y-12176960D01*
X8616491Y-12176960D02*
X8606967Y-12167436D01*
X8845063Y-11986484D02*
X8864110Y-11986484D01*
X8864110Y-11986484D02*
X8883158Y-11996008D01*
X8883158Y-11996008D02*
X8892682Y-12005531D01*
X8892682Y-12005531D02*
X8902205Y-12024579D01*
X8902205Y-12024579D02*
X8911729Y-12062674D01*
X8911729Y-12062674D02*
X8911729Y-12110293D01*
X8911729Y-12110293D02*
X8902205Y-12148388D01*
X8902205Y-12148388D02*
X8892682Y-12167436D01*
X8892682Y-12167436D02*
X8883158Y-12176960D01*
X8883158Y-12176960D02*
X8864110Y-12186484D01*
X8864110Y-12186484D02*
X8845063Y-12186484D01*
X8845063Y-12186484D02*
X8826015Y-12176960D01*
X8826015Y-12176960D02*
X8816491Y-12167436D01*
X8816491Y-12167436D02*
X8806967Y-12148388D01*
X8806967Y-12148388D02*
X8797444Y-12110293D01*
X8797444Y-12110293D02*
X8797444Y-12062674D01*
X8797444Y-12062674D02*
X8806967Y-12024579D01*
X8806967Y-12024579D02*
X8816491Y-12005531D01*
X8816491Y-12005531D02*
X8826015Y-11996008D01*
X8826015Y-11996008D02*
X8845063Y-11986484D01*
X9035539Y-11986484D02*
X9054586Y-11986484D01*
X9054586Y-11986484D02*
X9073634Y-11996008D01*
X9073634Y-11996008D02*
X9083158Y-12005531D01*
X9083158Y-12005531D02*
X9092682Y-12024579D01*
X9092682Y-12024579D02*
X9102205Y-12062674D01*
X9102205Y-12062674D02*
X9102205Y-12110293D01*
X9102205Y-12110293D02*
X9092682Y-12148388D01*
X9092682Y-12148388D02*
X9083158Y-12167436D01*
X9083158Y-12167436D02*
X9073634Y-12176960D01*
X9073634Y-12176960D02*
X9054586Y-12186484D01*
X9054586Y-12186484D02*
X9035539Y-12186484D01*
X9035539Y-12186484D02*
X9016491Y-12176960D01*
X9016491Y-12176960D02*
X9006967Y-12167436D01*
X9006967Y-12167436D02*
X8997444Y-12148388D01*
X8997444Y-12148388D02*
X8987920Y-12110293D01*
X8987920Y-12110293D02*
X8987920Y-12062674D01*
X8987920Y-12062674D02*
X8997444Y-12024579D01*
X8997444Y-12024579D02*
X9006967Y-12005531D01*
X9006967Y-12005531D02*
X9016491Y-11996008D01*
X9016491Y-11996008D02*
X9035539Y-11986484D01*
X9187920Y-12186484D02*
X9187920Y-12053150D01*
X9187920Y-12072198D02*
X9197444Y-12062674D01*
X9197444Y-12062674D02*
X9216491Y-12053150D01*
X9216491Y-12053150D02*
X9245063Y-12053150D01*
X9245063Y-12053150D02*
X9264110Y-12062674D01*
X9264110Y-12062674D02*
X9273634Y-12081722D01*
X9273634Y-12081722D02*
X9273634Y-12186484D01*
X9273634Y-12081722D02*
X9283158Y-12062674D01*
X9283158Y-12062674D02*
X9302205Y-12053150D01*
X9302205Y-12053150D02*
X9330777Y-12053150D01*
X9330777Y-12053150D02*
X9349825Y-12062674D01*
X9349825Y-12062674D02*
X9359348Y-12081722D01*
X9359348Y-12081722D02*
X9359348Y-12186484D01*
X9454586Y-12186484D02*
X9454586Y-12053150D01*
X9454586Y-12072198D02*
X9464110Y-12062674D01*
X9464110Y-12062674D02*
X9483158Y-12053150D01*
X9483158Y-12053150D02*
X9511729Y-12053150D01*
X9511729Y-12053150D02*
X9530777Y-12062674D01*
X9530777Y-12062674D02*
X9540301Y-12081722D01*
X9540301Y-12081722D02*
X9540301Y-12186484D01*
X9540301Y-12081722D02*
X9549825Y-12062674D01*
X9549825Y-12062674D02*
X9568872Y-12053150D01*
X9568872Y-12053150D02*
X9597444Y-12053150D01*
X9597444Y-12053150D02*
X9616491Y-12062674D01*
X9616491Y-12062674D02*
X9626015Y-12081722D01*
X9626015Y-12081722D02*
X9626015Y-12186484D01*
X10016491Y-11976960D02*
X9845063Y-12234103D01*
X10273634Y-11986484D02*
X10292682Y-11986484D01*
X10292682Y-11986484D02*
X10311729Y-11996008D01*
X10311729Y-11996008D02*
X10321253Y-12005531D01*
X10321253Y-12005531D02*
X10330777Y-12024579D01*
X10330777Y-12024579D02*
X10340301Y-12062674D01*
X10340301Y-12062674D02*
X10340301Y-12110293D01*
X10340301Y-12110293D02*
X10330777Y-12148388D01*
X10330777Y-12148388D02*
X10321253Y-12167436D01*
X10321253Y-12167436D02*
X10311729Y-12176960D01*
X10311729Y-12176960D02*
X10292682Y-12186484D01*
X10292682Y-12186484D02*
X10273634Y-12186484D01*
X10273634Y-12186484D02*
X10254587Y-12176960D01*
X10254587Y-12176960D02*
X10245063Y-12167436D01*
X10245063Y-12167436D02*
X10235539Y-12148388D01*
X10235539Y-12148388D02*
X10226015Y-12110293D01*
X10226015Y-12110293D02*
X10226015Y-12062674D01*
X10226015Y-12062674D02*
X10235539Y-12024579D01*
X10235539Y-12024579D02*
X10245063Y-12005531D01*
X10245063Y-12005531D02*
X10254587Y-11996008D01*
X10254587Y-11996008D02*
X10273634Y-11986484D01*
X10426015Y-12167436D02*
X10435539Y-12176960D01*
X10435539Y-12176960D02*
X10426015Y-12186484D01*
X10426015Y-12186484D02*
X10416491Y-12176960D01*
X10416491Y-12176960D02*
X10426015Y-12167436D01*
X10426015Y-12167436D02*
X10426015Y-12186484D01*
X10559348Y-11986484D02*
X10578396Y-11986484D01*
X10578396Y-11986484D02*
X10597444Y-11996008D01*
X10597444Y-11996008D02*
X10606968Y-12005531D01*
X10606968Y-12005531D02*
X10616491Y-12024579D01*
X10616491Y-12024579D02*
X10626015Y-12062674D01*
X10626015Y-12062674D02*
X10626015Y-12110293D01*
X10626015Y-12110293D02*
X10616491Y-12148388D01*
X10616491Y-12148388D02*
X10606968Y-12167436D01*
X10606968Y-12167436D02*
X10597444Y-12176960D01*
X10597444Y-12176960D02*
X10578396Y-12186484D01*
X10578396Y-12186484D02*
X10559348Y-12186484D01*
X10559348Y-12186484D02*
X10540301Y-12176960D01*
X10540301Y-12176960D02*
X10530777Y-12167436D01*
X10530777Y-12167436D02*
X10521253Y-12148388D01*
X10521253Y-12148388D02*
X10511729Y-12110293D01*
X10511729Y-12110293D02*
X10511729Y-12062674D01*
X10511729Y-12062674D02*
X10521253Y-12024579D01*
X10521253Y-12024579D02*
X10530777Y-12005531D01*
X10530777Y-12005531D02*
X10540301Y-11996008D01*
X10540301Y-11996008D02*
X10559348Y-11986484D01*
X10721253Y-12186484D02*
X10759348Y-12186484D01*
X10759348Y-12186484D02*
X10778396Y-12176960D01*
X10778396Y-12176960D02*
X10787920Y-12167436D01*
X10787920Y-12167436D02*
X10806968Y-12138865D01*
X10806968Y-12138865D02*
X10816491Y-12100769D01*
X10816491Y-12100769D02*
X10816491Y-12024579D01*
X10816491Y-12024579D02*
X10806968Y-12005531D01*
X10806968Y-12005531D02*
X10797444Y-11996008D01*
X10797444Y-11996008D02*
X10778396Y-11986484D01*
X10778396Y-11986484D02*
X10740301Y-11986484D01*
X10740301Y-11986484D02*
X10721253Y-11996008D01*
X10721253Y-11996008D02*
X10711729Y-12005531D01*
X10711729Y-12005531D02*
X10702206Y-12024579D01*
X10702206Y-12024579D02*
X10702206Y-12072198D01*
X10702206Y-12072198D02*
X10711729Y-12091246D01*
X10711729Y-12091246D02*
X10721253Y-12100769D01*
X10721253Y-12100769D02*
X10740301Y-12110293D01*
X10740301Y-12110293D02*
X10778396Y-12110293D01*
X10778396Y-12110293D02*
X10797444Y-12100769D01*
X10797444Y-12100769D02*
X10806968Y-12091246D01*
X10806968Y-12091246D02*
X10816491Y-12072198D01*
X10930777Y-12072198D02*
X10911729Y-12062674D01*
X10911729Y-12062674D02*
X10902206Y-12053150D01*
X10902206Y-12053150D02*
X10892682Y-12034103D01*
X10892682Y-12034103D02*
X10892682Y-12024579D01*
X10892682Y-12024579D02*
X10902206Y-12005531D01*
X10902206Y-12005531D02*
X10911729Y-11996008D01*
X10911729Y-11996008D02*
X10930777Y-11986484D01*
X10930777Y-11986484D02*
X10968872Y-11986484D01*
X10968872Y-11986484D02*
X10987920Y-11996008D01*
X10987920Y-11996008D02*
X10997444Y-12005531D01*
X10997444Y-12005531D02*
X11006968Y-12024579D01*
X11006968Y-12024579D02*
X11006968Y-12034103D01*
X11006968Y-12034103D02*
X10997444Y-12053150D01*
X10997444Y-12053150D02*
X10987920Y-12062674D01*
X10987920Y-12062674D02*
X10968872Y-12072198D01*
X10968872Y-12072198D02*
X10930777Y-12072198D01*
X10930777Y-12072198D02*
X10911729Y-12081722D01*
X10911729Y-12081722D02*
X10902206Y-12091246D01*
X10902206Y-12091246D02*
X10892682Y-12110293D01*
X10892682Y-12110293D02*
X10892682Y-12148388D01*
X10892682Y-12148388D02*
X10902206Y-12167436D01*
X10902206Y-12167436D02*
X10911729Y-12176960D01*
X10911729Y-12176960D02*
X10930777Y-12186484D01*
X10930777Y-12186484D02*
X10968872Y-12186484D01*
X10968872Y-12186484D02*
X10987920Y-12176960D01*
X10987920Y-12176960D02*
X10997444Y-12167436D01*
X10997444Y-12167436D02*
X11006968Y-12148388D01*
X11006968Y-12148388D02*
X11006968Y-12110293D01*
X11006968Y-12110293D02*
X10997444Y-12091246D01*
X10997444Y-12091246D02*
X10987920Y-12081722D01*
X10987920Y-12081722D02*
X10968872Y-12072198D01*
X11178396Y-12053150D02*
X11178396Y-12186484D01*
X11130777Y-11976960D02*
X11083158Y-12119817D01*
X11083158Y-12119817D02*
X11206967Y-12119817D01*
X11273634Y-11986484D02*
X11273634Y-12024579D01*
X11349825Y-11986484D02*
X11349825Y-12024579D01*
X11645063Y-12262674D02*
X11635539Y-12253150D01*
X11635539Y-12253150D02*
X11616491Y-12224579D01*
X11616491Y-12224579D02*
X11606968Y-12205531D01*
X11606968Y-12205531D02*
X11597444Y-12176960D01*
X11597444Y-12176960D02*
X11587920Y-12129341D01*
X11587920Y-12129341D02*
X11587920Y-12091246D01*
X11587920Y-12091246D02*
X11597444Y-12043627D01*
X11597444Y-12043627D02*
X11606968Y-12015055D01*
X11606968Y-12015055D02*
X11616491Y-11996008D01*
X11616491Y-11996008D02*
X11635539Y-11967436D01*
X11635539Y-11967436D02*
X11645063Y-11957912D01*
X11806968Y-12053150D02*
X11806968Y-12186484D01*
X11759348Y-11976960D02*
X11711729Y-12119817D01*
X11711729Y-12119817D02*
X11835539Y-12119817D01*
X12064110Y-12186484D02*
X12064110Y-11986484D01*
X12149825Y-12186484D02*
X12149825Y-12081722D01*
X12149825Y-12081722D02*
X12140301Y-12062674D01*
X12140301Y-12062674D02*
X12121253Y-12053150D01*
X12121253Y-12053150D02*
X12092682Y-12053150D01*
X12092682Y-12053150D02*
X12073634Y-12062674D01*
X12073634Y-12062674D02*
X12064110Y-12072198D01*
X12273634Y-12186484D02*
X12254587Y-12176960D01*
X12254587Y-12176960D02*
X12245063Y-12167436D01*
X12245063Y-12167436D02*
X12235539Y-12148388D01*
X12235539Y-12148388D02*
X12235539Y-12091246D01*
X12235539Y-12091246D02*
X12245063Y-12072198D01*
X12245063Y-12072198D02*
X12254587Y-12062674D01*
X12254587Y-12062674D02*
X12273634Y-12053150D01*
X12273634Y-12053150D02*
X12302206Y-12053150D01*
X12302206Y-12053150D02*
X12321253Y-12062674D01*
X12321253Y-12062674D02*
X12330777Y-12072198D01*
X12330777Y-12072198D02*
X12340301Y-12091246D01*
X12340301Y-12091246D02*
X12340301Y-12148388D01*
X12340301Y-12148388D02*
X12330777Y-12167436D01*
X12330777Y-12167436D02*
X12321253Y-12176960D01*
X12321253Y-12176960D02*
X12302206Y-12186484D01*
X12302206Y-12186484D02*
X12273634Y-12186484D01*
X12454587Y-12186484D02*
X12435539Y-12176960D01*
X12435539Y-12176960D02*
X12426015Y-12157912D01*
X12426015Y-12157912D02*
X12426015Y-11986484D01*
X12606968Y-12176960D02*
X12587920Y-12186484D01*
X12587920Y-12186484D02*
X12549825Y-12186484D01*
X12549825Y-12186484D02*
X12530777Y-12176960D01*
X12530777Y-12176960D02*
X12521253Y-12157912D01*
X12521253Y-12157912D02*
X12521253Y-12081722D01*
X12521253Y-12081722D02*
X12530777Y-12062674D01*
X12530777Y-12062674D02*
X12549825Y-12053150D01*
X12549825Y-12053150D02*
X12587920Y-12053150D01*
X12587920Y-12053150D02*
X12606968Y-12062674D01*
X12606968Y-12062674D02*
X12616491Y-12081722D01*
X12616491Y-12081722D02*
X12616491Y-12100769D01*
X12616491Y-12100769D02*
X12521253Y-12119817D01*
X12692682Y-12176960D02*
X12711730Y-12186484D01*
X12711730Y-12186484D02*
X12749825Y-12186484D01*
X12749825Y-12186484D02*
X12768872Y-12176960D01*
X12768872Y-12176960D02*
X12778396Y-12157912D01*
X12778396Y-12157912D02*
X12778396Y-12148388D01*
X12778396Y-12148388D02*
X12768872Y-12129341D01*
X12768872Y-12129341D02*
X12749825Y-12119817D01*
X12749825Y-12119817D02*
X12721253Y-12119817D01*
X12721253Y-12119817D02*
X12702206Y-12110293D01*
X12702206Y-12110293D02*
X12692682Y-12091246D01*
X12692682Y-12091246D02*
X12692682Y-12081722D01*
X12692682Y-12081722D02*
X12702206Y-12062674D01*
X12702206Y-12062674D02*
X12721253Y-12053150D01*
X12721253Y-12053150D02*
X12749825Y-12053150D01*
X12749825Y-12053150D02*
X12768872Y-12062674D01*
X12845063Y-12262674D02*
X12854587Y-12253150D01*
X12854587Y-12253150D02*
X12873634Y-12224579D01*
X12873634Y-12224579D02*
X12883158Y-12205531D01*
X12883158Y-12205531D02*
X12892682Y-12176960D01*
X12892682Y-12176960D02*
X12902206Y-12129341D01*
X12902206Y-12129341D02*
X12902206Y-12091246D01*
X12902206Y-12091246D02*
X12892682Y-12043627D01*
X12892682Y-12043627D02*
X12883158Y-12015055D01*
X12883158Y-12015055D02*
X12873634Y-11996008D01*
X12873634Y-11996008D02*
X12854587Y-11967436D01*
X12854587Y-11967436D02*
X12845063Y-11957912D01*
X13206968Y-12262674D02*
X13197444Y-12253150D01*
X13197444Y-12253150D02*
X13178396Y-12224579D01*
X13178396Y-12224579D02*
X13168872Y-12205531D01*
X13168872Y-12205531D02*
X13159349Y-12176960D01*
X13159349Y-12176960D02*
X13149825Y-12129341D01*
X13149825Y-12129341D02*
X13149825Y-12091246D01*
X13149825Y-12091246D02*
X13159349Y-12043627D01*
X13159349Y-12043627D02*
X13168872Y-12015055D01*
X13168872Y-12015055D02*
X13178396Y-11996008D01*
X13178396Y-11996008D02*
X13197444Y-11967436D01*
X13197444Y-11967436D02*
X13206968Y-11957912D01*
X13283158Y-12053150D02*
X13283158Y-12186484D01*
X13283158Y-12072198D02*
X13292682Y-12062674D01*
X13292682Y-12062674D02*
X13311730Y-12053150D01*
X13311730Y-12053150D02*
X13340301Y-12053150D01*
X13340301Y-12053150D02*
X13359349Y-12062674D01*
X13359349Y-12062674D02*
X13368872Y-12081722D01*
X13368872Y-12081722D02*
X13368872Y-12186484D01*
X13492682Y-12186484D02*
X13473634Y-12176960D01*
X13473634Y-12176960D02*
X13464111Y-12167436D01*
X13464111Y-12167436D02*
X13454587Y-12148388D01*
X13454587Y-12148388D02*
X13454587Y-12091246D01*
X13454587Y-12091246D02*
X13464111Y-12072198D01*
X13464111Y-12072198D02*
X13473634Y-12062674D01*
X13473634Y-12062674D02*
X13492682Y-12053150D01*
X13492682Y-12053150D02*
X13521253Y-12053150D01*
X13521253Y-12053150D02*
X13540301Y-12062674D01*
X13540301Y-12062674D02*
X13549825Y-12072198D01*
X13549825Y-12072198D02*
X13559349Y-12091246D01*
X13559349Y-12091246D02*
X13559349Y-12148388D01*
X13559349Y-12148388D02*
X13549825Y-12167436D01*
X13549825Y-12167436D02*
X13540301Y-12176960D01*
X13540301Y-12176960D02*
X13521253Y-12186484D01*
X13521253Y-12186484D02*
X13492682Y-12186484D01*
X13616492Y-12053150D02*
X13692682Y-12053150D01*
X13645063Y-11986484D02*
X13645063Y-12157912D01*
X13645063Y-12157912D02*
X13654587Y-12176960D01*
X13654587Y-12176960D02*
X13673634Y-12186484D01*
X13673634Y-12186484D02*
X13692682Y-12186484D01*
X13911730Y-12053150D02*
X13911730Y-12253150D01*
X13911730Y-12062674D02*
X13930777Y-12053150D01*
X13930777Y-12053150D02*
X13968873Y-12053150D01*
X13968873Y-12053150D02*
X13987920Y-12062674D01*
X13987920Y-12062674D02*
X13997444Y-12072198D01*
X13997444Y-12072198D02*
X14006968Y-12091246D01*
X14006968Y-12091246D02*
X14006968Y-12148388D01*
X14006968Y-12148388D02*
X13997444Y-12167436D01*
X13997444Y-12167436D02*
X13987920Y-12176960D01*
X13987920Y-12176960D02*
X13968873Y-12186484D01*
X13968873Y-12186484D02*
X13930777Y-12186484D01*
X13930777Y-12186484D02*
X13911730Y-12176960D01*
X14121253Y-12186484D02*
X14102206Y-12176960D01*
X14102206Y-12176960D02*
X14092682Y-12157912D01*
X14092682Y-12157912D02*
X14092682Y-11986484D01*
X14283158Y-12186484D02*
X14283158Y-12081722D01*
X14283158Y-12081722D02*
X14273634Y-12062674D01*
X14273634Y-12062674D02*
X14254587Y-12053150D01*
X14254587Y-12053150D02*
X14216492Y-12053150D01*
X14216492Y-12053150D02*
X14197444Y-12062674D01*
X14283158Y-12176960D02*
X14264111Y-12186484D01*
X14264111Y-12186484D02*
X14216492Y-12186484D01*
X14216492Y-12186484D02*
X14197444Y-12176960D01*
X14197444Y-12176960D02*
X14187920Y-12157912D01*
X14187920Y-12157912D02*
X14187920Y-12138865D01*
X14187920Y-12138865D02*
X14197444Y-12119817D01*
X14197444Y-12119817D02*
X14216492Y-12110293D01*
X14216492Y-12110293D02*
X14264111Y-12110293D01*
X14264111Y-12110293D02*
X14283158Y-12100769D01*
X14349825Y-12053150D02*
X14426015Y-12053150D01*
X14378396Y-11986484D02*
X14378396Y-12157912D01*
X14378396Y-12157912D02*
X14387920Y-12176960D01*
X14387920Y-12176960D02*
X14406968Y-12186484D01*
X14406968Y-12186484D02*
X14426015Y-12186484D01*
X14568873Y-12176960D02*
X14549825Y-12186484D01*
X14549825Y-12186484D02*
X14511730Y-12186484D01*
X14511730Y-12186484D02*
X14492682Y-12176960D01*
X14492682Y-12176960D02*
X14483158Y-12157912D01*
X14483158Y-12157912D02*
X14483158Y-12081722D01*
X14483158Y-12081722D02*
X14492682Y-12062674D01*
X14492682Y-12062674D02*
X14511730Y-12053150D01*
X14511730Y-12053150D02*
X14549825Y-12053150D01*
X14549825Y-12053150D02*
X14568873Y-12062674D01*
X14568873Y-12062674D02*
X14578396Y-12081722D01*
X14578396Y-12081722D02*
X14578396Y-12100769D01*
X14578396Y-12100769D02*
X14483158Y-12119817D01*
X14749825Y-12186484D02*
X14749825Y-11986484D01*
X14749825Y-12176960D02*
X14730777Y-12186484D01*
X14730777Y-12186484D02*
X14692682Y-12186484D01*
X14692682Y-12186484D02*
X14673634Y-12176960D01*
X14673634Y-12176960D02*
X14664111Y-12167436D01*
X14664111Y-12167436D02*
X14654587Y-12148388D01*
X14654587Y-12148388D02*
X14654587Y-12091246D01*
X14654587Y-12091246D02*
X14664111Y-12072198D01*
X14664111Y-12072198D02*
X14673634Y-12062674D01*
X14673634Y-12062674D02*
X14692682Y-12053150D01*
X14692682Y-12053150D02*
X14730777Y-12053150D01*
X14730777Y-12053150D02*
X14749825Y-12062674D01*
X14826015Y-12262674D02*
X14835539Y-12253150D01*
X14835539Y-12253150D02*
X14854587Y-12224579D01*
X14854587Y-12224579D02*
X14864111Y-12205531D01*
X14864111Y-12205531D02*
X14873634Y-12176960D01*
X14873634Y-12176960D02*
X14883158Y-12129341D01*
X14883158Y-12129341D02*
X14883158Y-12091246D01*
X14883158Y-12091246D02*
X14873634Y-12043627D01*
X14873634Y-12043627D02*
X14864111Y-12015055D01*
X14864111Y-12015055D02*
X14854587Y-11996008D01*
X14854587Y-11996008D02*
X14835539Y-11967436D01*
X14835539Y-11967436D02*
X14826015Y-11957912D01*
M02*
