%TF.GenerationSoftware,KiCad,Pcbnew,7.0.6-0*%
%TF.CreationDate,2023-08-27T09:50:55-04:00*%
%TF.ProjectId,edge triggered monostable,65646765-2074-4726-9967-676572656420,1.0*%
%TF.SameCoordinates,Original*%
%TF.FileFunction,Drillmap*%
%TF.FilePolarity,Positive*%
%FSLAX45Y45*%
G04 Gerber Fmt 4.5, Leading zero omitted, Abs format (unit mm)*
G04 Created by KiCad (PCBNEW 7.0.6-0) date 2023-08-27 09:50:55*
%MOMM*%
%LPD*%
G01*
G04 APERTURE LIST*
%ADD10C,0.100000*%
%ADD11C,0.200000*%
%ADD12C,0.040000*%
%ADD13C,0.070000*%
%ADD14C,0.110000*%
G04 APERTURE END LIST*
D10*
X8075000Y-11450000D02*
X8250000Y-11450000D01*
X8075000Y-8650000D02*
X8075000Y-11450000D01*
X8250000Y-8650000D02*
X8075000Y-8650000D01*
X16750000Y-8650000D02*
X16450000Y-8650000D01*
X16750000Y-11450000D02*
X16750000Y-8650000D01*
X16450000Y-11450000D02*
X16750000Y-11450000D01*
X16450000Y-11450000D02*
X8250000Y-11450000D01*
X8250000Y-8650000D02*
X16450000Y-8650000D01*
D11*
D12*
X9880000Y-10840000D02*
X9920000Y-10880000D01*
X9920000Y-10840000D02*
X9880000Y-10880000D01*
X10500000Y-9790000D02*
X10540000Y-9830000D01*
X10540000Y-9790000D02*
X10500000Y-9830000D01*
X10680000Y-10970000D02*
X10720000Y-11010000D01*
X10720000Y-10970000D02*
X10680000Y-11010000D01*
X11080000Y-10830000D02*
X11120000Y-10870000D01*
X11120000Y-10830000D02*
X11080000Y-10870000D01*
X11430000Y-10840000D02*
X11470000Y-10880000D01*
X11470000Y-10840000D02*
X11430000Y-10880000D01*
X11780000Y-10700000D02*
X11820000Y-10740000D01*
X11820000Y-10700000D02*
X11780000Y-10740000D01*
D13*
X12799250Y-9914250D02*
G75*
G03*
X12799250Y-9914250I-35000J0D01*
G01*
X12799250Y-10676250D02*
G75*
G03*
X12799250Y-10676250I-35000J0D01*
G01*
X13561250Y-9914250D02*
G75*
G03*
X13561250Y-9914250I-35000J0D01*
G01*
X13561250Y-10676250D02*
G75*
G03*
X13561250Y-10676250I-35000J0D01*
G01*
X14069250Y-9914250D02*
G75*
G03*
X14069250Y-9914250I-35000J0D01*
G01*
X14069250Y-10676250D02*
G75*
G03*
X14069250Y-10676250I-35000J0D01*
G01*
X14577250Y-9914250D02*
G75*
G03*
X14577250Y-9914250I-35000J0D01*
G01*
X14577250Y-10676250D02*
G75*
G03*
X14577250Y-10676250I-35000J0D01*
G01*
D14*
X9200000Y-9391000D02*
X9200000Y-9501000D01*
X9145000Y-9446000D02*
X9255000Y-9446000D01*
X9200000Y-9645000D02*
X9200000Y-9755000D01*
X9145000Y-9700000D02*
X9255000Y-9700000D01*
X9200000Y-10341000D02*
X9200000Y-10451000D01*
X9145000Y-10396000D02*
X9255000Y-10396000D01*
X9200000Y-10595000D02*
X9200000Y-10705000D01*
X9145000Y-10650000D02*
X9255000Y-10650000D01*
X15350000Y-9193000D02*
X15350000Y-9303000D01*
X15295000Y-9248000D02*
X15405000Y-9248000D01*
X15350000Y-9447000D02*
X15350000Y-9557000D01*
X15295000Y-9502000D02*
X15405000Y-9502000D01*
X15350000Y-9868000D02*
X15350000Y-9978000D01*
X15295000Y-9923000D02*
X15405000Y-9923000D01*
X15350000Y-10122000D02*
X15350000Y-10232000D01*
X15295000Y-10177000D02*
X15405000Y-10177000D01*
X15350000Y-10543000D02*
X15350000Y-10653000D01*
X15295000Y-10598000D02*
X15405000Y-10598000D01*
X15350000Y-10797000D02*
X15350000Y-10907000D01*
X15295000Y-10852000D02*
X15405000Y-10852000D01*
D11*
X8330777Y-11766484D02*
X8330777Y-11566484D01*
X8330777Y-11566484D02*
X8378396Y-11566484D01*
X8378396Y-11566484D02*
X8406967Y-11576008D01*
X8406967Y-11576008D02*
X8426015Y-11595055D01*
X8426015Y-11595055D02*
X8435539Y-11614103D01*
X8435539Y-11614103D02*
X8445063Y-11652198D01*
X8445063Y-11652198D02*
X8445063Y-11680769D01*
X8445063Y-11680769D02*
X8435539Y-11718865D01*
X8435539Y-11718865D02*
X8426015Y-11737912D01*
X8426015Y-11737912D02*
X8406967Y-11756960D01*
X8406967Y-11756960D02*
X8378396Y-11766484D01*
X8378396Y-11766484D02*
X8330777Y-11766484D01*
X8530777Y-11766484D02*
X8530777Y-11633150D01*
X8530777Y-11671246D02*
X8540301Y-11652198D01*
X8540301Y-11652198D02*
X8549824Y-11642674D01*
X8549824Y-11642674D02*
X8568872Y-11633150D01*
X8568872Y-11633150D02*
X8587920Y-11633150D01*
X8654586Y-11766484D02*
X8654586Y-11633150D01*
X8654586Y-11566484D02*
X8645063Y-11576008D01*
X8645063Y-11576008D02*
X8654586Y-11585531D01*
X8654586Y-11585531D02*
X8664110Y-11576008D01*
X8664110Y-11576008D02*
X8654586Y-11566484D01*
X8654586Y-11566484D02*
X8654586Y-11585531D01*
X8778396Y-11766484D02*
X8759348Y-11756960D01*
X8759348Y-11756960D02*
X8749824Y-11737912D01*
X8749824Y-11737912D02*
X8749824Y-11566484D01*
X8883158Y-11766484D02*
X8864110Y-11756960D01*
X8864110Y-11756960D02*
X8854586Y-11737912D01*
X8854586Y-11737912D02*
X8854586Y-11566484D01*
X9111729Y-11766484D02*
X9111729Y-11566484D01*
X9111729Y-11566484D02*
X9178396Y-11709341D01*
X9178396Y-11709341D02*
X9245063Y-11566484D01*
X9245063Y-11566484D02*
X9245063Y-11766484D01*
X9426015Y-11766484D02*
X9426015Y-11661722D01*
X9426015Y-11661722D02*
X9416491Y-11642674D01*
X9416491Y-11642674D02*
X9397444Y-11633150D01*
X9397444Y-11633150D02*
X9359348Y-11633150D01*
X9359348Y-11633150D02*
X9340301Y-11642674D01*
X9426015Y-11756960D02*
X9406967Y-11766484D01*
X9406967Y-11766484D02*
X9359348Y-11766484D01*
X9359348Y-11766484D02*
X9340301Y-11756960D01*
X9340301Y-11756960D02*
X9330777Y-11737912D01*
X9330777Y-11737912D02*
X9330777Y-11718865D01*
X9330777Y-11718865D02*
X9340301Y-11699817D01*
X9340301Y-11699817D02*
X9359348Y-11690293D01*
X9359348Y-11690293D02*
X9406967Y-11690293D01*
X9406967Y-11690293D02*
X9426015Y-11680769D01*
X9521253Y-11633150D02*
X9521253Y-11833150D01*
X9521253Y-11642674D02*
X9540301Y-11633150D01*
X9540301Y-11633150D02*
X9578396Y-11633150D01*
X9578396Y-11633150D02*
X9597444Y-11642674D01*
X9597444Y-11642674D02*
X9606967Y-11652198D01*
X9606967Y-11652198D02*
X9616491Y-11671246D01*
X9616491Y-11671246D02*
X9616491Y-11728388D01*
X9616491Y-11728388D02*
X9606967Y-11747436D01*
X9606967Y-11747436D02*
X9597444Y-11756960D01*
X9597444Y-11756960D02*
X9578396Y-11766484D01*
X9578396Y-11766484D02*
X9540301Y-11766484D01*
X9540301Y-11766484D02*
X9521253Y-11756960D01*
X9702205Y-11747436D02*
X9711729Y-11756960D01*
X9711729Y-11756960D02*
X9702205Y-11766484D01*
X9702205Y-11766484D02*
X9692682Y-11756960D01*
X9692682Y-11756960D02*
X9702205Y-11747436D01*
X9702205Y-11747436D02*
X9702205Y-11766484D01*
X9702205Y-11642674D02*
X9711729Y-11652198D01*
X9711729Y-11652198D02*
X9702205Y-11661722D01*
X9702205Y-11661722D02*
X9692682Y-11652198D01*
X9692682Y-11652198D02*
X9702205Y-11642674D01*
X9702205Y-11642674D02*
X9702205Y-11661722D01*
D12*
X8030000Y-12075000D02*
X8070000Y-12115000D01*
X8070000Y-12075000D02*
X8030000Y-12115000D01*
D11*
X8368872Y-11986484D02*
X8387920Y-11986484D01*
X8387920Y-11986484D02*
X8406967Y-11996008D01*
X8406967Y-11996008D02*
X8416491Y-12005531D01*
X8416491Y-12005531D02*
X8426015Y-12024579D01*
X8426015Y-12024579D02*
X8435539Y-12062674D01*
X8435539Y-12062674D02*
X8435539Y-12110293D01*
X8435539Y-12110293D02*
X8426015Y-12148388D01*
X8426015Y-12148388D02*
X8416491Y-12167436D01*
X8416491Y-12167436D02*
X8406967Y-12176960D01*
X8406967Y-12176960D02*
X8387920Y-12186484D01*
X8387920Y-12186484D02*
X8368872Y-12186484D01*
X8368872Y-12186484D02*
X8349824Y-12176960D01*
X8349824Y-12176960D02*
X8340301Y-12167436D01*
X8340301Y-12167436D02*
X8330777Y-12148388D01*
X8330777Y-12148388D02*
X8321253Y-12110293D01*
X8321253Y-12110293D02*
X8321253Y-12062674D01*
X8321253Y-12062674D02*
X8330777Y-12024579D01*
X8330777Y-12024579D02*
X8340301Y-12005531D01*
X8340301Y-12005531D02*
X8349824Y-11996008D01*
X8349824Y-11996008D02*
X8368872Y-11986484D01*
X8521253Y-12167436D02*
X8530777Y-12176960D01*
X8530777Y-12176960D02*
X8521253Y-12186484D01*
X8521253Y-12186484D02*
X8511729Y-12176960D01*
X8511729Y-12176960D02*
X8521253Y-12167436D01*
X8521253Y-12167436D02*
X8521253Y-12186484D01*
X8702205Y-12053150D02*
X8702205Y-12186484D01*
X8654586Y-11976960D02*
X8606967Y-12119817D01*
X8606967Y-12119817D02*
X8730777Y-12119817D01*
X8845063Y-11986484D02*
X8864110Y-11986484D01*
X8864110Y-11986484D02*
X8883158Y-11996008D01*
X8883158Y-11996008D02*
X8892682Y-12005531D01*
X8892682Y-12005531D02*
X8902205Y-12024579D01*
X8902205Y-12024579D02*
X8911729Y-12062674D01*
X8911729Y-12062674D02*
X8911729Y-12110293D01*
X8911729Y-12110293D02*
X8902205Y-12148388D01*
X8902205Y-12148388D02*
X8892682Y-12167436D01*
X8892682Y-12167436D02*
X8883158Y-12176960D01*
X8883158Y-12176960D02*
X8864110Y-12186484D01*
X8864110Y-12186484D02*
X8845063Y-12186484D01*
X8845063Y-12186484D02*
X8826015Y-12176960D01*
X8826015Y-12176960D02*
X8816491Y-12167436D01*
X8816491Y-12167436D02*
X8806967Y-12148388D01*
X8806967Y-12148388D02*
X8797444Y-12110293D01*
X8797444Y-12110293D02*
X8797444Y-12062674D01*
X8797444Y-12062674D02*
X8806967Y-12024579D01*
X8806967Y-12024579D02*
X8816491Y-12005531D01*
X8816491Y-12005531D02*
X8826015Y-11996008D01*
X8826015Y-11996008D02*
X8845063Y-11986484D01*
X9035539Y-11986484D02*
X9054586Y-11986484D01*
X9054586Y-11986484D02*
X9073634Y-11996008D01*
X9073634Y-11996008D02*
X9083158Y-12005531D01*
X9083158Y-12005531D02*
X9092682Y-12024579D01*
X9092682Y-12024579D02*
X9102205Y-12062674D01*
X9102205Y-12062674D02*
X9102205Y-12110293D01*
X9102205Y-12110293D02*
X9092682Y-12148388D01*
X9092682Y-12148388D02*
X9083158Y-12167436D01*
X9083158Y-12167436D02*
X9073634Y-12176960D01*
X9073634Y-12176960D02*
X9054586Y-12186484D01*
X9054586Y-12186484D02*
X9035539Y-12186484D01*
X9035539Y-12186484D02*
X9016491Y-12176960D01*
X9016491Y-12176960D02*
X9006967Y-12167436D01*
X9006967Y-12167436D02*
X8997444Y-12148388D01*
X8997444Y-12148388D02*
X8987920Y-12110293D01*
X8987920Y-12110293D02*
X8987920Y-12062674D01*
X8987920Y-12062674D02*
X8997444Y-12024579D01*
X8997444Y-12024579D02*
X9006967Y-12005531D01*
X9006967Y-12005531D02*
X9016491Y-11996008D01*
X9016491Y-11996008D02*
X9035539Y-11986484D01*
X9187920Y-12186484D02*
X9187920Y-12053150D01*
X9187920Y-12072198D02*
X9197444Y-12062674D01*
X9197444Y-12062674D02*
X9216491Y-12053150D01*
X9216491Y-12053150D02*
X9245063Y-12053150D01*
X9245063Y-12053150D02*
X9264110Y-12062674D01*
X9264110Y-12062674D02*
X9273634Y-12081722D01*
X9273634Y-12081722D02*
X9273634Y-12186484D01*
X9273634Y-12081722D02*
X9283158Y-12062674D01*
X9283158Y-12062674D02*
X9302205Y-12053150D01*
X9302205Y-12053150D02*
X9330777Y-12053150D01*
X9330777Y-12053150D02*
X9349825Y-12062674D01*
X9349825Y-12062674D02*
X9359348Y-12081722D01*
X9359348Y-12081722D02*
X9359348Y-12186484D01*
X9454586Y-12186484D02*
X9454586Y-12053150D01*
X9454586Y-12072198D02*
X9464110Y-12062674D01*
X9464110Y-12062674D02*
X9483158Y-12053150D01*
X9483158Y-12053150D02*
X9511729Y-12053150D01*
X9511729Y-12053150D02*
X9530777Y-12062674D01*
X9530777Y-12062674D02*
X9540301Y-12081722D01*
X9540301Y-12081722D02*
X9540301Y-12186484D01*
X9540301Y-12081722D02*
X9549825Y-12062674D01*
X9549825Y-12062674D02*
X9568872Y-12053150D01*
X9568872Y-12053150D02*
X9597444Y-12053150D01*
X9597444Y-12053150D02*
X9616491Y-12062674D01*
X9616491Y-12062674D02*
X9626015Y-12081722D01*
X9626015Y-12081722D02*
X9626015Y-12186484D01*
X10016491Y-11976960D02*
X9845063Y-12234103D01*
X10273634Y-11986484D02*
X10292682Y-11986484D01*
X10292682Y-11986484D02*
X10311729Y-11996008D01*
X10311729Y-11996008D02*
X10321253Y-12005531D01*
X10321253Y-12005531D02*
X10330777Y-12024579D01*
X10330777Y-12024579D02*
X10340301Y-12062674D01*
X10340301Y-12062674D02*
X10340301Y-12110293D01*
X10340301Y-12110293D02*
X10330777Y-12148388D01*
X10330777Y-12148388D02*
X10321253Y-12167436D01*
X10321253Y-12167436D02*
X10311729Y-12176960D01*
X10311729Y-12176960D02*
X10292682Y-12186484D01*
X10292682Y-12186484D02*
X10273634Y-12186484D01*
X10273634Y-12186484D02*
X10254587Y-12176960D01*
X10254587Y-12176960D02*
X10245063Y-12167436D01*
X10245063Y-12167436D02*
X10235539Y-12148388D01*
X10235539Y-12148388D02*
X10226015Y-12110293D01*
X10226015Y-12110293D02*
X10226015Y-12062674D01*
X10226015Y-12062674D02*
X10235539Y-12024579D01*
X10235539Y-12024579D02*
X10245063Y-12005531D01*
X10245063Y-12005531D02*
X10254587Y-11996008D01*
X10254587Y-11996008D02*
X10273634Y-11986484D01*
X10426015Y-12167436D02*
X10435539Y-12176960D01*
X10435539Y-12176960D02*
X10426015Y-12186484D01*
X10426015Y-12186484D02*
X10416491Y-12176960D01*
X10416491Y-12176960D02*
X10426015Y-12167436D01*
X10426015Y-12167436D02*
X10426015Y-12186484D01*
X10559348Y-11986484D02*
X10578396Y-11986484D01*
X10578396Y-11986484D02*
X10597444Y-11996008D01*
X10597444Y-11996008D02*
X10606968Y-12005531D01*
X10606968Y-12005531D02*
X10616491Y-12024579D01*
X10616491Y-12024579D02*
X10626015Y-12062674D01*
X10626015Y-12062674D02*
X10626015Y-12110293D01*
X10626015Y-12110293D02*
X10616491Y-12148388D01*
X10616491Y-12148388D02*
X10606968Y-12167436D01*
X10606968Y-12167436D02*
X10597444Y-12176960D01*
X10597444Y-12176960D02*
X10578396Y-12186484D01*
X10578396Y-12186484D02*
X10559348Y-12186484D01*
X10559348Y-12186484D02*
X10540301Y-12176960D01*
X10540301Y-12176960D02*
X10530777Y-12167436D01*
X10530777Y-12167436D02*
X10521253Y-12148388D01*
X10521253Y-12148388D02*
X10511729Y-12110293D01*
X10511729Y-12110293D02*
X10511729Y-12062674D01*
X10511729Y-12062674D02*
X10521253Y-12024579D01*
X10521253Y-12024579D02*
X10530777Y-12005531D01*
X10530777Y-12005531D02*
X10540301Y-11996008D01*
X10540301Y-11996008D02*
X10559348Y-11986484D01*
X10816491Y-12186484D02*
X10702206Y-12186484D01*
X10759348Y-12186484D02*
X10759348Y-11986484D01*
X10759348Y-11986484D02*
X10740301Y-12015055D01*
X10740301Y-12015055D02*
X10721253Y-12034103D01*
X10721253Y-12034103D02*
X10702206Y-12043627D01*
X10997444Y-11986484D02*
X10902206Y-11986484D01*
X10902206Y-11986484D02*
X10892682Y-12081722D01*
X10892682Y-12081722D02*
X10902206Y-12072198D01*
X10902206Y-12072198D02*
X10921253Y-12062674D01*
X10921253Y-12062674D02*
X10968872Y-12062674D01*
X10968872Y-12062674D02*
X10987920Y-12072198D01*
X10987920Y-12072198D02*
X10997444Y-12081722D01*
X10997444Y-12081722D02*
X11006968Y-12100769D01*
X11006968Y-12100769D02*
X11006968Y-12148388D01*
X11006968Y-12148388D02*
X10997444Y-12167436D01*
X10997444Y-12167436D02*
X10987920Y-12176960D01*
X10987920Y-12176960D02*
X10968872Y-12186484D01*
X10968872Y-12186484D02*
X10921253Y-12186484D01*
X10921253Y-12186484D02*
X10902206Y-12176960D01*
X10902206Y-12176960D02*
X10892682Y-12167436D01*
X11073634Y-11986484D02*
X11206967Y-11986484D01*
X11206967Y-11986484D02*
X11121253Y-12186484D01*
X11273634Y-11986484D02*
X11273634Y-12024579D01*
X11349825Y-11986484D02*
X11349825Y-12024579D01*
X11645063Y-12262674D02*
X11635539Y-12253150D01*
X11635539Y-12253150D02*
X11616491Y-12224579D01*
X11616491Y-12224579D02*
X11606968Y-12205531D01*
X11606968Y-12205531D02*
X11597444Y-12176960D01*
X11597444Y-12176960D02*
X11587920Y-12129341D01*
X11587920Y-12129341D02*
X11587920Y-12091246D01*
X11587920Y-12091246D02*
X11597444Y-12043627D01*
X11597444Y-12043627D02*
X11606968Y-12015055D01*
X11606968Y-12015055D02*
X11616491Y-11996008D01*
X11616491Y-11996008D02*
X11635539Y-11967436D01*
X11635539Y-11967436D02*
X11645063Y-11957912D01*
X11806968Y-11986484D02*
X11768872Y-11986484D01*
X11768872Y-11986484D02*
X11749825Y-11996008D01*
X11749825Y-11996008D02*
X11740301Y-12005531D01*
X11740301Y-12005531D02*
X11721253Y-12034103D01*
X11721253Y-12034103D02*
X11711729Y-12072198D01*
X11711729Y-12072198D02*
X11711729Y-12148388D01*
X11711729Y-12148388D02*
X11721253Y-12167436D01*
X11721253Y-12167436D02*
X11730777Y-12176960D01*
X11730777Y-12176960D02*
X11749825Y-12186484D01*
X11749825Y-12186484D02*
X11787920Y-12186484D01*
X11787920Y-12186484D02*
X11806968Y-12176960D01*
X11806968Y-12176960D02*
X11816491Y-12167436D01*
X11816491Y-12167436D02*
X11826015Y-12148388D01*
X11826015Y-12148388D02*
X11826015Y-12100769D01*
X11826015Y-12100769D02*
X11816491Y-12081722D01*
X11816491Y-12081722D02*
X11806968Y-12072198D01*
X11806968Y-12072198D02*
X11787920Y-12062674D01*
X11787920Y-12062674D02*
X11749825Y-12062674D01*
X11749825Y-12062674D02*
X11730777Y-12072198D01*
X11730777Y-12072198D02*
X11721253Y-12081722D01*
X11721253Y-12081722D02*
X11711729Y-12100769D01*
X12064110Y-12186484D02*
X12064110Y-11986484D01*
X12149825Y-12186484D02*
X12149825Y-12081722D01*
X12149825Y-12081722D02*
X12140301Y-12062674D01*
X12140301Y-12062674D02*
X12121253Y-12053150D01*
X12121253Y-12053150D02*
X12092682Y-12053150D01*
X12092682Y-12053150D02*
X12073634Y-12062674D01*
X12073634Y-12062674D02*
X12064110Y-12072198D01*
X12273634Y-12186484D02*
X12254587Y-12176960D01*
X12254587Y-12176960D02*
X12245063Y-12167436D01*
X12245063Y-12167436D02*
X12235539Y-12148388D01*
X12235539Y-12148388D02*
X12235539Y-12091246D01*
X12235539Y-12091246D02*
X12245063Y-12072198D01*
X12245063Y-12072198D02*
X12254587Y-12062674D01*
X12254587Y-12062674D02*
X12273634Y-12053150D01*
X12273634Y-12053150D02*
X12302206Y-12053150D01*
X12302206Y-12053150D02*
X12321253Y-12062674D01*
X12321253Y-12062674D02*
X12330777Y-12072198D01*
X12330777Y-12072198D02*
X12340301Y-12091246D01*
X12340301Y-12091246D02*
X12340301Y-12148388D01*
X12340301Y-12148388D02*
X12330777Y-12167436D01*
X12330777Y-12167436D02*
X12321253Y-12176960D01*
X12321253Y-12176960D02*
X12302206Y-12186484D01*
X12302206Y-12186484D02*
X12273634Y-12186484D01*
X12454587Y-12186484D02*
X12435539Y-12176960D01*
X12435539Y-12176960D02*
X12426015Y-12157912D01*
X12426015Y-12157912D02*
X12426015Y-11986484D01*
X12606968Y-12176960D02*
X12587920Y-12186484D01*
X12587920Y-12186484D02*
X12549825Y-12186484D01*
X12549825Y-12186484D02*
X12530777Y-12176960D01*
X12530777Y-12176960D02*
X12521253Y-12157912D01*
X12521253Y-12157912D02*
X12521253Y-12081722D01*
X12521253Y-12081722D02*
X12530777Y-12062674D01*
X12530777Y-12062674D02*
X12549825Y-12053150D01*
X12549825Y-12053150D02*
X12587920Y-12053150D01*
X12587920Y-12053150D02*
X12606968Y-12062674D01*
X12606968Y-12062674D02*
X12616491Y-12081722D01*
X12616491Y-12081722D02*
X12616491Y-12100769D01*
X12616491Y-12100769D02*
X12521253Y-12119817D01*
X12692682Y-12176960D02*
X12711730Y-12186484D01*
X12711730Y-12186484D02*
X12749825Y-12186484D01*
X12749825Y-12186484D02*
X12768872Y-12176960D01*
X12768872Y-12176960D02*
X12778396Y-12157912D01*
X12778396Y-12157912D02*
X12778396Y-12148388D01*
X12778396Y-12148388D02*
X12768872Y-12129341D01*
X12768872Y-12129341D02*
X12749825Y-12119817D01*
X12749825Y-12119817D02*
X12721253Y-12119817D01*
X12721253Y-12119817D02*
X12702206Y-12110293D01*
X12702206Y-12110293D02*
X12692682Y-12091246D01*
X12692682Y-12091246D02*
X12692682Y-12081722D01*
X12692682Y-12081722D02*
X12702206Y-12062674D01*
X12702206Y-12062674D02*
X12721253Y-12053150D01*
X12721253Y-12053150D02*
X12749825Y-12053150D01*
X12749825Y-12053150D02*
X12768872Y-12062674D01*
X12845063Y-12262674D02*
X12854587Y-12253150D01*
X12854587Y-12253150D02*
X12873634Y-12224579D01*
X12873634Y-12224579D02*
X12883158Y-12205531D01*
X12883158Y-12205531D02*
X12892682Y-12176960D01*
X12892682Y-12176960D02*
X12902206Y-12129341D01*
X12902206Y-12129341D02*
X12902206Y-12091246D01*
X12902206Y-12091246D02*
X12892682Y-12043627D01*
X12892682Y-12043627D02*
X12883158Y-12015055D01*
X12883158Y-12015055D02*
X12873634Y-11996008D01*
X12873634Y-11996008D02*
X12854587Y-11967436D01*
X12854587Y-11967436D02*
X12845063Y-11957912D01*
D13*
X8070000Y-12359000D02*
G75*
G03*
X8070000Y-12359000I-35000J0D01*
G01*
D11*
X8368872Y-12250484D02*
X8387920Y-12250484D01*
X8387920Y-12250484D02*
X8406967Y-12260008D01*
X8406967Y-12260008D02*
X8416491Y-12269531D01*
X8416491Y-12269531D02*
X8426015Y-12288579D01*
X8426015Y-12288579D02*
X8435539Y-12326674D01*
X8435539Y-12326674D02*
X8435539Y-12374293D01*
X8435539Y-12374293D02*
X8426015Y-12412388D01*
X8426015Y-12412388D02*
X8416491Y-12431436D01*
X8416491Y-12431436D02*
X8406967Y-12440960D01*
X8406967Y-12440960D02*
X8387920Y-12450484D01*
X8387920Y-12450484D02*
X8368872Y-12450484D01*
X8368872Y-12450484D02*
X8349824Y-12440960D01*
X8349824Y-12440960D02*
X8340301Y-12431436D01*
X8340301Y-12431436D02*
X8330777Y-12412388D01*
X8330777Y-12412388D02*
X8321253Y-12374293D01*
X8321253Y-12374293D02*
X8321253Y-12326674D01*
X8321253Y-12326674D02*
X8330777Y-12288579D01*
X8330777Y-12288579D02*
X8340301Y-12269531D01*
X8340301Y-12269531D02*
X8349824Y-12260008D01*
X8349824Y-12260008D02*
X8368872Y-12250484D01*
X8521253Y-12431436D02*
X8530777Y-12440960D01*
X8530777Y-12440960D02*
X8521253Y-12450484D01*
X8521253Y-12450484D02*
X8511729Y-12440960D01*
X8511729Y-12440960D02*
X8521253Y-12431436D01*
X8521253Y-12431436D02*
X8521253Y-12450484D01*
X8597444Y-12250484D02*
X8730777Y-12250484D01*
X8730777Y-12250484D02*
X8645063Y-12450484D01*
X8845063Y-12250484D02*
X8864110Y-12250484D01*
X8864110Y-12250484D02*
X8883158Y-12260008D01*
X8883158Y-12260008D02*
X8892682Y-12269531D01*
X8892682Y-12269531D02*
X8902205Y-12288579D01*
X8902205Y-12288579D02*
X8911729Y-12326674D01*
X8911729Y-12326674D02*
X8911729Y-12374293D01*
X8911729Y-12374293D02*
X8902205Y-12412388D01*
X8902205Y-12412388D02*
X8892682Y-12431436D01*
X8892682Y-12431436D02*
X8883158Y-12440960D01*
X8883158Y-12440960D02*
X8864110Y-12450484D01*
X8864110Y-12450484D02*
X8845063Y-12450484D01*
X8845063Y-12450484D02*
X8826015Y-12440960D01*
X8826015Y-12440960D02*
X8816491Y-12431436D01*
X8816491Y-12431436D02*
X8806967Y-12412388D01*
X8806967Y-12412388D02*
X8797444Y-12374293D01*
X8797444Y-12374293D02*
X8797444Y-12326674D01*
X8797444Y-12326674D02*
X8806967Y-12288579D01*
X8806967Y-12288579D02*
X8816491Y-12269531D01*
X8816491Y-12269531D02*
X8826015Y-12260008D01*
X8826015Y-12260008D02*
X8845063Y-12250484D01*
X9035539Y-12250484D02*
X9054586Y-12250484D01*
X9054586Y-12250484D02*
X9073634Y-12260008D01*
X9073634Y-12260008D02*
X9083158Y-12269531D01*
X9083158Y-12269531D02*
X9092682Y-12288579D01*
X9092682Y-12288579D02*
X9102205Y-12326674D01*
X9102205Y-12326674D02*
X9102205Y-12374293D01*
X9102205Y-12374293D02*
X9092682Y-12412388D01*
X9092682Y-12412388D02*
X9083158Y-12431436D01*
X9083158Y-12431436D02*
X9073634Y-12440960D01*
X9073634Y-12440960D02*
X9054586Y-12450484D01*
X9054586Y-12450484D02*
X9035539Y-12450484D01*
X9035539Y-12450484D02*
X9016491Y-12440960D01*
X9016491Y-12440960D02*
X9006967Y-12431436D01*
X9006967Y-12431436D02*
X8997444Y-12412388D01*
X8997444Y-12412388D02*
X8987920Y-12374293D01*
X8987920Y-12374293D02*
X8987920Y-12326674D01*
X8987920Y-12326674D02*
X8997444Y-12288579D01*
X8997444Y-12288579D02*
X9006967Y-12269531D01*
X9006967Y-12269531D02*
X9016491Y-12260008D01*
X9016491Y-12260008D02*
X9035539Y-12250484D01*
X9187920Y-12450484D02*
X9187920Y-12317150D01*
X9187920Y-12336198D02*
X9197444Y-12326674D01*
X9197444Y-12326674D02*
X9216491Y-12317150D01*
X9216491Y-12317150D02*
X9245063Y-12317150D01*
X9245063Y-12317150D02*
X9264110Y-12326674D01*
X9264110Y-12326674D02*
X9273634Y-12345722D01*
X9273634Y-12345722D02*
X9273634Y-12450484D01*
X9273634Y-12345722D02*
X9283158Y-12326674D01*
X9283158Y-12326674D02*
X9302205Y-12317150D01*
X9302205Y-12317150D02*
X9330777Y-12317150D01*
X9330777Y-12317150D02*
X9349825Y-12326674D01*
X9349825Y-12326674D02*
X9359348Y-12345722D01*
X9359348Y-12345722D02*
X9359348Y-12450484D01*
X9454586Y-12450484D02*
X9454586Y-12317150D01*
X9454586Y-12336198D02*
X9464110Y-12326674D01*
X9464110Y-12326674D02*
X9483158Y-12317150D01*
X9483158Y-12317150D02*
X9511729Y-12317150D01*
X9511729Y-12317150D02*
X9530777Y-12326674D01*
X9530777Y-12326674D02*
X9540301Y-12345722D01*
X9540301Y-12345722D02*
X9540301Y-12450484D01*
X9540301Y-12345722D02*
X9549825Y-12326674D01*
X9549825Y-12326674D02*
X9568872Y-12317150D01*
X9568872Y-12317150D02*
X9597444Y-12317150D01*
X9597444Y-12317150D02*
X9616491Y-12326674D01*
X9616491Y-12326674D02*
X9626015Y-12345722D01*
X9626015Y-12345722D02*
X9626015Y-12450484D01*
X10016491Y-12240960D02*
X9845063Y-12498103D01*
X10273634Y-12250484D02*
X10292682Y-12250484D01*
X10292682Y-12250484D02*
X10311729Y-12260008D01*
X10311729Y-12260008D02*
X10321253Y-12269531D01*
X10321253Y-12269531D02*
X10330777Y-12288579D01*
X10330777Y-12288579D02*
X10340301Y-12326674D01*
X10340301Y-12326674D02*
X10340301Y-12374293D01*
X10340301Y-12374293D02*
X10330777Y-12412388D01*
X10330777Y-12412388D02*
X10321253Y-12431436D01*
X10321253Y-12431436D02*
X10311729Y-12440960D01*
X10311729Y-12440960D02*
X10292682Y-12450484D01*
X10292682Y-12450484D02*
X10273634Y-12450484D01*
X10273634Y-12450484D02*
X10254587Y-12440960D01*
X10254587Y-12440960D02*
X10245063Y-12431436D01*
X10245063Y-12431436D02*
X10235539Y-12412388D01*
X10235539Y-12412388D02*
X10226015Y-12374293D01*
X10226015Y-12374293D02*
X10226015Y-12326674D01*
X10226015Y-12326674D02*
X10235539Y-12288579D01*
X10235539Y-12288579D02*
X10245063Y-12269531D01*
X10245063Y-12269531D02*
X10254587Y-12260008D01*
X10254587Y-12260008D02*
X10273634Y-12250484D01*
X10426015Y-12431436D02*
X10435539Y-12440960D01*
X10435539Y-12440960D02*
X10426015Y-12450484D01*
X10426015Y-12450484D02*
X10416491Y-12440960D01*
X10416491Y-12440960D02*
X10426015Y-12431436D01*
X10426015Y-12431436D02*
X10426015Y-12450484D01*
X10559348Y-12250484D02*
X10578396Y-12250484D01*
X10578396Y-12250484D02*
X10597444Y-12260008D01*
X10597444Y-12260008D02*
X10606968Y-12269531D01*
X10606968Y-12269531D02*
X10616491Y-12288579D01*
X10616491Y-12288579D02*
X10626015Y-12326674D01*
X10626015Y-12326674D02*
X10626015Y-12374293D01*
X10626015Y-12374293D02*
X10616491Y-12412388D01*
X10616491Y-12412388D02*
X10606968Y-12431436D01*
X10606968Y-12431436D02*
X10597444Y-12440960D01*
X10597444Y-12440960D02*
X10578396Y-12450484D01*
X10578396Y-12450484D02*
X10559348Y-12450484D01*
X10559348Y-12450484D02*
X10540301Y-12440960D01*
X10540301Y-12440960D02*
X10530777Y-12431436D01*
X10530777Y-12431436D02*
X10521253Y-12412388D01*
X10521253Y-12412388D02*
X10511729Y-12374293D01*
X10511729Y-12374293D02*
X10511729Y-12326674D01*
X10511729Y-12326674D02*
X10521253Y-12288579D01*
X10521253Y-12288579D02*
X10530777Y-12269531D01*
X10530777Y-12269531D02*
X10540301Y-12260008D01*
X10540301Y-12260008D02*
X10559348Y-12250484D01*
X10702206Y-12269531D02*
X10711729Y-12260008D01*
X10711729Y-12260008D02*
X10730777Y-12250484D01*
X10730777Y-12250484D02*
X10778396Y-12250484D01*
X10778396Y-12250484D02*
X10797444Y-12260008D01*
X10797444Y-12260008D02*
X10806968Y-12269531D01*
X10806968Y-12269531D02*
X10816491Y-12288579D01*
X10816491Y-12288579D02*
X10816491Y-12307627D01*
X10816491Y-12307627D02*
X10806968Y-12336198D01*
X10806968Y-12336198D02*
X10692682Y-12450484D01*
X10692682Y-12450484D02*
X10816491Y-12450484D01*
X10883158Y-12250484D02*
X11016491Y-12250484D01*
X11016491Y-12250484D02*
X10930777Y-12450484D01*
X11178396Y-12250484D02*
X11140301Y-12250484D01*
X11140301Y-12250484D02*
X11121253Y-12260008D01*
X11121253Y-12260008D02*
X11111729Y-12269531D01*
X11111729Y-12269531D02*
X11092682Y-12298103D01*
X11092682Y-12298103D02*
X11083158Y-12336198D01*
X11083158Y-12336198D02*
X11083158Y-12412388D01*
X11083158Y-12412388D02*
X11092682Y-12431436D01*
X11092682Y-12431436D02*
X11102206Y-12440960D01*
X11102206Y-12440960D02*
X11121253Y-12450484D01*
X11121253Y-12450484D02*
X11159349Y-12450484D01*
X11159349Y-12450484D02*
X11178396Y-12440960D01*
X11178396Y-12440960D02*
X11187920Y-12431436D01*
X11187920Y-12431436D02*
X11197444Y-12412388D01*
X11197444Y-12412388D02*
X11197444Y-12364769D01*
X11197444Y-12364769D02*
X11187920Y-12345722D01*
X11187920Y-12345722D02*
X11178396Y-12336198D01*
X11178396Y-12336198D02*
X11159349Y-12326674D01*
X11159349Y-12326674D02*
X11121253Y-12326674D01*
X11121253Y-12326674D02*
X11102206Y-12336198D01*
X11102206Y-12336198D02*
X11092682Y-12345722D01*
X11092682Y-12345722D02*
X11083158Y-12364769D01*
X11273634Y-12250484D02*
X11273634Y-12288579D01*
X11349825Y-12250484D02*
X11349825Y-12288579D01*
X11645063Y-12526674D02*
X11635539Y-12517150D01*
X11635539Y-12517150D02*
X11616491Y-12488579D01*
X11616491Y-12488579D02*
X11606968Y-12469531D01*
X11606968Y-12469531D02*
X11597444Y-12440960D01*
X11597444Y-12440960D02*
X11587920Y-12393341D01*
X11587920Y-12393341D02*
X11587920Y-12355246D01*
X11587920Y-12355246D02*
X11597444Y-12307627D01*
X11597444Y-12307627D02*
X11606968Y-12279055D01*
X11606968Y-12279055D02*
X11616491Y-12260008D01*
X11616491Y-12260008D02*
X11635539Y-12231436D01*
X11635539Y-12231436D02*
X11645063Y-12221912D01*
X11749825Y-12336198D02*
X11730777Y-12326674D01*
X11730777Y-12326674D02*
X11721253Y-12317150D01*
X11721253Y-12317150D02*
X11711729Y-12298103D01*
X11711729Y-12298103D02*
X11711729Y-12288579D01*
X11711729Y-12288579D02*
X11721253Y-12269531D01*
X11721253Y-12269531D02*
X11730777Y-12260008D01*
X11730777Y-12260008D02*
X11749825Y-12250484D01*
X11749825Y-12250484D02*
X11787920Y-12250484D01*
X11787920Y-12250484D02*
X11806968Y-12260008D01*
X11806968Y-12260008D02*
X11816491Y-12269531D01*
X11816491Y-12269531D02*
X11826015Y-12288579D01*
X11826015Y-12288579D02*
X11826015Y-12298103D01*
X11826015Y-12298103D02*
X11816491Y-12317150D01*
X11816491Y-12317150D02*
X11806968Y-12326674D01*
X11806968Y-12326674D02*
X11787920Y-12336198D01*
X11787920Y-12336198D02*
X11749825Y-12336198D01*
X11749825Y-12336198D02*
X11730777Y-12345722D01*
X11730777Y-12345722D02*
X11721253Y-12355246D01*
X11721253Y-12355246D02*
X11711729Y-12374293D01*
X11711729Y-12374293D02*
X11711729Y-12412388D01*
X11711729Y-12412388D02*
X11721253Y-12431436D01*
X11721253Y-12431436D02*
X11730777Y-12440960D01*
X11730777Y-12440960D02*
X11749825Y-12450484D01*
X11749825Y-12450484D02*
X11787920Y-12450484D01*
X11787920Y-12450484D02*
X11806968Y-12440960D01*
X11806968Y-12440960D02*
X11816491Y-12431436D01*
X11816491Y-12431436D02*
X11826015Y-12412388D01*
X11826015Y-12412388D02*
X11826015Y-12374293D01*
X11826015Y-12374293D02*
X11816491Y-12355246D01*
X11816491Y-12355246D02*
X11806968Y-12345722D01*
X11806968Y-12345722D02*
X11787920Y-12336198D01*
X12064110Y-12450484D02*
X12064110Y-12250484D01*
X12149825Y-12450484D02*
X12149825Y-12345722D01*
X12149825Y-12345722D02*
X12140301Y-12326674D01*
X12140301Y-12326674D02*
X12121253Y-12317150D01*
X12121253Y-12317150D02*
X12092682Y-12317150D01*
X12092682Y-12317150D02*
X12073634Y-12326674D01*
X12073634Y-12326674D02*
X12064110Y-12336198D01*
X12273634Y-12450484D02*
X12254587Y-12440960D01*
X12254587Y-12440960D02*
X12245063Y-12431436D01*
X12245063Y-12431436D02*
X12235539Y-12412388D01*
X12235539Y-12412388D02*
X12235539Y-12355246D01*
X12235539Y-12355246D02*
X12245063Y-12336198D01*
X12245063Y-12336198D02*
X12254587Y-12326674D01*
X12254587Y-12326674D02*
X12273634Y-12317150D01*
X12273634Y-12317150D02*
X12302206Y-12317150D01*
X12302206Y-12317150D02*
X12321253Y-12326674D01*
X12321253Y-12326674D02*
X12330777Y-12336198D01*
X12330777Y-12336198D02*
X12340301Y-12355246D01*
X12340301Y-12355246D02*
X12340301Y-12412388D01*
X12340301Y-12412388D02*
X12330777Y-12431436D01*
X12330777Y-12431436D02*
X12321253Y-12440960D01*
X12321253Y-12440960D02*
X12302206Y-12450484D01*
X12302206Y-12450484D02*
X12273634Y-12450484D01*
X12454587Y-12450484D02*
X12435539Y-12440960D01*
X12435539Y-12440960D02*
X12426015Y-12421912D01*
X12426015Y-12421912D02*
X12426015Y-12250484D01*
X12606968Y-12440960D02*
X12587920Y-12450484D01*
X12587920Y-12450484D02*
X12549825Y-12450484D01*
X12549825Y-12450484D02*
X12530777Y-12440960D01*
X12530777Y-12440960D02*
X12521253Y-12421912D01*
X12521253Y-12421912D02*
X12521253Y-12345722D01*
X12521253Y-12345722D02*
X12530777Y-12326674D01*
X12530777Y-12326674D02*
X12549825Y-12317150D01*
X12549825Y-12317150D02*
X12587920Y-12317150D01*
X12587920Y-12317150D02*
X12606968Y-12326674D01*
X12606968Y-12326674D02*
X12616491Y-12345722D01*
X12616491Y-12345722D02*
X12616491Y-12364769D01*
X12616491Y-12364769D02*
X12521253Y-12383817D01*
X12692682Y-12440960D02*
X12711730Y-12450484D01*
X12711730Y-12450484D02*
X12749825Y-12450484D01*
X12749825Y-12450484D02*
X12768872Y-12440960D01*
X12768872Y-12440960D02*
X12778396Y-12421912D01*
X12778396Y-12421912D02*
X12778396Y-12412388D01*
X12778396Y-12412388D02*
X12768872Y-12393341D01*
X12768872Y-12393341D02*
X12749825Y-12383817D01*
X12749825Y-12383817D02*
X12721253Y-12383817D01*
X12721253Y-12383817D02*
X12702206Y-12374293D01*
X12702206Y-12374293D02*
X12692682Y-12355246D01*
X12692682Y-12355246D02*
X12692682Y-12345722D01*
X12692682Y-12345722D02*
X12702206Y-12326674D01*
X12702206Y-12326674D02*
X12721253Y-12317150D01*
X12721253Y-12317150D02*
X12749825Y-12317150D01*
X12749825Y-12317150D02*
X12768872Y-12326674D01*
X12845063Y-12526674D02*
X12854587Y-12517150D01*
X12854587Y-12517150D02*
X12873634Y-12488579D01*
X12873634Y-12488579D02*
X12883158Y-12469531D01*
X12883158Y-12469531D02*
X12892682Y-12440960D01*
X12892682Y-12440960D02*
X12902206Y-12393341D01*
X12902206Y-12393341D02*
X12902206Y-12355246D01*
X12902206Y-12355246D02*
X12892682Y-12307627D01*
X12892682Y-12307627D02*
X12883158Y-12279055D01*
X12883158Y-12279055D02*
X12873634Y-12260008D01*
X12873634Y-12260008D02*
X12854587Y-12231436D01*
X12854587Y-12231436D02*
X12845063Y-12221912D01*
D14*
X8015000Y-12568000D02*
X8015000Y-12678000D01*
X7960000Y-12623000D02*
X8070000Y-12623000D01*
D11*
X8435539Y-12714484D02*
X8321253Y-12714484D01*
X8378396Y-12714484D02*
X8378396Y-12514484D01*
X8378396Y-12514484D02*
X8359348Y-12543055D01*
X8359348Y-12543055D02*
X8340301Y-12562103D01*
X8340301Y-12562103D02*
X8321253Y-12571627D01*
X8521253Y-12695436D02*
X8530777Y-12704960D01*
X8530777Y-12704960D02*
X8521253Y-12714484D01*
X8521253Y-12714484D02*
X8511729Y-12704960D01*
X8511729Y-12704960D02*
X8521253Y-12695436D01*
X8521253Y-12695436D02*
X8521253Y-12714484D01*
X8721253Y-12714484D02*
X8606967Y-12714484D01*
X8664110Y-12714484D02*
X8664110Y-12514484D01*
X8664110Y-12514484D02*
X8645063Y-12543055D01*
X8645063Y-12543055D02*
X8626015Y-12562103D01*
X8626015Y-12562103D02*
X8606967Y-12571627D01*
X8845063Y-12514484D02*
X8864110Y-12514484D01*
X8864110Y-12514484D02*
X8883158Y-12524008D01*
X8883158Y-12524008D02*
X8892682Y-12533531D01*
X8892682Y-12533531D02*
X8902205Y-12552579D01*
X8902205Y-12552579D02*
X8911729Y-12590674D01*
X8911729Y-12590674D02*
X8911729Y-12638293D01*
X8911729Y-12638293D02*
X8902205Y-12676388D01*
X8902205Y-12676388D02*
X8892682Y-12695436D01*
X8892682Y-12695436D02*
X8883158Y-12704960D01*
X8883158Y-12704960D02*
X8864110Y-12714484D01*
X8864110Y-12714484D02*
X8845063Y-12714484D01*
X8845063Y-12714484D02*
X8826015Y-12704960D01*
X8826015Y-12704960D02*
X8816491Y-12695436D01*
X8816491Y-12695436D02*
X8806967Y-12676388D01*
X8806967Y-12676388D02*
X8797444Y-12638293D01*
X8797444Y-12638293D02*
X8797444Y-12590674D01*
X8797444Y-12590674D02*
X8806967Y-12552579D01*
X8806967Y-12552579D02*
X8816491Y-12533531D01*
X8816491Y-12533531D02*
X8826015Y-12524008D01*
X8826015Y-12524008D02*
X8845063Y-12514484D01*
X9035539Y-12514484D02*
X9054586Y-12514484D01*
X9054586Y-12514484D02*
X9073634Y-12524008D01*
X9073634Y-12524008D02*
X9083158Y-12533531D01*
X9083158Y-12533531D02*
X9092682Y-12552579D01*
X9092682Y-12552579D02*
X9102205Y-12590674D01*
X9102205Y-12590674D02*
X9102205Y-12638293D01*
X9102205Y-12638293D02*
X9092682Y-12676388D01*
X9092682Y-12676388D02*
X9083158Y-12695436D01*
X9083158Y-12695436D02*
X9073634Y-12704960D01*
X9073634Y-12704960D02*
X9054586Y-12714484D01*
X9054586Y-12714484D02*
X9035539Y-12714484D01*
X9035539Y-12714484D02*
X9016491Y-12704960D01*
X9016491Y-12704960D02*
X9006967Y-12695436D01*
X9006967Y-12695436D02*
X8997444Y-12676388D01*
X8997444Y-12676388D02*
X8987920Y-12638293D01*
X8987920Y-12638293D02*
X8987920Y-12590674D01*
X8987920Y-12590674D02*
X8997444Y-12552579D01*
X8997444Y-12552579D02*
X9006967Y-12533531D01*
X9006967Y-12533531D02*
X9016491Y-12524008D01*
X9016491Y-12524008D02*
X9035539Y-12514484D01*
X9187920Y-12714484D02*
X9187920Y-12581150D01*
X9187920Y-12600198D02*
X9197444Y-12590674D01*
X9197444Y-12590674D02*
X9216491Y-12581150D01*
X9216491Y-12581150D02*
X9245063Y-12581150D01*
X9245063Y-12581150D02*
X9264110Y-12590674D01*
X9264110Y-12590674D02*
X9273634Y-12609722D01*
X9273634Y-12609722D02*
X9273634Y-12714484D01*
X9273634Y-12609722D02*
X9283158Y-12590674D01*
X9283158Y-12590674D02*
X9302205Y-12581150D01*
X9302205Y-12581150D02*
X9330777Y-12581150D01*
X9330777Y-12581150D02*
X9349825Y-12590674D01*
X9349825Y-12590674D02*
X9359348Y-12609722D01*
X9359348Y-12609722D02*
X9359348Y-12714484D01*
X9454586Y-12714484D02*
X9454586Y-12581150D01*
X9454586Y-12600198D02*
X9464110Y-12590674D01*
X9464110Y-12590674D02*
X9483158Y-12581150D01*
X9483158Y-12581150D02*
X9511729Y-12581150D01*
X9511729Y-12581150D02*
X9530777Y-12590674D01*
X9530777Y-12590674D02*
X9540301Y-12609722D01*
X9540301Y-12609722D02*
X9540301Y-12714484D01*
X9540301Y-12609722D02*
X9549825Y-12590674D01*
X9549825Y-12590674D02*
X9568872Y-12581150D01*
X9568872Y-12581150D02*
X9597444Y-12581150D01*
X9597444Y-12581150D02*
X9616491Y-12590674D01*
X9616491Y-12590674D02*
X9626015Y-12609722D01*
X9626015Y-12609722D02*
X9626015Y-12714484D01*
X10016491Y-12504960D02*
X9845063Y-12762103D01*
X10273634Y-12514484D02*
X10292682Y-12514484D01*
X10292682Y-12514484D02*
X10311729Y-12524008D01*
X10311729Y-12524008D02*
X10321253Y-12533531D01*
X10321253Y-12533531D02*
X10330777Y-12552579D01*
X10330777Y-12552579D02*
X10340301Y-12590674D01*
X10340301Y-12590674D02*
X10340301Y-12638293D01*
X10340301Y-12638293D02*
X10330777Y-12676388D01*
X10330777Y-12676388D02*
X10321253Y-12695436D01*
X10321253Y-12695436D02*
X10311729Y-12704960D01*
X10311729Y-12704960D02*
X10292682Y-12714484D01*
X10292682Y-12714484D02*
X10273634Y-12714484D01*
X10273634Y-12714484D02*
X10254587Y-12704960D01*
X10254587Y-12704960D02*
X10245063Y-12695436D01*
X10245063Y-12695436D02*
X10235539Y-12676388D01*
X10235539Y-12676388D02*
X10226015Y-12638293D01*
X10226015Y-12638293D02*
X10226015Y-12590674D01*
X10226015Y-12590674D02*
X10235539Y-12552579D01*
X10235539Y-12552579D02*
X10245063Y-12533531D01*
X10245063Y-12533531D02*
X10254587Y-12524008D01*
X10254587Y-12524008D02*
X10273634Y-12514484D01*
X10426015Y-12695436D02*
X10435539Y-12704960D01*
X10435539Y-12704960D02*
X10426015Y-12714484D01*
X10426015Y-12714484D02*
X10416491Y-12704960D01*
X10416491Y-12704960D02*
X10426015Y-12695436D01*
X10426015Y-12695436D02*
X10426015Y-12714484D01*
X10559348Y-12514484D02*
X10578396Y-12514484D01*
X10578396Y-12514484D02*
X10597444Y-12524008D01*
X10597444Y-12524008D02*
X10606968Y-12533531D01*
X10606968Y-12533531D02*
X10616491Y-12552579D01*
X10616491Y-12552579D02*
X10626015Y-12590674D01*
X10626015Y-12590674D02*
X10626015Y-12638293D01*
X10626015Y-12638293D02*
X10616491Y-12676388D01*
X10616491Y-12676388D02*
X10606968Y-12695436D01*
X10606968Y-12695436D02*
X10597444Y-12704960D01*
X10597444Y-12704960D02*
X10578396Y-12714484D01*
X10578396Y-12714484D02*
X10559348Y-12714484D01*
X10559348Y-12714484D02*
X10540301Y-12704960D01*
X10540301Y-12704960D02*
X10530777Y-12695436D01*
X10530777Y-12695436D02*
X10521253Y-12676388D01*
X10521253Y-12676388D02*
X10511729Y-12638293D01*
X10511729Y-12638293D02*
X10511729Y-12590674D01*
X10511729Y-12590674D02*
X10521253Y-12552579D01*
X10521253Y-12552579D02*
X10530777Y-12533531D01*
X10530777Y-12533531D02*
X10540301Y-12524008D01*
X10540301Y-12524008D02*
X10559348Y-12514484D01*
X10797444Y-12581150D02*
X10797444Y-12714484D01*
X10749825Y-12504960D02*
X10702206Y-12647817D01*
X10702206Y-12647817D02*
X10826015Y-12647817D01*
X10883158Y-12514484D02*
X11006968Y-12514484D01*
X11006968Y-12514484D02*
X10940301Y-12590674D01*
X10940301Y-12590674D02*
X10968872Y-12590674D01*
X10968872Y-12590674D02*
X10987920Y-12600198D01*
X10987920Y-12600198D02*
X10997444Y-12609722D01*
X10997444Y-12609722D02*
X11006968Y-12628769D01*
X11006968Y-12628769D02*
X11006968Y-12676388D01*
X11006968Y-12676388D02*
X10997444Y-12695436D01*
X10997444Y-12695436D02*
X10987920Y-12704960D01*
X10987920Y-12704960D02*
X10968872Y-12714484D01*
X10968872Y-12714484D02*
X10911729Y-12714484D01*
X10911729Y-12714484D02*
X10892682Y-12704960D01*
X10892682Y-12704960D02*
X10883158Y-12695436D01*
X11073634Y-12514484D02*
X11197444Y-12514484D01*
X11197444Y-12514484D02*
X11130777Y-12590674D01*
X11130777Y-12590674D02*
X11159349Y-12590674D01*
X11159349Y-12590674D02*
X11178396Y-12600198D01*
X11178396Y-12600198D02*
X11187920Y-12609722D01*
X11187920Y-12609722D02*
X11197444Y-12628769D01*
X11197444Y-12628769D02*
X11197444Y-12676388D01*
X11197444Y-12676388D02*
X11187920Y-12695436D01*
X11187920Y-12695436D02*
X11178396Y-12704960D01*
X11178396Y-12704960D02*
X11159349Y-12714484D01*
X11159349Y-12714484D02*
X11102206Y-12714484D01*
X11102206Y-12714484D02*
X11083158Y-12704960D01*
X11083158Y-12704960D02*
X11073634Y-12695436D01*
X11273634Y-12514484D02*
X11273634Y-12552579D01*
X11349825Y-12514484D02*
X11349825Y-12552579D01*
X11645063Y-12790674D02*
X11635539Y-12781150D01*
X11635539Y-12781150D02*
X11616491Y-12752579D01*
X11616491Y-12752579D02*
X11606968Y-12733531D01*
X11606968Y-12733531D02*
X11597444Y-12704960D01*
X11597444Y-12704960D02*
X11587920Y-12657341D01*
X11587920Y-12657341D02*
X11587920Y-12619246D01*
X11587920Y-12619246D02*
X11597444Y-12571627D01*
X11597444Y-12571627D02*
X11606968Y-12543055D01*
X11606968Y-12543055D02*
X11616491Y-12524008D01*
X11616491Y-12524008D02*
X11635539Y-12495436D01*
X11635539Y-12495436D02*
X11645063Y-12485912D01*
X11826015Y-12714484D02*
X11711729Y-12714484D01*
X11768872Y-12714484D02*
X11768872Y-12514484D01*
X11768872Y-12514484D02*
X11749825Y-12543055D01*
X11749825Y-12543055D02*
X11730777Y-12562103D01*
X11730777Y-12562103D02*
X11711729Y-12571627D01*
X11949825Y-12514484D02*
X11968872Y-12514484D01*
X11968872Y-12514484D02*
X11987920Y-12524008D01*
X11987920Y-12524008D02*
X11997444Y-12533531D01*
X11997444Y-12533531D02*
X12006968Y-12552579D01*
X12006968Y-12552579D02*
X12016491Y-12590674D01*
X12016491Y-12590674D02*
X12016491Y-12638293D01*
X12016491Y-12638293D02*
X12006968Y-12676388D01*
X12006968Y-12676388D02*
X11997444Y-12695436D01*
X11997444Y-12695436D02*
X11987920Y-12704960D01*
X11987920Y-12704960D02*
X11968872Y-12714484D01*
X11968872Y-12714484D02*
X11949825Y-12714484D01*
X11949825Y-12714484D02*
X11930777Y-12704960D01*
X11930777Y-12704960D02*
X11921253Y-12695436D01*
X11921253Y-12695436D02*
X11911729Y-12676388D01*
X11911729Y-12676388D02*
X11902206Y-12638293D01*
X11902206Y-12638293D02*
X11902206Y-12590674D01*
X11902206Y-12590674D02*
X11911729Y-12552579D01*
X11911729Y-12552579D02*
X11921253Y-12533531D01*
X11921253Y-12533531D02*
X11930777Y-12524008D01*
X11930777Y-12524008D02*
X11949825Y-12514484D01*
X12254587Y-12714484D02*
X12254587Y-12514484D01*
X12340301Y-12714484D02*
X12340301Y-12609722D01*
X12340301Y-12609722D02*
X12330777Y-12590674D01*
X12330777Y-12590674D02*
X12311730Y-12581150D01*
X12311730Y-12581150D02*
X12283158Y-12581150D01*
X12283158Y-12581150D02*
X12264110Y-12590674D01*
X12264110Y-12590674D02*
X12254587Y-12600198D01*
X12464110Y-12714484D02*
X12445063Y-12704960D01*
X12445063Y-12704960D02*
X12435539Y-12695436D01*
X12435539Y-12695436D02*
X12426015Y-12676388D01*
X12426015Y-12676388D02*
X12426015Y-12619246D01*
X12426015Y-12619246D02*
X12435539Y-12600198D01*
X12435539Y-12600198D02*
X12445063Y-12590674D01*
X12445063Y-12590674D02*
X12464110Y-12581150D01*
X12464110Y-12581150D02*
X12492682Y-12581150D01*
X12492682Y-12581150D02*
X12511730Y-12590674D01*
X12511730Y-12590674D02*
X12521253Y-12600198D01*
X12521253Y-12600198D02*
X12530777Y-12619246D01*
X12530777Y-12619246D02*
X12530777Y-12676388D01*
X12530777Y-12676388D02*
X12521253Y-12695436D01*
X12521253Y-12695436D02*
X12511730Y-12704960D01*
X12511730Y-12704960D02*
X12492682Y-12714484D01*
X12492682Y-12714484D02*
X12464110Y-12714484D01*
X12645063Y-12714484D02*
X12626015Y-12704960D01*
X12626015Y-12704960D02*
X12616491Y-12685912D01*
X12616491Y-12685912D02*
X12616491Y-12514484D01*
X12797444Y-12704960D02*
X12778396Y-12714484D01*
X12778396Y-12714484D02*
X12740301Y-12714484D01*
X12740301Y-12714484D02*
X12721253Y-12704960D01*
X12721253Y-12704960D02*
X12711730Y-12685912D01*
X12711730Y-12685912D02*
X12711730Y-12609722D01*
X12711730Y-12609722D02*
X12721253Y-12590674D01*
X12721253Y-12590674D02*
X12740301Y-12581150D01*
X12740301Y-12581150D02*
X12778396Y-12581150D01*
X12778396Y-12581150D02*
X12797444Y-12590674D01*
X12797444Y-12590674D02*
X12806968Y-12609722D01*
X12806968Y-12609722D02*
X12806968Y-12628769D01*
X12806968Y-12628769D02*
X12711730Y-12647817D01*
X12883158Y-12704960D02*
X12902206Y-12714484D01*
X12902206Y-12714484D02*
X12940301Y-12714484D01*
X12940301Y-12714484D02*
X12959349Y-12704960D01*
X12959349Y-12704960D02*
X12968872Y-12685912D01*
X12968872Y-12685912D02*
X12968872Y-12676388D01*
X12968872Y-12676388D02*
X12959349Y-12657341D01*
X12959349Y-12657341D02*
X12940301Y-12647817D01*
X12940301Y-12647817D02*
X12911730Y-12647817D01*
X12911730Y-12647817D02*
X12892682Y-12638293D01*
X12892682Y-12638293D02*
X12883158Y-12619246D01*
X12883158Y-12619246D02*
X12883158Y-12609722D01*
X12883158Y-12609722D02*
X12892682Y-12590674D01*
X12892682Y-12590674D02*
X12911730Y-12581150D01*
X12911730Y-12581150D02*
X12940301Y-12581150D01*
X12940301Y-12581150D02*
X12959349Y-12590674D01*
X13035539Y-12790674D02*
X13045063Y-12781150D01*
X13045063Y-12781150D02*
X13064111Y-12752579D01*
X13064111Y-12752579D02*
X13073634Y-12733531D01*
X13073634Y-12733531D02*
X13083158Y-12704960D01*
X13083158Y-12704960D02*
X13092682Y-12657341D01*
X13092682Y-12657341D02*
X13092682Y-12619246D01*
X13092682Y-12619246D02*
X13083158Y-12571627D01*
X13083158Y-12571627D02*
X13073634Y-12543055D01*
X13073634Y-12543055D02*
X13064111Y-12524008D01*
X13064111Y-12524008D02*
X13045063Y-12495436D01*
X13045063Y-12495436D02*
X13035539Y-12485912D01*
M02*
