G04 #@! TF.GenerationSoftware,KiCad,Pcbnew,7.0.6-0*
G04 #@! TF.CreationDate,2023-08-27T09:50:28-04:00*
G04 #@! TF.ProjectId,edge triggered monostable,65646765-2074-4726-9967-676572656420,1.0*
G04 #@! TF.SameCoordinates,Original*
G04 #@! TF.FileFunction,Copper,L2,Bot*
G04 #@! TF.FilePolarity,Positive*
%FSLAX46Y46*%
G04 Gerber Fmt 4.6, Leading zero omitted, Abs format (unit mm)*
G04 Created by KiCad (PCBNEW 7.0.6-0) date 2023-08-27 09:50:28*
%MOMM*%
%LPD*%
G01*
G04 APERTURE LIST*
G04 #@! TA.AperFunction,ComponentPad*
%ADD10R,2.000000X2.000000*%
G04 #@! TD*
G04 #@! TA.AperFunction,ComponentPad*
%ADD11C,2.000000*%
G04 #@! TD*
G04 #@! TA.AperFunction,ComponentPad*
%ADD12R,2.100000X2.100000*%
G04 #@! TD*
G04 #@! TA.AperFunction,ComponentPad*
%ADD13C,2.100000*%
G04 #@! TD*
G04 #@! TA.AperFunction,WasherPad*
%ADD14C,5.500000*%
G04 #@! TD*
G04 #@! TA.AperFunction,ViaPad*
%ADD15C,0.800000*%
G04 #@! TD*
G04 APERTURE END LIST*
D10*
X127642500Y-106762500D03*
D11*
X135262500Y-106762500D03*
X140342500Y-106762500D03*
X145422500Y-106762500D03*
X145422500Y-99142500D03*
X140342500Y-99142500D03*
X135262500Y-99142500D03*
X127642500Y-99142500D03*
D12*
X153500000Y-95020000D03*
D13*
X153500000Y-92480000D03*
D12*
X153500000Y-101770000D03*
D13*
X153500000Y-99230000D03*
D12*
X153500000Y-108520000D03*
D13*
X153500000Y-105980000D03*
D12*
X92000000Y-94460000D03*
D13*
X92000000Y-97000000D03*
D12*
X92000000Y-103960000D03*
D13*
X92000000Y-106500000D03*
D14*
X164000000Y-111000000D03*
X84000000Y-111000000D03*
X84000000Y-90000000D03*
X164000000Y-90000000D03*
D15*
X118000000Y-107200000D03*
X111000000Y-108500000D03*
X114500000Y-108600000D03*
X99000000Y-108600000D03*
X105200000Y-98100000D03*
X107000000Y-109900000D03*
G04 #@! TA.AperFunction,Conductor*
G36*
X162677977Y-86820185D02*
G01*
X162723732Y-86872989D01*
X162733676Y-86942147D01*
X162704651Y-87005703D01*
X162663004Y-87037039D01*
X162475210Y-87123921D01*
X162475197Y-87123928D01*
X162173184Y-87305644D01*
X161892589Y-87518946D01*
X161892580Y-87518954D01*
X161636685Y-87761350D01*
X161408505Y-88029983D01*
X161408498Y-88029993D01*
X161210695Y-88321730D01*
X161045597Y-88633137D01*
X161045588Y-88633155D01*
X160915127Y-88960589D01*
X160915126Y-88960591D01*
X160820834Y-89300203D01*
X160820833Y-89300206D01*
X160763808Y-89648045D01*
X160744726Y-89999997D01*
X160744726Y-90000002D01*
X160763808Y-90351954D01*
X160820833Y-90699793D01*
X160820834Y-90699796D01*
X160915126Y-91039408D01*
X160915127Y-91039410D01*
X161045588Y-91366844D01*
X161045597Y-91366862D01*
X161052690Y-91380241D01*
X161210695Y-91678269D01*
X161324314Y-91845845D01*
X161408498Y-91970006D01*
X161408505Y-91970016D01*
X161635028Y-92236698D01*
X161636686Y-92238650D01*
X161892580Y-92481046D01*
X162173182Y-92694354D01*
X162475202Y-92876074D01*
X162475206Y-92876075D01*
X162475210Y-92876078D01*
X162795088Y-93024070D01*
X162795092Y-93024070D01*
X162795099Y-93024074D01*
X163129122Y-93136619D01*
X163473355Y-93212391D01*
X163823763Y-93250500D01*
X163823769Y-93250500D01*
X164176231Y-93250500D01*
X164176237Y-93250500D01*
X164526645Y-93212391D01*
X164870878Y-93136619D01*
X165204901Y-93024074D01*
X165204908Y-93024070D01*
X165204911Y-93024070D01*
X165524789Y-92876078D01*
X165524798Y-92876074D01*
X165826818Y-92694354D01*
X166107420Y-92481046D01*
X166363314Y-92238650D01*
X166591501Y-91970008D01*
X166789305Y-91678269D01*
X166954407Y-91366854D01*
X166954410Y-91366844D01*
X166954414Y-91366838D01*
X166960307Y-91352048D01*
X167003406Y-91297055D01*
X167069396Y-91274094D01*
X167137323Y-91290455D01*
X167185622Y-91340942D01*
X167199500Y-91397944D01*
X167199500Y-109602055D01*
X167179815Y-109669094D01*
X167127011Y-109714849D01*
X167057853Y-109724793D01*
X166994297Y-109695768D01*
X166960307Y-109647953D01*
X166958107Y-109642434D01*
X166954407Y-109633146D01*
X166789305Y-109321731D01*
X166591501Y-109029992D01*
X166591497Y-109029987D01*
X166591494Y-109029983D01*
X166363314Y-108761350D01*
X166107420Y-108518954D01*
X166107413Y-108518948D01*
X166107410Y-108518946D01*
X165826815Y-108305644D01*
X165524802Y-108123928D01*
X165524789Y-108123921D01*
X165204911Y-107975929D01*
X165204906Y-107975928D01*
X165204903Y-107975927D01*
X165204901Y-107975926D01*
X165098432Y-107940052D01*
X164870880Y-107863381D01*
X164526643Y-107787608D01*
X164176238Y-107749500D01*
X164176237Y-107749500D01*
X163823763Y-107749500D01*
X163823761Y-107749500D01*
X163473356Y-107787608D01*
X163129119Y-107863381D01*
X162795093Y-107975928D01*
X162795088Y-107975929D01*
X162475210Y-108123921D01*
X162475197Y-108123928D01*
X162173184Y-108305644D01*
X161892589Y-108518946D01*
X161892580Y-108518954D01*
X161636685Y-108761350D01*
X161408505Y-109029983D01*
X161408498Y-109029993D01*
X161210695Y-109321730D01*
X161045597Y-109633137D01*
X161045588Y-109633155D01*
X160915127Y-109960589D01*
X160915126Y-109960591D01*
X160820834Y-110300203D01*
X160820833Y-110300206D01*
X160763808Y-110648045D01*
X160744726Y-110999997D01*
X160744726Y-111000002D01*
X160763808Y-111351954D01*
X160820833Y-111699793D01*
X160820834Y-111699796D01*
X160915126Y-112039408D01*
X160915127Y-112039410D01*
X161045588Y-112366844D01*
X161045597Y-112366862D01*
X161062076Y-112397944D01*
X161210695Y-112678269D01*
X161324314Y-112845845D01*
X161408498Y-112970006D01*
X161408505Y-112970016D01*
X161636685Y-113238649D01*
X161636686Y-113238650D01*
X161892580Y-113481046D01*
X162173182Y-113694354D01*
X162475202Y-113876074D01*
X162475206Y-113876075D01*
X162475210Y-113876078D01*
X162663004Y-113962961D01*
X162715582Y-114008975D01*
X162734936Y-114076111D01*
X162714922Y-114143052D01*
X162661893Y-114188547D01*
X162610938Y-114199500D01*
X85389062Y-114199500D01*
X85322023Y-114179815D01*
X85276268Y-114127011D01*
X85266324Y-114057853D01*
X85295349Y-113994297D01*
X85336996Y-113962961D01*
X85524789Y-113876078D01*
X85524798Y-113876074D01*
X85826818Y-113694354D01*
X86107420Y-113481046D01*
X86363314Y-113238650D01*
X86591501Y-112970008D01*
X86789305Y-112678269D01*
X86954407Y-112366854D01*
X87084871Y-112039414D01*
X87179168Y-111699788D01*
X87236191Y-111351957D01*
X87255274Y-111000000D01*
X87236191Y-110648043D01*
X87179168Y-110300212D01*
X87115389Y-110070500D01*
X87084873Y-109960591D01*
X87084872Y-109960589D01*
X86954411Y-109633155D01*
X86954402Y-109633137D01*
X86946305Y-109617864D01*
X86789305Y-109321731D01*
X86591501Y-109029992D01*
X86591497Y-109029987D01*
X86591494Y-109029983D01*
X86363314Y-108761350D01*
X86363314Y-108761349D01*
X86107420Y-108518954D01*
X86107413Y-108518948D01*
X86107410Y-108518946D01*
X85826815Y-108305644D01*
X85524802Y-108123928D01*
X85524789Y-108123921D01*
X85204911Y-107975929D01*
X85204906Y-107975928D01*
X85204903Y-107975927D01*
X85204901Y-107975926D01*
X85098432Y-107940052D01*
X84870880Y-107863381D01*
X84526643Y-107787608D01*
X84176238Y-107749500D01*
X84176237Y-107749500D01*
X83823763Y-107749500D01*
X83823761Y-107749500D01*
X83473356Y-107787608D01*
X83129119Y-107863381D01*
X82795093Y-107975928D01*
X82795088Y-107975929D01*
X82475210Y-108123921D01*
X82475197Y-108123928D01*
X82173184Y-108305644D01*
X81892589Y-108518946D01*
X81892580Y-108518954D01*
X81636685Y-108761350D01*
X81408505Y-109029983D01*
X81408498Y-109029993D01*
X81277133Y-109223742D01*
X81223219Y-109268183D01*
X81153837Y-109276421D01*
X81091015Y-109245840D01*
X81054699Y-109186150D01*
X81050500Y-109154155D01*
X81050500Y-106500000D01*
X90444706Y-106500000D01*
X90463853Y-106743297D01*
X90463853Y-106743300D01*
X90463854Y-106743302D01*
X90510670Y-106938303D01*
X90520830Y-106980619D01*
X90614222Y-107206089D01*
X90741737Y-107414173D01*
X90741738Y-107414176D01*
X90748529Y-107422127D01*
X90900241Y-107599759D01*
X91002721Y-107687285D01*
X91085823Y-107758261D01*
X91085826Y-107758262D01*
X91293910Y-107885777D01*
X91475347Y-107960930D01*
X91511551Y-107975926D01*
X91519381Y-107979169D01*
X91519378Y-107979169D01*
X91519384Y-107979170D01*
X91519388Y-107979172D01*
X91756698Y-108036146D01*
X92000000Y-108055294D01*
X92243302Y-108036146D01*
X92480612Y-107979172D01*
X92706089Y-107885777D01*
X92829142Y-107810370D01*
X126142000Y-107810370D01*
X126142001Y-107810376D01*
X126148408Y-107869983D01*
X126198702Y-108004828D01*
X126198706Y-108004835D01*
X126284952Y-108120044D01*
X126284955Y-108120047D01*
X126400164Y-108206293D01*
X126400171Y-108206297D01*
X126535017Y-108256591D01*
X126535016Y-108256591D01*
X126541944Y-108257335D01*
X126594627Y-108263000D01*
X128690372Y-108262999D01*
X128749983Y-108256591D01*
X128884831Y-108206296D01*
X129000046Y-108120046D01*
X129086296Y-108004831D01*
X129136591Y-107869983D01*
X129143000Y-107810373D01*
X129143000Y-106762505D01*
X133756857Y-106762505D01*
X133777390Y-107010312D01*
X133777392Y-107010324D01*
X133838436Y-107251381D01*
X133938326Y-107479106D01*
X134074333Y-107687282D01*
X134074336Y-107687285D01*
X134242756Y-107870238D01*
X134438991Y-108022974D01*
X134657690Y-108141328D01*
X134892886Y-108222071D01*
X135138165Y-108263000D01*
X135386835Y-108263000D01*
X135632114Y-108222071D01*
X135867310Y-108141328D01*
X136086009Y-108022974D01*
X136282244Y-107870238D01*
X136450664Y-107687285D01*
X136586673Y-107479107D01*
X136686563Y-107251381D01*
X136747608Y-107010321D01*
X136748057Y-107004905D01*
X136768143Y-106762505D01*
X138836857Y-106762505D01*
X138857390Y-107010312D01*
X138857392Y-107010324D01*
X138918436Y-107251381D01*
X139018326Y-107479106D01*
X139154333Y-107687282D01*
X139154336Y-107687285D01*
X139322756Y-107870238D01*
X139518991Y-108022974D01*
X139737690Y-108141328D01*
X139972886Y-108222071D01*
X140218165Y-108263000D01*
X140466835Y-108263000D01*
X140712114Y-108222071D01*
X140947310Y-108141328D01*
X141166009Y-108022974D01*
X141362244Y-107870238D01*
X141530664Y-107687285D01*
X141666673Y-107479107D01*
X141766563Y-107251381D01*
X141827608Y-107010321D01*
X141828057Y-107004905D01*
X141848143Y-106762505D01*
X143916857Y-106762505D01*
X143937390Y-107010312D01*
X143937392Y-107010324D01*
X143998436Y-107251381D01*
X144098326Y-107479106D01*
X144234333Y-107687282D01*
X144234336Y-107687285D01*
X144402756Y-107870238D01*
X144598991Y-108022974D01*
X144817690Y-108141328D01*
X145052886Y-108222071D01*
X145298165Y-108263000D01*
X145546835Y-108263000D01*
X145792114Y-108222071D01*
X146027310Y-108141328D01*
X146246009Y-108022974D01*
X146442244Y-107870238D01*
X146610664Y-107687285D01*
X146746673Y-107479107D01*
X146846563Y-107251381D01*
X146907608Y-107010321D01*
X146908057Y-107004905D01*
X146928143Y-106762505D01*
X146928143Y-106762494D01*
X146907609Y-106514687D01*
X146907607Y-106514675D01*
X146846563Y-106273618D01*
X146746673Y-106045893D01*
X146703623Y-105980000D01*
X151944706Y-105980000D01*
X151963853Y-106223297D01*
X152020830Y-106460619D01*
X152114222Y-106686089D01*
X152227449Y-106870857D01*
X152245694Y-106938303D01*
X152224578Y-107004905D01*
X152196034Y-107034913D01*
X152092452Y-107112455D01*
X152006206Y-107227664D01*
X152006202Y-107227671D01*
X151955908Y-107362517D01*
X151949501Y-107422116D01*
X151949501Y-107422123D01*
X151949500Y-107422135D01*
X151949500Y-109617870D01*
X151949501Y-109617876D01*
X151955908Y-109677483D01*
X152006202Y-109812328D01*
X152006206Y-109812335D01*
X152092452Y-109927544D01*
X152092455Y-109927547D01*
X152207664Y-110013793D01*
X152207671Y-110013797D01*
X152342517Y-110064091D01*
X152342516Y-110064091D01*
X152349444Y-110064835D01*
X152402127Y-110070500D01*
X154597872Y-110070499D01*
X154657483Y-110064091D01*
X154792331Y-110013796D01*
X154907546Y-109927546D01*
X154993796Y-109812331D01*
X155044091Y-109677483D01*
X155050500Y-109617873D01*
X155050499Y-107422128D01*
X155044091Y-107362517D01*
X154993796Y-107227669D01*
X154993795Y-107227668D01*
X154993793Y-107227664D01*
X154907547Y-107112455D01*
X154907544Y-107112452D01*
X154803966Y-107034913D01*
X154762095Y-106978979D01*
X154757111Y-106909288D01*
X154772548Y-106870860D01*
X154885777Y-106686089D01*
X154979172Y-106460612D01*
X155036146Y-106223302D01*
X155055294Y-105980000D01*
X155036146Y-105736698D01*
X154979172Y-105499388D01*
X154969109Y-105475094D01*
X154885777Y-105273910D01*
X154758262Y-105065826D01*
X154758261Y-105065823D01*
X154722453Y-105023897D01*
X154599759Y-104880241D01*
X154477063Y-104775449D01*
X154414176Y-104721738D01*
X154414173Y-104721737D01*
X154206089Y-104594222D01*
X153980618Y-104500830D01*
X153980621Y-104500830D01*
X153874992Y-104475470D01*
X153743302Y-104443854D01*
X153743300Y-104443853D01*
X153743297Y-104443853D01*
X153500000Y-104424706D01*
X153256702Y-104443853D01*
X153019380Y-104500830D01*
X152793910Y-104594222D01*
X152585826Y-104721737D01*
X152585823Y-104721738D01*
X152400241Y-104880241D01*
X152241738Y-105065823D01*
X152241737Y-105065826D01*
X152114222Y-105273910D01*
X152020830Y-105499380D01*
X152020828Y-105499387D01*
X152020828Y-105499388D01*
X152020195Y-105502024D01*
X151963853Y-105736702D01*
X151944706Y-105980000D01*
X146703623Y-105980000D01*
X146610666Y-105837717D01*
X146589057Y-105814244D01*
X146442244Y-105654762D01*
X146246009Y-105502026D01*
X146246007Y-105502025D01*
X146246006Y-105502024D01*
X146027311Y-105383672D01*
X146027302Y-105383669D01*
X145792116Y-105302929D01*
X145546835Y-105262000D01*
X145298165Y-105262000D01*
X145052883Y-105302929D01*
X144817697Y-105383669D01*
X144817688Y-105383672D01*
X144598993Y-105502024D01*
X144402757Y-105654761D01*
X144234333Y-105837717D01*
X144098326Y-106045893D01*
X143998436Y-106273618D01*
X143937392Y-106514675D01*
X143937390Y-106514687D01*
X143916857Y-106762494D01*
X143916857Y-106762505D01*
X141848143Y-106762505D01*
X141848143Y-106762494D01*
X141827609Y-106514687D01*
X141827607Y-106514675D01*
X141766563Y-106273618D01*
X141666673Y-106045893D01*
X141530666Y-105837717D01*
X141509057Y-105814244D01*
X141362244Y-105654762D01*
X141166009Y-105502026D01*
X141166007Y-105502025D01*
X141166006Y-105502024D01*
X140947311Y-105383672D01*
X140947302Y-105383669D01*
X140712116Y-105302929D01*
X140466835Y-105262000D01*
X140218165Y-105262000D01*
X139972883Y-105302929D01*
X139737697Y-105383669D01*
X139737688Y-105383672D01*
X139518993Y-105502024D01*
X139322757Y-105654761D01*
X139154333Y-105837717D01*
X139018326Y-106045893D01*
X138918436Y-106273618D01*
X138857392Y-106514675D01*
X138857390Y-106514687D01*
X138836857Y-106762494D01*
X138836857Y-106762505D01*
X136768143Y-106762505D01*
X136768143Y-106762494D01*
X136747609Y-106514687D01*
X136747607Y-106514675D01*
X136686563Y-106273618D01*
X136586673Y-106045893D01*
X136450666Y-105837717D01*
X136429057Y-105814244D01*
X136282244Y-105654762D01*
X136086009Y-105502026D01*
X136086007Y-105502025D01*
X136086006Y-105502024D01*
X135867311Y-105383672D01*
X135867302Y-105383669D01*
X135632116Y-105302929D01*
X135386835Y-105262000D01*
X135138165Y-105262000D01*
X134892883Y-105302929D01*
X134657697Y-105383669D01*
X134657688Y-105383672D01*
X134438993Y-105502024D01*
X134242757Y-105654761D01*
X134074333Y-105837717D01*
X133938326Y-106045893D01*
X133838436Y-106273618D01*
X133777392Y-106514675D01*
X133777390Y-106514687D01*
X133756857Y-106762494D01*
X133756857Y-106762505D01*
X129143000Y-106762505D01*
X129142999Y-105714628D01*
X129136591Y-105655017D01*
X129094325Y-105541697D01*
X129086297Y-105520171D01*
X129086293Y-105520164D01*
X129000047Y-105404955D01*
X129000044Y-105404952D01*
X128884835Y-105318706D01*
X128884828Y-105318702D01*
X128749982Y-105268408D01*
X128749983Y-105268408D01*
X128690383Y-105262001D01*
X128690381Y-105262000D01*
X128690373Y-105262000D01*
X128690364Y-105262000D01*
X126594629Y-105262000D01*
X126594623Y-105262001D01*
X126535016Y-105268408D01*
X126400171Y-105318702D01*
X126400164Y-105318706D01*
X126284955Y-105404952D01*
X126284952Y-105404955D01*
X126198706Y-105520164D01*
X126198702Y-105520171D01*
X126148408Y-105655017D01*
X126142001Y-105714616D01*
X126142001Y-105714623D01*
X126142000Y-105714635D01*
X126142000Y-107810370D01*
X92829142Y-107810370D01*
X92914179Y-107758259D01*
X93099759Y-107599759D01*
X93258259Y-107414179D01*
X93385777Y-107206089D01*
X93479172Y-106980612D01*
X93536146Y-106743302D01*
X93555294Y-106500000D01*
X93536146Y-106256698D01*
X93479172Y-106019388D01*
X93385777Y-105793911D01*
X93385777Y-105793910D01*
X93272550Y-105609142D01*
X93254305Y-105541697D01*
X93275421Y-105475094D01*
X93303962Y-105445088D01*
X93407546Y-105367546D01*
X93493796Y-105252331D01*
X93544091Y-105117483D01*
X93550500Y-105057873D01*
X93550499Y-102862128D01*
X93544091Y-102802517D01*
X93493796Y-102667669D01*
X93493795Y-102667668D01*
X93493793Y-102667664D01*
X93407547Y-102552455D01*
X93407544Y-102552452D01*
X93292335Y-102466206D01*
X93292328Y-102466202D01*
X93157482Y-102415908D01*
X93157483Y-102415908D01*
X93097883Y-102409501D01*
X93097881Y-102409500D01*
X93097873Y-102409500D01*
X93097864Y-102409500D01*
X90902129Y-102409500D01*
X90902123Y-102409501D01*
X90842516Y-102415908D01*
X90707671Y-102466202D01*
X90707664Y-102466206D01*
X90592455Y-102552452D01*
X90592452Y-102552455D01*
X90506206Y-102667664D01*
X90506202Y-102667671D01*
X90455908Y-102802517D01*
X90449501Y-102862116D01*
X90449501Y-102862123D01*
X90449500Y-102862135D01*
X90449500Y-105057870D01*
X90449501Y-105057876D01*
X90455908Y-105117483D01*
X90506202Y-105252328D01*
X90506206Y-105252335D01*
X90592452Y-105367544D01*
X90592455Y-105367547D01*
X90696033Y-105445086D01*
X90737904Y-105501019D01*
X90742888Y-105570711D01*
X90727449Y-105609142D01*
X90614222Y-105793910D01*
X90520830Y-106019380D01*
X90463853Y-106256702D01*
X90444706Y-106500000D01*
X81050500Y-106500000D01*
X81050500Y-99142505D01*
X126136857Y-99142505D01*
X126157390Y-99390312D01*
X126157392Y-99390324D01*
X126218436Y-99631381D01*
X126318326Y-99859106D01*
X126454333Y-100067282D01*
X126454336Y-100067285D01*
X126622756Y-100250238D01*
X126818991Y-100402974D01*
X127037690Y-100521328D01*
X127272886Y-100602071D01*
X127518165Y-100643000D01*
X127766835Y-100643000D01*
X128012114Y-100602071D01*
X128247310Y-100521328D01*
X128466009Y-100402974D01*
X128662244Y-100250238D01*
X128830664Y-100067285D01*
X128966673Y-99859107D01*
X129066563Y-99631381D01*
X129127608Y-99390321D01*
X129148143Y-99142505D01*
X133756857Y-99142505D01*
X133777390Y-99390312D01*
X133777392Y-99390324D01*
X133838436Y-99631381D01*
X133938326Y-99859106D01*
X134074333Y-100067282D01*
X134074336Y-100067285D01*
X134242756Y-100250238D01*
X134438991Y-100402974D01*
X134657690Y-100521328D01*
X134892886Y-100602071D01*
X135138165Y-100643000D01*
X135386835Y-100643000D01*
X135632114Y-100602071D01*
X135867310Y-100521328D01*
X136086009Y-100402974D01*
X136282244Y-100250238D01*
X136450664Y-100067285D01*
X136586673Y-99859107D01*
X136686563Y-99631381D01*
X136747608Y-99390321D01*
X136768143Y-99142505D01*
X138836857Y-99142505D01*
X138857390Y-99390312D01*
X138857392Y-99390324D01*
X138918436Y-99631381D01*
X139018326Y-99859106D01*
X139154333Y-100067282D01*
X139154336Y-100067285D01*
X139322756Y-100250238D01*
X139518991Y-100402974D01*
X139737690Y-100521328D01*
X139972886Y-100602071D01*
X140218165Y-100643000D01*
X140466835Y-100643000D01*
X140712114Y-100602071D01*
X140947310Y-100521328D01*
X141166009Y-100402974D01*
X141362244Y-100250238D01*
X141530664Y-100067285D01*
X141666673Y-99859107D01*
X141766563Y-99631381D01*
X141827608Y-99390321D01*
X141848143Y-99142505D01*
X143916857Y-99142505D01*
X143937390Y-99390312D01*
X143937392Y-99390324D01*
X143998436Y-99631381D01*
X144098326Y-99859106D01*
X144234333Y-100067282D01*
X144234336Y-100067285D01*
X144402756Y-100250238D01*
X144598991Y-100402974D01*
X144817690Y-100521328D01*
X145052886Y-100602071D01*
X145298165Y-100643000D01*
X145546835Y-100643000D01*
X145792114Y-100602071D01*
X146027310Y-100521328D01*
X146246009Y-100402974D01*
X146442244Y-100250238D01*
X146610664Y-100067285D01*
X146746673Y-99859107D01*
X146846563Y-99631381D01*
X146907608Y-99390321D01*
X146920893Y-99230000D01*
X151944706Y-99230000D01*
X151963853Y-99473297D01*
X152020830Y-99710619D01*
X152114222Y-99936089D01*
X152227449Y-100120857D01*
X152245694Y-100188303D01*
X152224578Y-100254905D01*
X152196034Y-100284913D01*
X152092452Y-100362455D01*
X152006206Y-100477664D01*
X152006202Y-100477671D01*
X151955908Y-100612517D01*
X151949501Y-100672116D01*
X151949501Y-100672123D01*
X151949500Y-100672135D01*
X151949500Y-102867870D01*
X151949501Y-102867876D01*
X151955908Y-102927483D01*
X152006202Y-103062328D01*
X152006206Y-103062335D01*
X152092452Y-103177544D01*
X152092455Y-103177547D01*
X152207664Y-103263793D01*
X152207671Y-103263797D01*
X152342517Y-103314091D01*
X152342516Y-103314091D01*
X152349444Y-103314835D01*
X152402127Y-103320500D01*
X154597872Y-103320499D01*
X154657483Y-103314091D01*
X154792331Y-103263796D01*
X154907546Y-103177546D01*
X154993796Y-103062331D01*
X155044091Y-102927483D01*
X155050500Y-102867873D01*
X155050499Y-100672128D01*
X155044091Y-100612517D01*
X155010080Y-100521330D01*
X154993797Y-100477671D01*
X154993793Y-100477664D01*
X154907547Y-100362455D01*
X154907544Y-100362452D01*
X154803966Y-100284913D01*
X154762095Y-100228979D01*
X154757111Y-100159288D01*
X154772548Y-100120860D01*
X154885777Y-99936089D01*
X154979172Y-99710612D01*
X155036146Y-99473302D01*
X155055294Y-99230000D01*
X155036146Y-98986698D01*
X154979172Y-98749388D01*
X154979169Y-98749380D01*
X154885777Y-98523910D01*
X154758262Y-98315826D01*
X154758261Y-98315823D01*
X154674470Y-98217717D01*
X154599759Y-98130241D01*
X154477063Y-98025449D01*
X154414176Y-97971738D01*
X154414173Y-97971737D01*
X154206089Y-97844222D01*
X153980618Y-97750830D01*
X153980621Y-97750830D01*
X153874992Y-97725470D01*
X153743302Y-97693854D01*
X153743300Y-97693853D01*
X153743297Y-97693853D01*
X153500000Y-97674706D01*
X153256702Y-97693853D01*
X153019380Y-97750830D01*
X152793910Y-97844222D01*
X152585826Y-97971737D01*
X152585823Y-97971738D01*
X152400241Y-98130241D01*
X152241738Y-98315823D01*
X152241737Y-98315826D01*
X152114222Y-98523910D01*
X152020830Y-98749380D01*
X151963853Y-98986702D01*
X151944706Y-99230000D01*
X146920893Y-99230000D01*
X146928143Y-99142500D01*
X146915233Y-98986702D01*
X146907609Y-98894687D01*
X146907607Y-98894675D01*
X146846563Y-98653618D01*
X146746673Y-98425893D01*
X146610666Y-98217717D01*
X146589057Y-98194244D01*
X146442244Y-98034762D01*
X146246009Y-97882026D01*
X146246007Y-97882025D01*
X146246006Y-97882024D01*
X146027311Y-97763672D01*
X146027302Y-97763669D01*
X145792116Y-97682929D01*
X145546835Y-97642000D01*
X145298165Y-97642000D01*
X145052883Y-97682929D01*
X144817697Y-97763669D01*
X144817688Y-97763672D01*
X144598993Y-97882024D01*
X144402757Y-98034761D01*
X144234333Y-98217717D01*
X144098326Y-98425893D01*
X143998436Y-98653618D01*
X143937392Y-98894675D01*
X143937390Y-98894687D01*
X143916857Y-99142494D01*
X143916857Y-99142505D01*
X141848143Y-99142505D01*
X141848143Y-99142500D01*
X141835233Y-98986702D01*
X141827609Y-98894687D01*
X141827607Y-98894675D01*
X141766563Y-98653618D01*
X141666673Y-98425893D01*
X141530666Y-98217717D01*
X141509057Y-98194244D01*
X141362244Y-98034762D01*
X141166009Y-97882026D01*
X141166007Y-97882025D01*
X141166006Y-97882024D01*
X140947311Y-97763672D01*
X140947302Y-97763669D01*
X140712116Y-97682929D01*
X140466835Y-97642000D01*
X140218165Y-97642000D01*
X139972883Y-97682929D01*
X139737697Y-97763669D01*
X139737688Y-97763672D01*
X139518993Y-97882024D01*
X139322757Y-98034761D01*
X139154333Y-98217717D01*
X139018326Y-98425893D01*
X138918436Y-98653618D01*
X138857392Y-98894675D01*
X138857390Y-98894687D01*
X138836857Y-99142494D01*
X138836857Y-99142505D01*
X136768143Y-99142505D01*
X136768143Y-99142500D01*
X136755233Y-98986702D01*
X136747609Y-98894687D01*
X136747607Y-98894675D01*
X136686563Y-98653618D01*
X136586673Y-98425893D01*
X136450666Y-98217717D01*
X136429057Y-98194244D01*
X136282244Y-98034762D01*
X136086009Y-97882026D01*
X136086007Y-97882025D01*
X136086006Y-97882024D01*
X135867311Y-97763672D01*
X135867302Y-97763669D01*
X135632116Y-97682929D01*
X135386835Y-97642000D01*
X135138165Y-97642000D01*
X134892883Y-97682929D01*
X134657697Y-97763669D01*
X134657688Y-97763672D01*
X134438993Y-97882024D01*
X134242757Y-98034761D01*
X134074333Y-98217717D01*
X133938326Y-98425893D01*
X133838436Y-98653618D01*
X133777392Y-98894675D01*
X133777390Y-98894687D01*
X133756857Y-99142494D01*
X133756857Y-99142505D01*
X129148143Y-99142505D01*
X129148143Y-99142500D01*
X129135233Y-98986702D01*
X129127609Y-98894687D01*
X129127607Y-98894675D01*
X129066563Y-98653618D01*
X128966673Y-98425893D01*
X128830666Y-98217717D01*
X128809057Y-98194244D01*
X128662244Y-98034762D01*
X128466009Y-97882026D01*
X128466007Y-97882025D01*
X128466006Y-97882024D01*
X128247311Y-97763672D01*
X128247302Y-97763669D01*
X128012116Y-97682929D01*
X127766835Y-97642000D01*
X127518165Y-97642000D01*
X127272883Y-97682929D01*
X127037697Y-97763669D01*
X127037688Y-97763672D01*
X126818993Y-97882024D01*
X126622757Y-98034761D01*
X126454333Y-98217717D01*
X126318326Y-98425893D01*
X126218436Y-98653618D01*
X126157392Y-98894675D01*
X126157390Y-98894687D01*
X126136857Y-99142494D01*
X126136857Y-99142505D01*
X81050500Y-99142505D01*
X81050500Y-96999999D01*
X90445207Y-96999999D01*
X90464348Y-97243219D01*
X90521303Y-97480457D01*
X90614668Y-97705861D01*
X90738504Y-97907942D01*
X91474070Y-97172375D01*
X91476884Y-97185915D01*
X91546442Y-97320156D01*
X91649638Y-97430652D01*
X91778819Y-97509209D01*
X91830002Y-97523549D01*
X91092056Y-98261494D01*
X91294138Y-98385331D01*
X91519542Y-98478696D01*
X91756780Y-98535651D01*
X91756779Y-98535651D01*
X92000000Y-98554792D01*
X92243219Y-98535651D01*
X92480457Y-98478696D01*
X92705861Y-98385331D01*
X92907942Y-98261494D01*
X92171568Y-97525121D01*
X92288458Y-97474349D01*
X92405739Y-97378934D01*
X92492928Y-97255415D01*
X92523354Y-97169802D01*
X93261494Y-97907942D01*
X93385331Y-97705861D01*
X93478696Y-97480457D01*
X93535651Y-97243219D01*
X93554792Y-96999999D01*
X93535651Y-96756780D01*
X93478696Y-96519542D01*
X93385331Y-96294138D01*
X93272149Y-96109442D01*
X93253904Y-96041996D01*
X93275020Y-95975394D01*
X93303560Y-95945389D01*
X93407546Y-95867546D01*
X93493796Y-95752331D01*
X93544091Y-95617483D01*
X93550500Y-95557873D01*
X93550499Y-93362128D01*
X93544091Y-93302517D01*
X93510476Y-93212391D01*
X93493797Y-93167671D01*
X93493793Y-93167664D01*
X93407547Y-93052455D01*
X93407544Y-93052452D01*
X93292335Y-92966206D01*
X93292328Y-92966202D01*
X93157482Y-92915908D01*
X93157483Y-92915908D01*
X93097883Y-92909501D01*
X93097881Y-92909500D01*
X93097873Y-92909500D01*
X93097864Y-92909500D01*
X90902129Y-92909500D01*
X90902123Y-92909501D01*
X90842516Y-92915908D01*
X90707671Y-92966202D01*
X90707664Y-92966206D01*
X90592455Y-93052452D01*
X90592452Y-93052455D01*
X90506206Y-93167664D01*
X90506202Y-93167671D01*
X90455908Y-93302517D01*
X90449501Y-93362116D01*
X90449501Y-93362123D01*
X90449500Y-93362135D01*
X90449500Y-95557870D01*
X90449501Y-95557876D01*
X90455908Y-95617483D01*
X90506202Y-95752328D01*
X90506206Y-95752335D01*
X90575358Y-95844709D01*
X90592454Y-95867546D01*
X90696434Y-95945386D01*
X90738305Y-96001319D01*
X90743289Y-96071011D01*
X90727851Y-96109441D01*
X90614667Y-96294140D01*
X90521303Y-96519542D01*
X90464348Y-96756780D01*
X90445207Y-96999999D01*
X81050500Y-96999999D01*
X81050500Y-91845845D01*
X81070185Y-91778806D01*
X81122989Y-91733051D01*
X81192147Y-91723107D01*
X81255703Y-91752132D01*
X81277133Y-91776258D01*
X81408498Y-91970006D01*
X81408505Y-91970016D01*
X81635028Y-92236698D01*
X81636686Y-92238650D01*
X81892580Y-92481046D01*
X82173182Y-92694354D01*
X82475202Y-92876074D01*
X82475206Y-92876075D01*
X82475210Y-92876078D01*
X82795088Y-93024070D01*
X82795092Y-93024070D01*
X82795099Y-93024074D01*
X83129122Y-93136619D01*
X83473355Y-93212391D01*
X83823763Y-93250500D01*
X83823769Y-93250500D01*
X84176231Y-93250500D01*
X84176237Y-93250500D01*
X84526645Y-93212391D01*
X84870878Y-93136619D01*
X85204901Y-93024074D01*
X85204908Y-93024070D01*
X85204911Y-93024070D01*
X85524789Y-92876078D01*
X85524798Y-92876074D01*
X85826818Y-92694354D01*
X86107420Y-92481046D01*
X86108524Y-92480000D01*
X151944706Y-92480000D01*
X151963853Y-92723297D01*
X151963853Y-92723300D01*
X151963854Y-92723302D01*
X152010095Y-92915908D01*
X152020830Y-92960619D01*
X152114222Y-93186089D01*
X152227449Y-93370857D01*
X152245694Y-93438303D01*
X152224578Y-93504905D01*
X152196034Y-93534913D01*
X152092452Y-93612455D01*
X152006206Y-93727664D01*
X152006202Y-93727671D01*
X151955908Y-93862517D01*
X151949501Y-93922116D01*
X151949501Y-93922123D01*
X151949500Y-93922135D01*
X151949500Y-96117870D01*
X151949501Y-96117876D01*
X151955908Y-96177483D01*
X152006202Y-96312328D01*
X152006206Y-96312335D01*
X152092452Y-96427544D01*
X152092455Y-96427547D01*
X152207664Y-96513793D01*
X152207671Y-96513797D01*
X152342517Y-96564091D01*
X152342516Y-96564091D01*
X152349444Y-96564835D01*
X152402127Y-96570500D01*
X154597872Y-96570499D01*
X154657483Y-96564091D01*
X154792331Y-96513796D01*
X154907546Y-96427546D01*
X154993796Y-96312331D01*
X155044091Y-96177483D01*
X155050500Y-96117873D01*
X155050499Y-93922128D01*
X155044091Y-93862517D01*
X154993796Y-93727669D01*
X154993795Y-93727668D01*
X154993793Y-93727664D01*
X154907547Y-93612455D01*
X154907544Y-93612452D01*
X154803966Y-93534913D01*
X154762095Y-93478979D01*
X154757111Y-93409288D01*
X154772548Y-93370860D01*
X154885777Y-93186089D01*
X154979172Y-92960612D01*
X155036146Y-92723302D01*
X155055294Y-92480000D01*
X155036146Y-92236698D01*
X154979172Y-91999388D01*
X154967006Y-91970016D01*
X154885777Y-91773910D01*
X154758262Y-91565826D01*
X154758261Y-91565823D01*
X154722453Y-91523897D01*
X154599759Y-91380241D01*
X154475477Y-91274094D01*
X154414176Y-91221738D01*
X154414173Y-91221737D01*
X154206089Y-91094222D01*
X153980618Y-91000830D01*
X153980621Y-91000830D01*
X153874992Y-90975470D01*
X153743302Y-90943854D01*
X153743300Y-90943853D01*
X153743297Y-90943853D01*
X153500000Y-90924706D01*
X153256702Y-90943853D01*
X153019380Y-91000830D01*
X152793910Y-91094222D01*
X152585826Y-91221737D01*
X152585823Y-91221738D01*
X152400241Y-91380241D01*
X152241738Y-91565823D01*
X152241737Y-91565826D01*
X152114222Y-91773910D01*
X152020830Y-91999380D01*
X151963853Y-92236702D01*
X151944706Y-92480000D01*
X86108524Y-92480000D01*
X86363314Y-92238650D01*
X86591501Y-91970008D01*
X86789305Y-91678269D01*
X86954407Y-91366854D01*
X87084871Y-91039414D01*
X87095585Y-91000828D01*
X87116720Y-90924706D01*
X87179168Y-90699788D01*
X87236191Y-90351957D01*
X87255274Y-90000000D01*
X87236191Y-89648043D01*
X87179168Y-89300212D01*
X87136704Y-89147271D01*
X87084873Y-88960591D01*
X87084872Y-88960589D01*
X86954411Y-88633155D01*
X86954402Y-88633137D01*
X86949500Y-88623890D01*
X86789305Y-88321731D01*
X86591501Y-88029992D01*
X86591497Y-88029987D01*
X86591494Y-88029983D01*
X86363314Y-87761350D01*
X86107420Y-87518954D01*
X86107413Y-87518948D01*
X86107410Y-87518946D01*
X85826815Y-87305644D01*
X85524802Y-87123928D01*
X85524789Y-87123921D01*
X85336996Y-87037039D01*
X85284418Y-86991025D01*
X85265064Y-86923889D01*
X85285078Y-86856948D01*
X85338107Y-86811453D01*
X85389062Y-86800500D01*
X162610938Y-86800500D01*
X162677977Y-86820185D01*
G37*
G04 #@! TD.AperFunction*
M02*
